  0
SECTION
  2
HEADER
  9
$ACADVER
  1
AC1015
  9
$ACADMAINTVER
 70
     6
  9
$DWGCODEPAGE
  3
ANSI_1252
  9
$INSBASE
 10
0.0
 20
0.0
 30
0.0
  9
$EXTMIN
 10
-4.25
 20
-1.0
 30
0.0
  9
$EXTMAX
 10
4.25
 20
1.0
 30
0.0
  9
$LIMMIN
 10
0.0
 20
0.0
  9
$LIMMAX
 10
12.0
 20
9.0
  9
$ORTHOMODE
 70
     0
  9
$REGENMODE
 70
     1
  9
$FILLMODE
 70
     1
  9
$QTEXTMODE
 70
     0
  9
$MIRRTEXT
 70
     1
  9
$LTSCALE
 40
1.0
  9
$ATTMODE
 70
     1
  9
$TEXTSIZE
 40
0.125
  9
$TRACEWID
 40
0.05
  9
$TEXTSTYLE
  7
Standard
  9
$CLAYER
  8
0
  9
$CELTYPE
  6
ByLayer
  9
$CECOLOR
 62
   256
  9
$CELTSCALE
 40
1.0
  9
$DISPSILH
 70
     0
  9
$DIMSCALE
 40
1.0
  9
$DIMASZ
 40
0.13
  9
$DIMEXO
 40
0.0
  9
$DIMDLI
 40
0.38
  9
$DIMRND
 40
0.0
  9
$DIMDLE
 40
0.0
  9
$DIMEXE
 40
0.125
  9
$DIMTP
 40
0.0
  9
$DIMTM
 40
0.0
  9
$DIMTXT
 40
0.125
  9
$DIMCEN
 40
0.09
  9
$DIMTSZ
 40
0.0
  9
$DIMTOL
 70
     0
  9
$DIMLIM
 70
     0
  9
$DIMTIH
 70
     1
  9
$DIMTOH
 70
     1
  9
$DIMSE1
 70
     0
  9
$DIMSE2
 70
     0
  9
$DIMTAD
 70
     0
  9
$DIMZIN
 70
     1
  9
$DIMBLK
  1

  9
$DIMASO
 70
     1
  9
$DIMSHO
 70
     1
  9
$DIMPOST
  1

  9
$DIMAPOST
  1

  9
$DIMALT
 70
     0
  9
$DIMALTD
 70
     2
  9
$DIMALTF
 40
25.4
  9
$DIMLFAC
 40
1.0
  9
$DIMTOFL
 70
     0
  9
$DIMTVP
 40
0.0
  9
$DIMTIX
 70
     0
  9
$DIMSOXD
 70
     0
  9
$DIMSAH
 70
     0
  9
$DIMBLK1
  1

  9
$DIMBLK2
  1

  9
$DIMSTYLE
  2
Standard
  9
$DIMCLRD
 70
     0
  9
$DIMCLRE
 70
     0
  9
$DIMCLRT
 70
     0
  9
$DIMTFAC
 40
1.0
  9
$DIMGAP
 40
0.06
  9
$DIMJUST
 70
     0
  9
$DIMSD1
 70
     0
  9
$DIMSD2
 70
     0
  9
$DIMTOLJ
 70
     1
  9
$DIMTZIN
 70
     1
  9
$DIMALTZ
 70
     0
  9
$DIMALTTZ
 70
     0
  9
$DIMUPT
 70
     0
  9
$DIMDEC
 70
     2
  9
$DIMTDEC
 70
     2
  9
$DIMALTU
 70
     2
  9
$DIMALTTD
 70
     2
  9
$DIMTXSTY
  7
Standard
  9
$DIMAUNIT
 70
     0
  9
$DIMADEC
 70
     2
  9
$DIMALTRND
 40
0.0
  9
$DIMAZIN
 70
     0
  9
$DIMDSEP
 70
    46
  9
$DIMATFIT
 70
     3
  9
$DIMFRAC
 70
     0
  9
$DIMLDRBLK
  1

  9
$DIMLUNIT
 70
     2
  9
$DIMLWD
 70
    -2
  9
$DIMLWE
 70
    -2
  9
$DIMTMOVE
 70
     0
  9
$LUNITS
 70
     2
  9
$LUPREC
 70
     2
  9
$SKETCHINC
 40
0.1
  9
$FILLETRAD
 40
0.5
  9
$AUNITS
 70
     0
  9
$AUPREC
 70
     2
  9
$MENU
  1
.
  9
$ELEVATION
 40
0.0
  9
$PELEVATION
 40
0.0
  9
$THICKNESS
 40
0.0
  9
$LIMCHECK
 70
     0
  9
$CHAMFERA
 40
0.0
  9
$CHAMFERB
 40
0.0
  9
$CHAMFERC
 40
0.0
  9
$CHAMFERD
 40
0.0
  9
$SKPOLY
 70
     0
  9
$TDCREATE
 40
2459340.622588565
  9
$TDUCREATE
 40
2459340.830921898
  9
$TDUPDATE
 40
2459340.622616956
  9
$TDUUPDATE
 40
2459340.830950289
  9
$TDINDWG
 40
0.0000000116
  9
$TDUSRTIMER
 40
0.0000000116
  9
$USRTIMER
 70
     1
  9
$ANGBASE
 50
0.0
  9
$ANGDIR
 70
     0
  9
$PDMODE
 70
     0
  9
$PDSIZE
 40
-1.0
  9
$PLINEWID
 40
0.0
  9
$SPLFRAME
 70
     0
  9
$SPLINETYPE
 70
     6
  9
$SPLINESEGS
 70
     8
  9
$HANDSEED
  5
1FF
  9
$SURFTAB1
 70
     6
  9
$SURFTAB2
 70
     6
  9
$SURFTYPE
 70
     6
  9
$SURFU
 70
     6
  9
$SURFV
 70
     6
  9
$UCSBASE
  2

  9
$UCSNAME
  2

  9
$UCSORG
 10
0.0
 20
0.0
 30
0.0
  9
$UCSXDIR
 10
1.0
 20
0.0
 30
0.0
  9
$UCSYDIR
 10
0.0
 20
1.0
 30
0.0
  9
$UCSORTHOREF
  2

  9
$UCSORTHOVIEW
 70
     0
  9
$UCSORGTOP
 10
0.0
 20
0.0
 30
0.0
  9
$UCSORGBOTTOM
 10
0.0
 20
0.0
 30
0.0
  9
$UCSORGLEFT
 10
0.0
 20
0.0
 30
0.0
  9
$UCSORGRIGHT
 10
0.0
 20
0.0
 30
0.0
  9
$UCSORGFRONT
 10
0.0
 20
0.0
 30
0.0
  9
$UCSORGBACK
 10
0.0
 20
0.0
 30
0.0
  9
$PUCSBASE
  2

  9
$PUCSNAME
  2

  9
$PUCSORG
 10
0.0
 20
0.0
 30
0.0
  9
$PUCSXDIR
 10
1.0
 20
0.0
 30
0.0
  9
$PUCSYDIR
 10
0.0
 20
1.0
 30
0.0
  9
$PUCSORTHOREF
  2

  9
$PUCSORTHOVIEW
 70
     0
  9
$PUCSORGTOP
 10
0.0
 20
0.0
 30
0.0
  9
$PUCSORGBOTTOM
 10
0.0
 20
0.0
 30
0.0
  9
$PUCSORGLEFT
 10
0.0
 20
0.0
 30
0.0
  9
$PUCSORGRIGHT
 10
0.0
 20
0.0
 30
0.0
  9
$PUCSORGFRONT
 10
0.0
 20
0.0
 30
0.0
  9
$PUCSORGBACK
 10
0.0
 20
0.0
 30
0.0
  9
$USERI1
 70
     0
  9
$USERI2
 70
     0
  9
$USERI3
 70
     0
  9
$USERI4
 70
     0
  9
$USERI5
 70
     0
  9
$USERR1
 40
0.0
  9
$USERR2
 40
0.0
  9
$USERR3
 40
0.0
  9
$USERR4
 40
0.0
  9
$USERR5
 40
0.0
  9
$WORLDVIEW
 70
     1
  9
$SHADEDGE
 70
     3
  9
$SHADEDIF
 70
    70
  9
$TILEMODE
 70
     1
  9
$MAXACTVP
 70
    64
  9
$PINSBASE
 10
0.0
 20
0.0
 30
0.0
  9
$PLIMCHECK
 70
     0
  9
$PEXTMIN
 10
1.0000000000E+20
 20
1.0000000000E+20
 30
1.0000000000E+20
  9
$PEXTMAX
 10
-1.0000000000E+20
 20
-1.0000000000E+20
 30
-1.0000000000E+20
  9
$PLIMMIN
 10
0.0
 20
0.0
  9
$PLIMMAX
 10
12.0
 20
9.0
  9
$UNITMODE
 70
     0
  9
$VISRETAIN
 70
     1
  9
$PLINEGEN
 70
     0
  9
$PSLTSCALE
 70
     1
  9
$TREEDEPTH
 70
  3020
  9
$CMLSTYLE
  2
Standard
  9
$CMLJUST
 70
     0
  9
$CMLSCALE
 40
1.0
  9
$PROXYGRAPHICS
 70
     1
  9
$MEASUREMENT
 70
     0
  9
$CELWEIGHT
370
    -1
  9
$ENDCAPS
280
     0
  9
$JOINSTYLE
280
     0
  9
$LWDISPLAY
290
     1
  9
$INSUNITS
 70
     1
  9
$HYPERLINKBASE
  1

  9
$STYLESHEET
  1

  9
$XEDIT
290
     1
  9
$CEPSNTYPE
380
     0
  9
$PSTYLEMODE
290
     1
  9
$FINGERPRINTGUID
  2
{fdee33e4-84d2-4fdc-9965-edd9f9e52a09}
  9
$VERSIONGUID
  2
{FAEB1C32-E019-11D5-929B-00C0DF256EC4}
  9
$EXTNAMES
290
     1
  9
$PSVPSCALE
 40
0.0
  9
$OLESTARTUP
290
     0
  0
ENDSEC
  0
SECTION
  2
CLASSES
  0
CLASS
  1
ACDBDICTIONARYWDFLT
  2
AcDbDictionaryWithDefault
  3
ObjectDBX Classes
 90
        0
280
     0
281
     0
  0
CLASS
  1
VISUALSTYLE
  2
AcDbVisualStyle
  3
ObjectDBX Classes
 90
     4095
280
     0
281
     0
  0
CLASS
  1
MATERIAL
  2
AcDbMaterial
  3
ObjectDBX Classes
 90
     1153
280
     0
281
     0
  0
CLASS
  1
SCALE
  2
AcDbScale
  3
ObjectDBX Classes
 90
     1153
280
     0
281
     0
  0
CLASS
  1
TABLESTYLE
  2
AcDbTableStyle
  3
ObjectDBX Classes
 90
     4095
280
     0
281
     0
  0
CLASS
  1
MLEADERSTYLE
  2
AcDbMLeaderStyle
  3
ACDB_MLEADERSTYLE_CLASS
 90
     4095
280
     0
281
     0
  0
CLASS
  1
SUN
  2
AcDbSun
  3
SCENEOE
 90
     1153
280
     0
281
     0
  0
CLASS
  1
ACDBPLACEHOLDER
  2
AcDbPlaceHolder
  3
ObjectDBX Classes
 90
        0
280
     0
281
     0
  0
CLASS
  1
LAYOUT
  2
AcDbLayout
  3
ObjectDBX Classes
 90
        0
280
     0
281
     0
  0
ENDSEC
  0
SECTION
  2
TABLES
  0
TABLE
  2
VPORT
  5
8
330
0
100
AcDbSymbolTable
 70
     1
  0
VPORT
  5
29
330
8
100
AcDbSymbolTableRecord
100
AcDbViewportTableRecord
  2
*Active
 70
     0
 10
0.0
 20
0.0
 11
1.0
 21
1.0
 12
0.0
 22
0.0
 13
0.0
 23
0.0
 14
0.5
 24
0.5
 15
0.5
 25
0.5
 16
0.0
 26
0.0
 36
1.0
 17
0.0
 27
0.0
 37
0.0
 40
2.04
 41
4.25
 42
50.0
 43
0.0
 44
0.0
 50
0.0
 51
0.0
 71
     0
 72
   100
 73
     1
 74
     3
 75
     0
 76
     0
 77
     0
 78
     0
281
     0
 65
     1
110
0.0
120
0.0
130
0.0
111
1.0
121
0.0
131
0.0
112
0.0
122
1.0
132
0.0
 79
     0
146
0.0
  0
ENDTAB
  0
TABLE
  2
LTYPE
  5
5
330
0
100
AcDbSymbolTable
 70
     6
  0
LTYPE
  5
14
330
5
100
AcDbSymbolTableRecord
100
AcDbLinetypeTableRecord
  2
ByBlock
 70
     0
  3

 72
    65
 73
     0
 40
0.0
  0
LTYPE
  5
15
330
5
100
AcDbSymbolTableRecord
100
AcDbLinetypeTableRecord
  2
ByLayer
 70
     0
  3

 72
    65
 73
     0
 40
0.0
  0
LTYPE
  5
16
330
5
100
AcDbSymbolTableRecord
100
AcDbLinetypeTableRecord
  2
Continuous
 70
     0
  3
Solid line
 72
    65
 73
     0
 40
0.0
  0
LTYPE
  5
6E
330
5
100
AcDbSymbolTableRecord
100
AcDbLinetypeTableRecord
  2
HIDDEN
 70
     0
  3
Hidden __ __ __ __ __ __ __ __ __ __ __ __ __ __
 72
    65
 73
     2
 40
0.075
 49
0.05
 74
     0
 49
-0.025
 74
     0
  0
LTYPE
  5
6F
330
5
100
AcDbSymbolTableRecord
100
AcDbLinetypeTableRecord
  2
PHANTOM
 70
     0
  3
Phantom ______  __  __  ______  __  __  ______
 72
    65
 73
     6
 40
0.5
 49
0.25
 74
     0
 49
-0.05
 74
     0
 49
0.05
 74
     0
 49
-0.05
 74
     0
 49
0.05
 74
     0
 49
-0.05
 74
     0
  0
LTYPE
  5
70
330
5
100
AcDbSymbolTableRecord
100
AcDbLinetypeTableRecord
  2
CENTER
 70
     0
  3
Center ____ _ ____ _ ____ _ ____ _ ____ _ ____
 72
    65
 73
     4
 40
0.4
 49
0.25
 74
     0
 49
-0.05
 74
     0
 49
0.05
 74
     0
 49
-0.05
 74
     0
  0
LTYPE
  5
71
330
5
100
AcDbSymbolTableRecord
100
AcDbLinetypeTableRecord
  2
CENTERX2
 70
     0
  3
Center (2x) ________  __  ________  __  _____
 72
    65
 73
     4
 40
0.8
 49
0.5
 74
     0
 49
-0.1
 74
     0
 49
0.1
 74
     0
 49
-0.1
 74
     0
  0
LTYPE
  5
72
330
5
100
AcDbSymbolTableRecord
100
AcDbLinetypeTableRecord
  2
DOT2
 70
     0
  3
Dot (.5x) ........................................
 72
    65
 73
     2
 40
0.025
 49
0.0
 74
     0
 49
-0.025
 74
     0
  0
ENDTAB
  0
TABLE
  2
LAYER
  5
2
330
0
100
AcDbSymbolTable
 70
     1
  0
LAYER
  5
10
330
2
100
AcDbSymbolTableRecord
100
AcDbLayerTableRecord
  2
0
 70
     0
 62
     7
  6
Continuous
370
    -3
390
F
  0
ENDTAB
  0
TABLE
  2
STYLE
  5
3
330
0
100
AcDbSymbolTable
 70
     2
  0
STYLE
  5
11
330
3
100
AcDbSymbolTableRecord
100
AcDbTextStyleTableRecord
  2
Standard
 70
     0
 40
0.0
 41
1.0
 50
0.0
 71
     0
 42
0.125
  3
txt
  4

  0
STYLE
  5
1FB
330
3
100
AcDbSymbolTableRecord
100
AcDbTextStyleTableRecord
  2
SLDTEXTSTYLE0
 70
     0
 40
0.0
 41
0.7
 50
0.0
 71
     0
 42
0.125
  3
TXT
  4

  0
ENDTAB
  0
TABLE
  2
VIEW
  5
6
330
0
100
AcDbSymbolTable
 70
     0
  0
ENDTAB
  0
TABLE
  2
UCS
  5
7
330
0
100
AcDbSymbolTable
 70
     0
  0
ENDTAB
  0
TABLE
  2
APPID
  5
9
330
0
100
AcDbSymbolTable
 70
     1
  0
APPID
  5
12
330
9
100
AcDbSymbolTableRecord
100
AcDbRegAppTableRecord
  2
ACAD
 70
     0
  0
ENDTAB
  0
TABLE
  2
DIMSTYLE
  5
A
330
0
100
AcDbSymbolTable
 70
     1
100
AcDbDimStyleTable
  0
DIMSTYLE
105
27
330
A
100
AcDbSymbolTableRecord
100
AcDbDimStyleTableRecord
  2
Standard
 70
     0
178
     0
340
11
  0
ENDTAB
  0
TABLE
  2
BLOCK_RECORD
  5
1
330
0
100
AcDbSymbolTable
 70
     1
  0
BLOCK_RECORD
  5
1F
330
1
100
AcDbSymbolTableRecord
100
AcDbBlockTableRecord
  2
*Model_Space
340
22
  0
BLOCK_RECORD
  5
1B
330
1
100
AcDbSymbolTableRecord
100
AcDbBlockTableRecord
  2
*Paper_Space
340
1E
  0
BLOCK_RECORD
  5
23
330
1
100
AcDbSymbolTableRecord
100
AcDbBlockTableRecord
  2
*Paper_Space0
340
26
  0
ENDTAB
  0
ENDSEC
  0
SECTION
  2
BLOCKS
  0
BLOCK
  5
20
330
1F
100
AcDbEntity
  8
0
100
AcDbBlockBegin
  2
*Model_Space
 70
     0
 10
0.0
 20
0.0
 30
0.0
  3
*Model_Space
  1

  0
ENDBLK
  5
21
330
1F
100
AcDbEntity
  8
0
100
AcDbBlockEnd
  0
BLOCK
  5
1C
330
1B
100
AcDbEntity
 67
     1
  8
0
100
AcDbBlockBegin
  2
*Paper_Space
 70
     0
 10
0.0
 20
0.0
 30
0.0
  3
*Paper_Space
  1

  0
ENDBLK
  5
1D
330
1B
100
AcDbEntity
 67
     1
  8
0
100
AcDbBlockEnd
  0
BLOCK
  5
24
330
23
100
AcDbEntity
  8
0
100
AcDbBlockBegin
  2
*Paper_Space0
 70
     0
 10
0.0
 20
0.0
 30
0.0
  3
*Paper_Space0
  1

  0
ENDBLK
  5
25
330
23
100
AcDbEntity
  8
0
100
AcDbBlockEnd
  0
ENDSEC
  0
SECTION
  2
ENTITIES
  0
SPLINE
  5
B7
330
1F
100
AcDbEntity
  8
0
  6
Continuous
 62
     7
370
    25
100
AcDbSpline
210
0.0
220
0.0
230
1.0
 70
     8
 71
     3
 72
    11
 73
     7
 74
     0
 42
0.00000001
 43
0.00000001
 40
0.0
 40
0.0
 40
0.0
 40
0.0
 40
0.1365306402920261
 40
0.3464214440478781
 40
0.6351490570403591
 40
1.0
 40
1.0
 40
1.0
 40
1.0
 10
1.903329778600622
 20
-0.2431062627721716
 30
0.0
 10
1.90382246152745
 20
-0.2414198719097707
 30
0.0
 10
1.905072554038584
 20
-0.2371409645778157
 30
0.0
 10
1.905719425664101
 20
-0.2289676617663348
 30
0.0
 10
1.90627040245466
 20
-0.21790587790817
 30
0.0
 10
1.906273267053285
 20
-0.2095080772253462
 30
0.0
 10
1.906274866174769
 20
-0.2048201243082683
 30
0.0
  0
SPLINE
  5
CB
330
1F
100
AcDbEntity
  8
0
  6
Continuous
 62
     7
370
    25
100
AcDbSpline
210
0.0
220
0.0
230
1.0
 70
     8
 71
     3
 72
    11
 73
     7
 74
     0
 42
0.00000001
 43
0.00000001
 40
0.0
 40
0.0
 40
0.0
 40
0.0
 40
0.3424895105131691
 40
0.6156448711997932
 40
0.8296914783240764
 40
1.0
 40
1.0
 40
1.0
 40
1.0
 10
2.908675582320602
 20
0.2879465738932291
 30
0.0
 10
2.908561596037335
 20
0.2923326200736397
 30
0.0
 10
2.908356699044794
 20
0.3002167939035748
 30
0.0
 10
2.906654944730325
 20
0.3106718079848783
 30
0.0
 10
2.903582104837113
 20
0.3187715305569918
 30
0.0
 10
2.899876062791963
 20
0.3220864933938047
 30
0.0
 10
2.898233908194082
 20
0.3235553600169994
 30
0.0
  0
SPLINE
  5
FC
330
1F
100
AcDbEntity
  8
0
  6
Continuous
 62
     7
370
    25
100
AcDbSpline
210
0.0
220
0.0
230
1.0
 70
     8
 71
     3
 72
    15
 73
    11
 74
     0
 42
0.00000001
 43
0.00000001
 40
0.0
 40
0.0
 40
0.0
 40
0.0
 40
0.1370613775762877
 40
0.2664475248467578
 40
0.3900280490504501
 40
0.5100896172570257
 40
0.6285962059057486
 40
0.7479573470815186
 40
0.8711141855591095
 40
1.0
 40
1.0
 40
1.0
 40
1.0
 10
1.13466192174841
 20
0.0512686270254629
 30
0.0
 10
1.128576305437804
 20
0.0550927944359749
 30
0.0
 10
1.116745858146222
 20
0.0625269816530368
 30
0.0
 10
1.101190764030967
 20
0.0758527492306459
 30
0.0
 10
1.087642765844596
 20
0.0900112070482822
 30
0.0
 10
1.076957828163789
 20
0.1057619089411427
 30
0.0
 10
1.0682975305418
 20
0.1224602156337382
 30
0.0
 10
1.062502660101128
 20
0.1405241760815716
 30
0.0
 10
1.05872418597405
 20
0.1596777376174038
 30
0.0
 10
1.058304339600243
 20
0.1728909143811629
 30
0.0
 10
1.058089644820603
 20
0.1796476717348451
 30
0.0
  0
SPLINE
  5
FE
330
1F
100
AcDbEntity
  8
0
  6
Continuous
 62
     7
370
    25
100
AcDbSpline
210
0.0
220
0.0
230
1.0
 70
     8
 71
     3
 72
    15
 73
    11
 74
     0
 42
0.00000001
 43
0.00000001
 40
0.0
 40
0.0
 40
0.0
 40
0.0
 40
0.166598303097752
 40
0.3153673036240908
 40
0.447641313235377
 40
0.5692911221026639
 40
0.6818220791055798
 40
0.7856151686886088
 40
0.8892640811085801
 40
1.0
 40
1.0
 40
1.0
 40
1.0
 10
-1.183791337189851
 20
-0.2657298900462964
 30
0.0
 10
-1.180753742881363
 20
-0.2656102246251367
 30
0.0
 10
-1.175003636735266
 20
-0.265383700341837
 30
0.0
 10
-1.166891542371037
 20
-0.2641645569285683
 30
0.0
 10
-1.159919525473278
 20
-0.2617184190577597
 30
0.0
 10
-1.154071914091909
 20
-0.2583874906842041
 30
0.0
 10
-1.149461356556016
 20
-0.2542181530476396
 30
0.0
 10
-1.146075172503961
 20
-0.249391825117572
 30
0.0
 10
-1.144146285632448
 20
-0.2438238054706345
 30
0.0
 10
-1.143894812695077
 20
-0.2399080340451389
 30
0.0
 10
-1.143764919704861
 20
-0.2378854257089121
 30
0.0
  0
SPLINE
  5
FF
330
1F
100
AcDbEntity
  8
0
  6
Continuous
 62
     7
370
    25
100
AcDbSpline
210
0.0
220
0.0
230
1.0
 70
     8
 71
     3
 72
    11
 73
     7
 74
     0
 42
0.00000001
 43
0.00000001
 40
0.0
 40
0.0
 40
0.0
 40
0.0
 40
0.1491500803453609
 40
0.3606762762958963
 40
0.6435202988033821
 40
1.0
 40
1.0
 40
1.0
 40
1.0
 10
2.421397456416377
 20
-0.2500673788565178
 30
0.0
 10
2.422630000190609
 20
-0.2481071322954087
 30
0.0
 10
2.425610550370885
 20
-0.2433668436636792
 30
0.0
 10
2.427266896275528
 20
-0.2334140360912743
 30
0.0
 10
2.428860516575288
 20
-0.2204584826410065
 30
0.0
 10
2.428882041123381
 20
-0.2105902659333679
 30
0.0
 10
2.42889404296875
 20
-0.2050878595422816
 30
0.0
  0
SPLINE
  5
100
330
1F
100
AcDbEntity
  8
0
  6
Continuous
 62
     7
370
    25
100
AcDbSpline
210
0.0
220
0.0
230
1.0
 70
     8
 71
     3
 72
    11
 73
     7
 74
     0
 42
0.00000001
 43
0.00000001
 40
0.0
 40
0.0
 40
0.0
 40
0.0
 40
0.1764028803282982
 40
0.4000738096338341
 40
0.6734262021347179
 40
1.0
 40
1.0
 40
1.0
 40
1.0
 10
2.898233908194082
 20
0.3235553600169994
 30
0.0
 10
2.895025366109337
 20
0.3251997583062704
 30
0.0
 10
2.887748536769442
 20
0.3289291797699091
 30
0.0
 10
2.874229561229338
 20
0.3319020145471786
 30
0.0
 10
2.857546718209276
 20
0.3336628432197416
 30
0.0
 10
2.845319037604763
 20
0.3338792381364205
 30
0.0
 10
2.838662818626121
 20
0.3339970341435185
 30
0.0
  0
SPLINE
  5
102
330
1F
100
AcDbEntity
  8
0
  6
Continuous
 62
     7
370
    25
100
AcDbSpline
210
0.0
220
0.0
230
1.0
 70
     8
 71
     3
 72
    11
 73
     7
 74
     0
 42
0.00000001
 43
0.00000001
 40
0.0
 40
0.0
 40
0.0
 40
0.0
 40
0.36303319901499
 40
0.6475797232786968
 40
0.8549626141598847
 40
1.0
 40
1.0
 40
1.0
 40
1.0
 10
2.026220251012732
 20
-0.2087022852014613
 30
0.0
 10
2.026320994179386
 20
-0.2139778873737707
 30
0.0
 10
2.026500700146118
 20
-0.2233885225557379
 30
0.0
 10
2.027717789720155
 20
-0.2356850226969904
 30
0.0
 10
2.029656919226964
 20
-0.2449222673872996
 30
0.0
 10
2.032627976500889
 20
-0.2491363095888548
 30
0.0
 10
2.033850705182111
 20
-0.2508705845585577
 30
0.0
  0
SPLINE
  5
104
330
1F
100
AcDbEntity
  8
0
  6
Continuous
 62
     7
370
    25
100
AcDbSpline
210
0.0
220
0.0
230
1.0
 70
     8
 71
     3
 72
    15
 73
    11
 74
     0
 42
0.00000001
 43
0.00000001
 40
0.0
 40
0.0
 40
0.0
 40
0.0
 40
0.115390347138257
 40
0.2264077554010455
 40
0.3384105596253191
 40
0.4538009067635773
 40
0.5759534455618265
 40
0.7062807431315832
 40
0.8463525014993449
 40
1.0
 40
1.0
 40
1.0
 40
1.0
 10
-2.376417937102141
 20
-0.2282469572844329
 30
0.0
 10
-2.374791061094529
 20
-0.2312700211161826
 30
0.0
 10
-2.371598962670925
 20
-0.23720158396832
 30
0.0
 10
-2.364870067075587
 20
-0.244721353874308
 30
0.0
 10
-2.357417326076744
 20
-0.251502306886208
 30
0.0
 10
-2.348344031551588
 20
-0.2566302009596572
 30
0.0
 10
-2.338270340305757
 20
-0.2608991342419286
 30
0.0
 10
-2.326892000615484
 20
-0.2634935579544987
 30
0.0
 10
-2.314467127580621
 20
-0.2655611034275098
 30
0.0
 10
-2.305746292775132
 20
-0.2656719205135903
 30
0.0
 10
-2.3011843363444
 20
-0.2657298900462964
 30
0.0
  0
SPLINE
  5
106
330
1F
100
AcDbEntity
  8
0
  6
Continuous
 62
     7
370
    25
100
AcDbSpline
210
0.0
220
0.0
230
1.0
 70
     8
 71
     3
 72
    23
 73
    19
 74
     0
 42
0.00000001
 43
0.00000001
 40
0.0
 40
0.0
 40
0.0
 40
0.0
 40
0.0896812656517023
 40
0.1740104726716796
 40
0.2531911857661388
 40
0.3276130557969271
 40
0.3978354409288318
 40
0.4641329800847398
 40
0.5267789202466611
 40
0.5864956941443943
 40
0.6433480201866147
 40
0.6974432841486919
 40
0.7489694526153451
 40
0.7989973077690518
 40
0.8482711754427165
 40
0.8976136185407299
 40
0.9477800803165661
 40
1.0
 40
1.0
 40
1.0
 40
1.0
 10
3.679351453427915
 20
0.3682671440972222
 30
0.0
 10
3.690869312733332
 20
0.3681282213586955
 30
0.0
 10
3.713217660822946
 20
0.3678586666058692
 30
0.0
 10
3.745649087618868
 20
0.3653495580650867
 30
0.0
 10
3.77599846340995
 20
0.3616556465130175
 30
0.0
 10
3.804185789950917
 20
0.355934623674676
 30
0.0
 10
3.830403025241881
 20
0.3490138373990117
 30
0.0
 10
3.85441172618264
 20
0.3401066036706347
 30
0.0
 10
3.87641303878063
 20
0.3298769986689727
 30
0.0
 10
3.896104895267786
 20
0.3178880844655086
 30
0.0
 10
3.913726730468643
 20
0.3048030803391701
 30
0.0
 10
3.929065319115694
 20
0.2905989322747412
 30
0.0
 10
3.942111880614894
 20
0.2753853652626991
 30
0.0
 10
3.952610328819937
 20
0.2590420666804832
 30
0.0
 10
3.960861416304852
 20
0.2417739420699834
 30
0.0
 10
3.966798632284124
 20
0.2235618997248756
 30
0.0
 10
3.970359677109272
 20
0.2043286983133236
 30
0.0
 10
3.970816167839001
 20
0.191175437193665
 30
0.0
 10
3.971048990885416
 20
0.1844669059470847
 30
0.0
  0
SPLINE
  5
107
330
1F
100
AcDbEntity
  8
0
  6
Continuous
 62
     7
370
    25
100
AcDbSpline
210
0.0
220
0.0
230
1.0
 70
     8
 71
     3
 72
    15
 73
    11
 74
     0
 42
0.00000001
 43
0.00000001
 40
0.0
 40
0.0
 40
0.0
 40
0.0
 40
0.1337959227820059
 40
0.263841284944742
 40
0.3902323878200758
 40
0.5141881615731464
 40
0.6364295201330777
 40
0.7577079542160103
 40
0.8787928844914757
 40
1.0
 40
1.0
 40
1.0
 40
1.0
 10
1.383655689380788
 20
-0.308567527488426
 30
0.0
 10
1.372625979443536
 20
-0.3083674755663109
 30
0.0
 10
1.350875743846641
 20
-0.3079729795675612
 30
0.0
 10
1.318843276940946
 20
-0.3046817875428167
 30
0.0
 10
1.287922589163604
 20
-0.2993555711037361
 30
0.0
 10
1.258114155272756
 20
-0.2918473281929448
 30
0.0
 10
1.229367565063131
 20
-0.2822028108315634
 30
0.0
 10
1.201724684870861
 20
-0.2703547430727856
 30
0.0
 10
1.175079520573454
 20
-0.2565345397451119
 30
0.0
 10
1.158400442352943
 20
-0.2455315678619088
 30
0.0
 10
1.150056697704175
 20
-0.2400273075810186
 30
0.0
  0
SPLINE
  5
109
330
1F
100
AcDbEntity
  8
0
  6
Continuous
 62
     7
370
    25
100
AcDbSpline
210
0.0
220
0.0
230
1.0
 70
     8
 71
     3
 72
    11
 73
     7
 74
     0
 42
0.00000001
 43
0.00000001
 40
0.0
 40
0.0
 40
0.0
 40
0.0
 40
0.2882615020860398
 40
0.5398128346059994
 40
0.7732188856908692
 40
1.0
 40
1.0
 40
1.0
 40
1.0
 10
3.516970033998842
 20
-0.2266405458803531
 30
0.0
 10
3.517110154305821
 20
-0.2297374529482913
 30
0.0
 10
3.517372550565984
 20
-0.2355368752462993
 30
0.0
 10
3.519671472615307
 20
-0.2435733482997232
 30
0.0
 10
3.523552564452668
 20
-0.2503151215752032
 30
0.0
 10
3.527393188094915
 20
-0.2534671533868983
 30
0.0
 10
3.529285854763454
 20
-0.255020480685764
 30
0.0
  0
SPLINE
  5
10A
330
1F
100
AcDbEntity
  8
0
  6
Continuous
 62
     7
370
    25
100
AcDbSpline
210
0.0
220
0.0
230
1.0
 70
     8
 71
     3
 72
    15
 73
    11
 74
     0
 42
0.00000001
 43
0.00000001
 40
0.0
 40
0.0
 40
0.0
 40
0.0
 40
0.0845995531404276
 40
0.1699188491261137
 40
0.2662723855064864
 40
0.3778802012217358
 40
0.5052208266675505
 40
0.6495725884836384
 40
0.8132056860244573
 40
1.0
 40
1.0
 40
1.0
 40
1.0
 10
-2.974940052738896
 20
-0.2113796375415944
 30
0.0
 10
-2.974592503367921
 20
-0.2150538893688821
 30
0.0
 10
-2.973894447799795
 20
-0.222433652248432
 30
0.0
 10
-2.968390365879662
 20
-0.2328635522364751
 30
0.0
 10
-2.959606762095716
 20
-0.242139262910424
 30
0.0
 10
-2.947682387714918
 20
-0.2505596806094075
 30
0.0
 10
-2.932512592822787
 20
-0.2575021366376943
 30
0.0
 10
-2.914216343162602
 20
-0.2622267099585974
 30
0.0
 10
-2.892987248388545
 20
-0.2653763827183522
 30
0.0
 10
-2.877810191740008
 20
-0.2656069740217291
 30
0.0
 10
-2.869720105771664
 20
-0.2657298900462964
 30
0.0
  0
SPLINE
  5
10D
330
1F
100
AcDbEntity
  8
0
  6
Continuous
 62
     7
370
    25
100
AcDbSpline
210
0.0
220
0.0
230
1.0
 70
     8
 71
     3
 72
    11
 73
     7
 74
     0
 42
0.00000001
 43
0.00000001
 40
0.0
 40
0.0
 40
0.0
 40
0.0
 40
0.3148765401223666
 40
0.5804573458965625
 40
0.8031637262482486
 40
1.0
 40
1.0
 40
1.0
 40
1.0
 10
2.371197100038882
 20
-0.2657298900462964
 30
0.0
 10
2.376882891204173
 20
-0.2655956180203896
 30
0.0
 10
2.387364330208313
 20
-0.2653480950269149
 30
0.0
 10
2.40160303063292
 20
-0.2624934617794935
 30
0.0
 10
2.413233365442477
 20
-0.2577184400872551
 30
0.0
 10
2.418790311406627
 20
-0.25251069142748
 30
0.0
 10
2.421397456416377
 20
-0.2500673788565178
 30
0.0
  0
SPLINE
  5
10E
330
1F
100
AcDbEntity
  8
0
  6
Continuous
 62
     7
370
    25
100
AcDbSpline
210
0.0
220
0.0
230
1.0
 70
     8
 71
     3
 72
    11
 73
     7
 74
     0
 42
0.00000001
 43
0.00000001
 40
0.0
 40
0.0
 40
0.0
 40
0.0
 40
0.1935930551290801
 40
0.4180607038449301
 40
0.6846479401127048
 40
1.0
 40
1.0
 40
1.0
 40
1.0
 10
2.556202146742079
 20
-0.2503351140905311
 30
0.0
 10
2.559085518405303
 20
-0.2527423523154501
 30
0.0
 10
2.565312107402363
 20
-0.2579407397574017
 30
0.0
 10
2.577945586587935
 20
-0.262419088087249
 30
0.0
 10
2.593226553650922
 20
-0.2653687328196353
 30
0.0
 10
2.604463249873894
 20
-0.265602961736329
 30
0.0
 10
2.610552399246782
 20
-0.2657298900462964
 30
0.0
  0
SPLINE
  5
10F
330
1F
100
AcDbEntity
  8
0
  6
Continuous
 62
     7
370
    25
100
AcDbSpline
210
0.0
220
0.0
230
1.0
 70
     8
 71
     3
 72
    11
 73
     7
 74
     0
 42
0.00000001
 43
0.00000001
 40
0.0
 40
0.0
 40
0.0
 40
0.0
 40
0.2893928112690966
 40
0.5377209050969352
 40
0.7666571100420395
 40
1.0
 40
1.0
 40
1.0
 40
1.0
 10
-2.520593360618308
 20
-0.2566268920898438
 30
0.0
 10
-2.518234942048966
 20
-0.2555508721736777
 30
0.0
 10
-2.513852763507133
 20
-0.2535515191120525
 30
0.0
 10
-2.508825666875544
 20
-0.2487990632368263
 30
0.0
 10
-2.505532035224608
 20
-0.2431957511633466
 30
0.0
 10
-2.505221476574143
 20
-0.2390440108311599
 30
0.0
 10
-2.505064717045537
 20
-0.2369483523898656
 30
0.0
  0
SPLINE
  5
110
330
1F
100
AcDbEntity
  8
0
  6
Continuous
 62
     7
370
    25
100
AcDbSpline
210
0.0
220
0.0
230
1.0
 70
     8
 71
     3
 72
    15
 73
    11
 74
     0
 42
0.00000001
 43
0.00000001
 40
0.0
 40
0.0
 40
0.0
 40
0.0
 40
0.1314288389222654
 40
0.2588888453879084
 40
0.3827718652191929
 40
0.5041388158952333
 40
0.6257449658739727
 40
0.7474985351697536
 40
0.8723852799862247
 40
1.0
 40
1.0
 40
1.0
 40
1.0
 10
-1.200524789315683
 20
0.3339970341435185
 30
0.0
 10
-1.20745066727723
 20
0.3338216153906304
 30
0.0
 10
-1.221093278468699
 20
0.3334760751061163
 30
0.0
 10
-1.241102616765428
 20
0.3306083997458884
 30
0.0
 10
-1.260187767304921
 20
0.3258967647932009
 30
0.0
 10
-1.278463949428414
 20
0.3194911054019252
 30
0.0
 10
-1.295730659197454
 20
0.3109715027869265
 30
0.0
 10
-1.312237524193605
 20
0.3007281502733463
 30
0.0
 10
-1.327803033926624
 20
0.288541921079037
 30
0.0
 10
-1.337248901217941
 20
0.2791650387289717
 30
0.0
 10
-1.342022860491717
 20
0.274425944575557
 30
0.0
  0
SPLINE
  5
111
330
1F
100
AcDbEntity
  8
0
  6
Continuous
 62
     7
370
    25
100
AcDbSpline
210
0.0
220
0.0
230
1.0
 70
     8
 71
     3
 72
    15
 73
    11
 74
     0
 42
0.00000001
 43
0.00000001
 40
0.0
 40
0.0
 40
0.0
 40
0.0
 40
0.1926308353501903
 40
0.3542696238757704
 40
0.4884584914713472
 40
0.5945320089205497
 40
0.6881927795881543
 40
0.7845281804062502
 40
0.8892624857766325
 40
1.0
 40
1.0
 40
1.0
 40
1.0
 10
2.603055812694408
 20
0.3339970341435185
 30
0.0
 10
2.599261261495814
 20
0.3339653471458736
 30
0.0
 10
2.592282657974425
 20
0.3339070712176351
 30
0.0
 10
2.582683605931054
 20
0.3330214591768923
 30
0.0
 10
2.574914321459645
 20
0.3314761128648214
 30
0.0
 10
2.5686254599894
 20
0.3293803835496605
 30
0.0
 10
2.563713195634028
 20
0.3261633695279695
 30
0.0
 10
2.559302093247231
 20
0.3223635030236529
 30
0.0
 10
2.555453110980501
 20
0.3175244552922324
 30
0.0
 10
2.553383580457802
 20
0.3138151843592547
 30
0.0
 10
2.552319985848886
 20
0.3119088773374204
 30
0.0
  0
SPLINE
  5
112
330
1F
100
AcDbEntity
  8
0
  6
Continuous
 62
     7
370
    25
100
AcDbSpline
210
0.0
220
0.0
230
1.0
 70
     8
 71
     3
 72
    19
 73
    15
 74
     0
 42
0.00000001
 43
0.00000001
 40
0.0
 40
0.0
 40
0.0
 40
0.0
 40
0.1097331745569484
 40
0.2073509691417438
 40
0.2956618660158026
 40
0.374800395207815
 40
0.44254530616278
 40
0.5013586006685256
 40
0.5511676412206137
 40
0.5918290316963533
 40
0.6694693875680633
 40
0.7591616756454609
 40
0.8683500157362098
 40
1.0
 40
1.0
 40
1.0
 40
1.0
 10
3.097696657533998
 20
0.3339970341435185
 30
0.0
 10
3.094081960166814
 20
0.3339740911050681
 30
0.0
 10
3.087251655609726
 20
0.3339307381147171
 30
0.0
 10
3.077516470428388
 20
0.3335377929710866
 30
0.0
 10
3.068813945545783
 20
0.3328552354714887
 30
0.0
 10
3.061095789718363
 20
0.3320506829542629
 30
0.0
 10
3.054477326944925
 20
0.3305917829826341
 30
0.0
 10
3.04880128669514
 20
0.3292827356514967
 30
0.0
 10
3.04425818218654
 20
0.3273685217317474
 30
0.0
 10
3.039362496712656
 20
0.3247136453144666
 30
0.0
 10
3.034731015251826
 20
0.3194069521039005
 30
0.0
 10
3.030991304724151
 20
0.3110077457132337
 30
0.0
 10
3.029063125137544
 20
0.3002108996126158
 30
0.0
 10
3.028777240764013
 20
0.292281201989215
 30
0.0
 10
3.028620967158565
 20
0.2879465738932291
 30
0.0
  0
SPLINE
  5
113
330
1F
100
AcDbEntity
  8
0
  6
Continuous
 62
     7
370
    25
100
AcDbSpline
210
0.0
220
0.0
230
1.0
 70
     8
 71
     3
 72
    23
 73
    19
 74
     0
 42
0.00000001
 43
0.00000001
 40
0.0
 40
0.0
 40
0.0
 40
0.0
 40
0.0648477340273869
 40
0.1271792693109459
 40
0.1873778456674162
 40
0.2453321294886541
 40
0.3021157434908612
 40
0.3585375770996528
 40
0.4144278753967831
 40
0.4712359334870799
 40
0.528345621315606
 40
0.5873827573742477
 40
0.6475236501448793
 40
0.7103377593565144
 40
0.7764811719103237
 40
0.8465164709236425
 40
0.9208363252409505
 40
1.0
 40
1.0
 40
1.0
 40
1.0
 10
0.4994600790518299
 20
0.0598361545138888
 30
0.0
 10
0.5043744938046634
 20
0.0599216963837959
 30
0.0
 10
0.5140126359345387
 20
0.0600894609583557
 30
0.0
 10
0.5281119545957225
 20
0.0619168183833842
 30
0.0
 10
0.541517069509343
 20
0.0646689806325519
 30
0.0
 10
0.5541942480888987
 20
0.0685908924496957
 30
0.0
 10
0.5662051121637843
 20
0.0735282401335797
 30
0.0
 10
0.5774516486075687
 20
0.0797104309418293
 30
0.0
 10
0.5880078700655038
 20
0.0870058888564906
 30
0.0
 10
0.5977623312272906
 20
0.0954267173584298
 30
0.0
 10
0.6067209490600143
 20
0.1050234751496332
 30
0.0
 10
0.6145915651554547
 20
0.1158528217840184
 30
0.0
 10
0.6213242110676007
 20
0.1279141874982352
 30
0.0
 10
0.6269476816820592
 20
0.1411142938604931
 30
0.0
 10
0.6314712421669907
 20
0.1555126447531892
 30
0.0
 10
0.6349658617828001
 20
0.1710889539052479
 30
0.0
 10
0.6371744296470281
 20
0.1878951486390015
 30
0.0
 10
0.6379043301110854
 20
0.1994990606211907
 30
0.0
 10
0.6382807978877311
 20
0.2054841218171296
 30
0.0
  0
SPLINE
  5
114
330
1F
100
AcDbEntity
  8
0
  6
Continuous
 62
     7
370
    25
100
AcDbSpline
210
0.0
220
0.0
230
1.0
 70
     8
 71
     3
 72
    15
 73
    11
 74
     0
 42
0.00000001
 43
0.00000001
 40
0.0
 40
0.0
 40
0.0
 40
0.0
 40
0.1446408721128399
 40
0.2742550983417831
 40
0.3904927055063821
 40
0.4963401455451283
 40
0.6024467949925607
 40
0.720476445320727
 40
0.8516978898291652
 40
1.0
 40
1.0
 40
1.0
 40
1.0
 10
-3.157133879484954
 20
-0.2657298900462964
 30
0.0
 10
-3.148778139060431
 20
-0.2655481147855863
 30
0.0
 10
-3.132934730635334
 20
-0.2652034487774662
 30
0.0
 10
-3.110550334335016
 20
-0.2620220761752242
 30
0.0
 10
-3.09087902378934
 20
-0.2567533448059986
 30
0.0
 10
-3.0734392209589
 20
-0.2491056851452341
 30
0.0
 10
-3.057660635020136
 20
-0.2381894669852229
 30
0.0
 10
-3.043332751010499
 20
-0.2233866582705156
 30
0.0
 10
-3.029330554310659
 20
-0.2051139335422956
 30
0.0
 10
-3.021432537584443
 20
-0.1910152660456015
 30
0.0
 10
-3.017242219712999
 20
-0.1835351732042101
 30
0.0
  0
SPLINE
  5
115
330
1F
100
AcDbEntity
  8
0
  6
Continuous
 62
     7
370
    25
100
AcDbSpline
210
0.0
220
0.0
230
1.0
 70
     8
 71
     3
 72
    15
 73
    11
 74
     0
 42
0.00000001
 43
0.00000001
 40
0.0
 40
0.0
 40
0.0
 40
0.0
 40
0.1919303180178011
 40
0.3521237420706445
 40
0.4825058444077852
 40
0.5882579930067385
 40
0.6818283334536313
 40
0.7774080599949145
 40
0.8805289178918255
 40
1.0
 40
1.0
 40
1.0
 40
1.0
 10
-0.9651855186179833
 20
0.3339970341435185
 30
0.0
 10
-0.9703675050389756
 20
0.3339277896759128
 30
0.0
 10
-0.9798746035983068
 20
0.3338007507520845
 30
0.0
 10
-0.9928220652355474
 20
0.3321150747722032
 30
0.0
 10
-1.003203203515598
 20
0.329430643978644
 30
0.0
 10
-1.011340284118821
 20
0.3255773397183915
 30
0.0
 10
-1.017193627821568
 20
0.3199912371649896
 30
0.0
 10
-1.021130009121778
 20
0.3130517641845343
 30
0.0
 10
-1.023423107428944
 20
0.3046867430025513
 30
0.0
 10
-1.023681076127053
 20
0.2986716322161323
 30
0.0
 10
-1.023819534866898
 20
0.2954431604456018
 30
0.0
  0
SPLINE
  5
116
330
1F
100
AcDbEntity
  8
0
  6
Continuous
 62
     7
370
    25
100
AcDbSpline
210
0.0
220
0.0
230
1.0
 70
     8
 71
     3
 72
    15
 73
    11
 74
     0
 42
0.00000001
 43
0.00000001
 40
0.0
 40
0.0
 40
0.0
 40
0.0
 40
0.1000017477795113
 40
0.1876772194517318
 40
0.2717574585817811
 40
0.3576541259941796
 40
0.4631357931625315
 40
0.6043829316319256
 40
0.7829475894341237
 40
1.0
 40
1.0
 40
1.0
 40
1.0
 10
-0.3898225007233794
 20
-0.2309243096245659
 30
0.0
 10
-0.3896456719047809
 20
-0.2338876414689545
 30
0.0
 10
-0.3893138102950554
 20
-0.2394490430765927
 30
0.0
 10
-0.3867596435376053
 20
-0.2472228353703345
 30
0.0
 10
-0.3821279105203131
 20
-0.2534222576528672
 30
0.0
 10
-0.3756113678255525
 20
-0.2585121244320898
 30
0.0
 10
-0.366237552572912
 20
-0.2619100707730448
 30
0.0
 10
-0.3538127874027877
 20
-0.2640624617075855
 30
0.0
 10
-0.3379568424292702
 20
-0.2654737786420543
 30
0.0
 10
-0.3262387711286508
 20
-0.2656391566254625
 30
0.0
 10
-0.3198097370288988
 20
-0.2657298900462963
 30
0.0
  0
SPLINE
  5
117
330
1F
100
AcDbEntity
  8
0
  6
Continuous
 62
     7
370
    25
100
AcDbSpline
210
0.0
220
0.0
230
1.0
 70
     8
 71
     3
 72
    11
 73
     7
 74
     0
 42
0.00000001
 43
0.00000001
 40
0.0
 40
0.0
 40
0.0
 40
0.0
 40
0.2190310889004893
 40
0.4563885946026582
 40
0.7152277366936902
 40
0.9999999999999999
 40
0.9999999999999999
 40
0.9999999999999999
 40
0.9999999999999999
 10
3.529285854763454
 20
-0.255020480685764
 30
0.0
 10
3.53217978711468
 20
-0.2566949009213412
 30
0.0
 10
3.538209788267854
 20
-0.2601838407879396
 30
0.0
 10
3.548703871131119
 20
-0.263352471280024
 30
0.0
 10
3.560439310766122
 20
-0.2654039157480325
 30
0.0
 10
3.568721774914514
 20
-0.2656178303302453
 30
0.0
 10
3.573060565524631
 20
-0.2657298900462964
 30
0.0
  0
SPLINE
  5
118
330
1F
100
AcDbEntity
  8
0
  6
Continuous
 62
     7
370
    25
100
AcDbSpline
210
0.0
220
0.0
230
1.0
 70
     8
 71
     3
 72
    15
 73
    11
 74
     0
 42
0.00000001
 43
0.00000001
 40
0.0
 40
0.0
 40
0.0
 40
0.0
 40
0.1877602547066594
 40
0.3480924754650246
 40
0.4871200957600083
 40
0.6051199148245943
 40
0.7091088219561992
 40
0.8076428468010949
 40
0.9002871683853102
 40
1.0
 40
1.0
 40
1.0
 40
1.0
 10
3.346958160400391
 20
-0.2657298900462964
 30
0.0
 10
3.351025339011296
 20
-0.2656378140024495
 30
0.0
 10
3.358565562436327
 20
-0.2654671123910581
 30
0.0
 10
3.369023151951047
 20
-0.2639813395483044
 30
0.0
 10
3.377824649584019
 20
-0.2617631035284179
 30
0.0
 10
3.384867725236945
 20
-0.2582164908163441
 30
0.0
 10
3.390280199442359
 20
-0.2538047444349405
 30
0.0
 10
3.394297596131032
 20
-0.2487374184286903
 30
0.0
 10
3.396548746062789
 20
-0.2427391770971177
 30
0.0
 10
3.396862175617029
 20
-0.2385726821011007
 30
0.0
 10
3.39702464916088
 20
-0.236412881921839
 30
0.0
  0
SPLINE
  5
119
330
1F
100
AcDbEntity
  8
0
  6
Continuous
 62
     7
370
    25
100
AcDbSpline
210
0.0
220
0.0
230
1.0
 70
     8
 71
     3
 72
    23
 73
    19
 74
     0
 42
0.00000001
 43
0.00000001
 40
0.0
 40
0.0
 40
0.0
 40
0.0
 40
0.0662093310224677
 40
0.1293478627169339
 40
0.1901484867428297
 40
0.2486413791724305
 40
0.305374929843388
 40
0.3608425306400634
 40
0.4153330042187046
 40
0.4694838692227845
 40
0.5244718364612917
 40
0.5814490354662489
 40
0.6410780626893875
 40
0.7045666670218136
 40
0.7714805560665576
 40
0.843026926679554
 40
0.9189404667726803
 40
1.0
 40
1.0
 40
1.0
 40
1.0
 10
-0.1963837941487627
 20
-0.2657298900462963
 30
0.0
 10
-0.1883472487961202
 20
-0.2655592073043966
 30
0.0
 10
-0.1726468943454875
 20
-0.2652257581133771
 30
0.0
 10
-0.149642055513824
 20
-0.2631019846499206
 30
0.0
 10
-0.1277809383799133
 20
-0.2594135060716077
 30
0.0
 10
-0.1070931474509182
 20
-0.2539780664340329
 30
0.0
 10
-0.0874566470684429
 20
-0.2473165005493766
 30
0.0
 10
-0.0688880397818282
 20
-0.2391918480057555
 30
0.0
 10
-0.0515609834127636
 20
-0.2293061159334009
 30
0.0
 10
-0.035169299875672
 20
-0.2180393472044958
 30
0.0
 10
-0.0198995964223058
 20
-0.2047978333702489
 30
0.0
 10
-0.0058128668965284
 20
-0.1894031402607589
 30
0.0
 10
0.0072819791050719
 20
-0.1718504794149714
 30
0.0
 10
0.0190728981002701
 20
-0.1519864354713687
 30
0.0
 10
0.0299518197383033
 20
-0.1299990404468372
 30
0.0
 10
0.0398335175863694
 20
-0.1059052710747857
 30
0.0
 10
0.0485560906484391
 20
-0.0795466015054891
 30
0.0
 10
0.0532599147283776
 20
-0.0610784803686882
 30
0.0
 10
0.0556889286747688
 20
-0.0515417028356481
 30
0.0
  0
SPLINE
  5
11A
330
1F
100
AcDbEntity
  8
0
  6
Continuous
 62
     7
370
    25
100
AcDbSpline
210
0.0
220
0.0
230
1.0
 70
     8
 71
     3
 72
    15
 73
    11
 74
     0
 42
0.00000001
 43
0.00000001
 40
0.0
 40
0.0
 40
0.0
 40
0.0
 40
0.1099773061618332
 40
0.2094119555465749
 40
0.3063613163632185
 40
0.4048713305620328
 40
0.517537462906452
 40
0.6530078647882738
 40
0.8123777299367776
 40
1.0
 40
1.0
 40
1.0
 40
1.0
 10
-1.82059959129051
 20
-0.2344048676667392
 30
0.0
 10
-1.820457350437814
 20
-0.2369254524231569
 30
0.0
 10
-1.820186504240893
 20
-0.2417249933592261
 30
0.0
 10
-1.817793282188285
 20
-0.2484008597620677
 30
0.0
 10
-1.814006389390887
 20
-0.2540776010398741
 30
0.0
 10
-1.80842149554629
 20
-0.2585232198705478
 30
0.0
 10
-1.801183579438607
 20
-0.2618685236743705
 30
0.0
 10
-1.792122571118884
 20
-0.2641894374216356
 30
0.0
 10
-1.781141260324918
 20
-0.2654058246385925
 30
0.0
 10
-1.773213379210557
 20
-0.2656161596887855
 30
0.0
 10
-1.768926691125941
 20
-0.2657298900462964
 30
0.0
  0
SPLINE
  5
11B
330
1F
100
AcDbEntity
  8
0
  6
Continuous
 62
     7
370
    25
100
AcDbSpline
210
0.0
220
0.0
230
1.0
 70
     8
 71
     3
 72
    15
 73
    11
 74
     0
 42
0.00000001
 43
0.00000001
 40
0.0
 40
0.0
 40
0.0
 40
0.0
 40
0.102111262664004
 40
0.1935768277951507
 40
0.2806009157964479
 40
0.3713582627369946
 40
0.480358828500795
 40
0.6182125623287261
 40
0.7923901553185551
 40
1.0
 40
1.0
 40
1.0
 40
1.0
 10
3.397024649160879
 20
0.2955770280626084
 30
0.0
 10
3.396883125103262
 20
0.2987724562567546
 30
0.0
 10
3.396614831700404
 20
0.3048301705297175
 30
0.0
 10
3.393556055451105
 20
0.313185650347403
 30
0.0
 10
3.388523450430401
 20
0.3200299186216225
 30
0.0
 10
3.38134554785286
 20
0.3255572937012889
 30
0.0
 10
3.371484807206504
 20
0.3295127445879041
 30
0.0
 10
3.358589306491654
 20
0.3321305591459196
 30
0.0
 10
3.342449499894132
 20
0.3337964419355102
 30
0.0
 10
3.33054193787288
 20
0.3339263773583656
 30
0.0
 10
3.324066797892252
 20
0.3339970341435185
 30
0.0
  0
SPLINE
  5
11C
330
1F
100
AcDbEntity
  8
0
  6
Continuous
 62
     7
370
    25
100
AcDbSpline
210
0.0
220
0.0
230
1.0
 70
     8
 71
     3
 72
    23
 73
    19
 74
     0
 42
0.00000001
 43
0.00000001
 40
0.0
 40
0.0
 40
0.0
 40
0.0
 40
0.05553571910132
 40
0.1097824601272666
 40
0.162830841027143
 40
0.2161602099357798
 40
0.2701538109070884
 40
0.3259856203624769
 40
0.3844330297833745
 40
0.4456441161502189
 40
0.508974318395891
 40
0.5727710409008967
 40
0.6378917608847054
 40
0.7049808698499627
 40
0.7744789659673528
 40
0.8463861729369541
 40
0.9214387371869328
 40
0.9999999999999999
 40
0.9999999999999999
 40
0.9999999999999999
 40
0.9999999999999999
 10
1.666384096498844
 20
-0.1038839410852504
 30
0.0
 10
1.666169181424422
 20
-0.1110849132587444
 30
0.0
 10
1.665744339431371
 20
-0.1253197238150262
 30
0.0
 10
1.661868107482786
 20
-0.1461418570741889
 30
0.0
 10
1.655651482493667
 20
-0.166043540228833
 30
0.0
 10
1.64708478586951
 20
-0.1850404259778515
 30
0.0
 10
1.635816085386111
 20
-0.2030016645862182
 30
0.0
 10
1.621984685986093
 20
-0.2199103104518319
 30
0.0
 10
1.605889663433064
 20
-0.2360271982519041
 30
0.0
 10
1.587394262913236
 20
-0.2509253627206844
 30
0.0
 10
1.567067023538863
 20
-0.2644820658750995
 30
0.0
 10
1.545117872834866
 20
-0.2763397128185355
 30
0.0
 10
1.521690330831593
 20
-0.286230030159782
 30
0.0
 10
1.496835952055115
 20
-0.2943914670279497
 30
0.0
 10
1.470568156937122
 20
-0.3008152569878408
 30
0.0
 10
1.442865072133869
 20
-0.3053333979896799
 30
0.0
 10
1.413740225944152
 20
-0.3080239348003653
 30
0.0
 10
1.393835417037295
 20
-0.3083835916146301
 30
0.0
 10
1.383655689380788
 20
-0.308567527488426
 30
0.0
  0
SPLINE
  5
11D
330
1F
100
AcDbEntity
  8
0
  6
Continuous
 62
     7
370
    25
100
AcDbSpline
210
0.0
220
0.0
230
1.0
 70
     8
 71
     3
 72
    15
 73
    11
 74
     0
 42
0.00000001
 43
0.00000001
 40
0.0
 40
0.0
 40
0.0
 40
0.0
 40
0.1075589134636408
 40
0.2063117794699994
 40
0.3033583794864736
 40
0.4047658956027358
 40
0.5204350256427248
 40
0.6559297468627631
 40
0.8143526326882424
 40
0.9999999999999999
 40
0.9999999999999999
 40
0.9999999999999999
 40
0.9999999999999999
 10
-1.940544976128473
 20
0.2994591889558014
 30
0.0
 10
-1.940671111269493
 20
0.3021592415184032
 30
0.0
 10
-1.940913054633919
 20
0.307338288339485
 30
0.0
 10
-1.94356692156013
 20
0.3145850809266907
 30
0.0
 10
-1.948015722883293
 20
0.3206497399130133
 30
0.0
 10
-1.954206936563036
 20
0.3256151883081956
 30
0.0
 10
-1.96219609674896
 20
0.3294916616598593
 30
0.0
 10
-1.972115948690124
 20
0.3322284727763475
 30
0.0
 10
-1.984050126911905
 20
0.3337428878155005
 30
0.0
 10
-1.992659533671562
 20
0.3339079648075419
 30
0.0
 10
-1.997304845739294
 20
0.3339970341435184
 30
0.0
  0
SPLINE
  5
11E
330
1F
100
AcDbEntity
  8
0
  6
Continuous
 62
     7
370
    25
100
AcDbSpline
210
0.0
220
0.0
230
1.0
 70
     8
 71
     3
 72
    11
 73
     7
 74
     0
 42
0.00000001
 43
0.00000001
 40
0.0
 40
0.0
 40
0.0
 40
0.0
 40
0.311008570403398
 40
0.5787674197978524
 40
0.8084032398126125
 40
0.9999999999999999
 40
0.9999999999999999
 40
0.9999999999999999
 40
0.9999999999999999
 10
-2.959009806315104
 20
-0.1594390021430123
 30
0.0
 10
-2.961422335238729
 20
-0.1645784362825317
 30
0.0
 10
-2.965911900071307
 20
-0.1741426004864072
 30
0.0
 10
-2.970845452562328
 20
-0.1880352436216502
 30
0.0
 10
-2.974313719844395
 20
-0.2001893822471787
 30
0.0
 10
-2.974744234187995
 20
-0.2078810833458749
 30
0.0
 10
-2.974940052738896
 20
-0.2113796375415944
 30
0.0
  0
SPLINE
  5
11F
330
1F
100
AcDbEntity
  8
0
  6
Continuous
 62
     7
370
    25
100
AcDbSpline
210
0.0
220
0.0
230
1.0
 70
     8
 71
     3
 72
    15
 73
    11
 74
     0
 42
0.00000001
 43
0.00000001
 40
0.0
 40
0.0
 40
0.0
 40
0.0
 40
0.1731102422643505
 40
0.3121828458518699
 40
0.4202982222672034
 40
0.5023138521744794
 40
0.5854750386251334
 40
0.6936247264905255
 40
0.8309725711319785
 40
1.0
 40
1.0
 40
1.0
 40
1.0
 10
1.906274866174769
 20
0.27710329691569
 30
0.0
 10
1.906170186732721
 20
0.2827751115167834
 30
0.0
 10
1.905981410345527
 20
0.2930035255040369
 30
0.0
 10
1.904171592177991
 20
0.3067118295895834
 30
0.0
 10
1.900899533155346
 20
0.3170434071292711
 30
0.0
 10
1.895857553475053
 20
0.3247431090671724
 30
0.0
 10
1.887814113520533
 20
0.3291809394638086
 30
0.0
 10
1.877424109953727
 20
0.3320919164490538
 30
0.0
 10
1.86387910055768
 20
0.3336240663674316
 30
0.0
 10
1.853845649304849
 20
0.3338644270213306
 30
0.0
 10
1.848310188010887
 20
0.3339970341435185
 30
0.0
  0
SPLINE
  5
120
330
1F
100
AcDbEntity
  8
0
  6
Continuous
 62
     7
370
    25
100
AcDbSpline
210
0.0
220
0.0
230
1.0
 70
     8
 71
     3
 72
    31
 73
    27
 74
     0
 42
0.00000001
 43
0.00000001
 40
0.0
 40
0.0
 40
0.0
 40
0.0
 40
0.029241124800775
 40
0.0580705321865446
 40
0.0864895099814598
 40
0.114609562561261
 40
0.1431966640158064
 40
0.1719455296745986
 40
0.2014270806735406
 40
0.231966292117858
 40
0.2637457560544503
 40
0.297491162885472
 40
0.3336527287508942
 40
0.3718056466112951
 40
0.4131613338655969
 40
0.4568390780251899
 40
0.5035153640445523
 40
0.5531616633343635
 40
0.6047572488552729
 40
0.6571584680459392
 40
0.7109254233895002
 40
0.7658660002587985
 40
0.8221683726417255
 40
0.8798602432841282
 40
0.9393193761022222
 40
1.0
 40
1.0
 40
1.0
 40
1.0
 10
-3.191403989438659
 20
-0.1208851284450956
 30
0.0
 10
-3.191509887347268
 20
-0.1249500178856329
 30
0.0
 10
-3.191720192113323
 20
-0.1330225627928389
 30
0.0
 10
-3.193312629543867
 20
-0.1449710197745436
 30
0.0
 10
-3.196211489640196
 20
-0.1564916398499378
 30
0.0
 10
-3.199909313275611
 20
-0.1677527154899582
 30
0.0
 10
-3.204947408511302
 20
-0.1785303611903722
 30
0.0
 10
-3.210800445403192
 20
-0.1891035581551133
 30
0.0
 10
-3.218020997634276
 20
-0.1991361639441832
 30
0.0
 10
-3.226177007805247
 20
-0.2089617908371145
 30
0.0
 10
-3.235628161783565
 20
-0.2184301368826561
 30
0.0
 10
-3.246592778087911
 20
-0.2273749470616916
 30
0.0
 10
-3.258850490654296
 20
-0.2360826154440662
 30
0.0
 10
-3.272726102362316
 20
-0.244229466206288
 30
0.0
 10
-3.287853190644906
 20
-0.252270377565852
 30
0.0
 10
-3.304595078740985
 20
-0.2597067328357978
 30
0.0
 10
-3.322659096288709
 20
-0.266952604388711
 30
0.0
 10
-3.342075901008525
 20
-0.2737455260355957
 30
0.0
 10
-3.362567119529569
 20
-0.2797802581138117
 30
0.0
 10
-3.383775117519113
 20
-0.2853821424451713
 30
0.0
 10
-3.405721589969466
 20
-0.2899008605931503
 30
0.0
 10
-3.42838848092783
 20
-0.2934384768913578
 30
0.0
 10
-3.451684107495551
 20
-0.2964210679192478
 30
0.0
 10
-3.475704312031401
 20
-0.2985800594579121
 30
0.0
 10
-3.500402777384425
 20
-0.2997640580828244
 30
0.0
 10
-3.517102702674781
 20
-0.2999208214102345
 30
0.0
 10
-3.52553756148727
 20
-0.3000000000000001
 30
0.0
  0
SPLINE
  5
121
330
1F
100
AcDbEntity
  8
0
  6
Continuous
 62
     7
370
    25
100
AcDbSpline
210
0.0
220
0.0
230
1.0
 70
     8
 71
     3
 72
    15
 73
    11
 74
     0
 42
0.00000001
 43
0.00000001
 40
0.0
 40
0.0
 40
0.0
 40
0.0
 40
0.1075589134636407
 40
0.2063117794699993
 40
0.3033583794864735
 40
0.4047658956027357
 40
0.5204350256427248
 40
0.6559297468627632
 40
0.8143526326882407
 40
1.0
 40
1.0
 40
1.0
 40
1.0
 10
-1.143764919704861
 20
0.2994591889558015
 30
0.0
 10
-1.143891054845881
 20
0.3021592415184032
 30
0.0
 10
-1.144132998210308
 20
0.3073382883394851
 30
0.0
 10
-1.146786865136518
 20
0.3145850809266907
 30
0.0
 10
-1.151235666459683
 20
0.3206497399130135
 30
0.0
 10
-1.157426880139424
 20
0.3256151883081956
 30
0.0
 10
-1.165416040325349
 20
0.3294916616598593
 30
0.0
 10
-1.175335892266513
 20
0.3322284727763475
 30
0.0
 10
-1.187270070488293
 20
0.3337428878155005
 30
0.0
 10
-1.19587947724795
 20
0.3339079648075419
 30
0.0
 10
-1.200524789315683
 20
0.3339970341435185
 30
0.0
  0
SPLINE
  5
122
330
1F
100
AcDbEntity
  8
0
  6
Continuous
 62
     7
370
    25
100
AcDbSpline
210
0.0
220
0.0
230
1.0
 70
     8
 71
     3
 72
    11
 73
     7
 74
     0
 42
0.00000001
 43
0.00000001
 40
0.0
 40
0.0
 40
0.0
 40
0.0
 40
0.1830382213399223
 40
0.4064026608429465
 40
0.6775910636462535
 40
1.0
 40
1.0
 40
1.0
 40
1.0
 10
3.039062641285084
 20
-0.2552882159197773
 30
0.0
 10
3.041815956820277
 20
-0.2569391959010233
 30
0.0
 10
3.047929186895677
 20
-0.2606048928929692
 30
0.0
 10
3.0595495343709
 20
-0.2634170647291028
 30
0.0
 10
3.073655607592939
 20
-0.2654629954455007
 30
0.0
 10
3.084029876693868
 20
-0.2656359505104421
 30
0.0
 10
3.0896646005136
 20
-0.2657298900462964
 30
0.0
  0
SPLINE
  5
123
330
1F
100
AcDbEntity
  8
0
  6
Continuous
 62
     7
370
    25
100
AcDbSpline
210
0.0
220
0.0
230
1.0
 70
     8
 71
     3
 72
    15
 73
    11
 74
     0
 42
0.00000001
 43
0.00000001
 40
0.0
 40
0.0
 40
0.0
 40
0.0
 40
0.1099773061618329
 40
0.2094119555465738
 40
0.3063613163632194
 40
0.4048713305620321
 40
0.517537462906451
 40
0.6530078647882724
 40
0.812377729936776
 40
0.9999999999999999
 40
0.9999999999999999
 40
0.9999999999999999
 40
0.9999999999999999
 10
-1.023819534866898
 20
-0.2344048676667391
 30
0.0
 10
-1.023677294014203
 20
-0.2369254524231569
 30
0.0
 10
-1.023406447817282
 20
-0.241724993359226
 30
0.0
 10
-1.021013225764674
 20
-0.2484008597620677
 30
0.0
 10
-1.017226332967275
 20
-0.254077601039874
 30
0.0
 10
-1.011641439122679
 20
-0.2585232198705478
 30
0.0
 10
-1.004403523014995
 20
-0.2618685236743704
 30
0.0
 10
-0.995342514695274
 20
-0.2641894374216356
 30
0.0
 10
-0.9843612039013057
 20
-0.2654058246385924
 30
0.0
 10
-0.9764333227869457
 20
-0.2656161596887855
 30
0.0
 10
-0.9721466347023294
 20
-0.2657298900462964
 30
0.0
  0
SPLINE
  5
124
330
1F
100
AcDbEntity
  8
0
  6
Continuous
 62
     7
370
    25
100
AcDbSpline
210
0.0
220
0.0
230
1.0
 70
     8
 71
     3
 72
    15
 73
    11
 74
     0
 42
0.00000001
 43
0.00000001
 40
0.0
 40
0.0
 40
0.0
 40
0.0
 40
0.1898880140932661
 40
0.3439681950502601
 40
0.4638649544236455
 40
0.553190801450772
 40
0.6355396816142592
 40
0.7339290123481779
 40
0.8539344912969206
 40
1.0
 40
1.0
 40
1.0
 40
1.0
 10
2.846159405178494
 20
-0.2657298900462964
 30
0.0
 10
2.852142962979882
 20
-0.2656643119702179
 30
0.0
 10
2.86298173859587
 20
-0.2655455221004557
 30
0.0
 10
2.877543652347722
 20
-0.263886412793374
 30
0.0
 10
2.888691276639257
 20
-0.2612872276439267
 30
0.0
 10
2.897227084026981
 20
-0.2573951673300595
 30
0.0
 10
2.902796034491681
 20
-0.2506450822235605
 30
0.0
 10
2.906198627916515
 20
-0.2417221070727766
 30
0.0
 10
2.90848383725782
 20
-0.2304120920856195
 30
0.0
 10
2.90860762585379
 20
-0.2220139982493322
 30
0.0
 10
2.908675582320602
 20
-0.2174036803068939
 30
0.0
  0
SPLINE
  5
125
330
1F
100
AcDbEntity
  8
0
  6
Continuous
 62
     7
370
    25
100
AcDbSpline
210
0.0
220
0.0
230
1.0
 70
     8
 71
     3
 72
    13
 73
     9
 74
     0
 42
0.00000001
 43
0.00000001
 40
0.0
 40
0.0
 40
0.0
 40
0.0
 40
0.1625854670644213
 40
0.311544667136921
 40
0.4440668552046768
 40
0.5642724878801143
 40
0.7842835438169
 40
1.0
 40
1.0
 40
1.0
 40
1.0
 10
1.857145450733326
 20
-0.2657298900462964
 30
0.0
 10
1.860093093755181
 20
-0.2656442400123077
 30
0.0
 10
1.865741338218005
 20
-0.2654801182626146
 30
0.0
 10
1.873752061269999
 20
-0.2644891209818915
 30
0.0
 10
1.880815821673246
 20
-0.2625985660060699
 30
0.0
 10
1.888730905605082
 20
-0.2593028319604651
 30
0.0
 10
1.897228264553461
 20
-0.2533469200986549
 30
0.0
 10
1.901309348522754
 20
-0.2464973116035994
 30
0.0
 10
1.903329778600622
 20
-0.2431062627721716
 30
0.0
  0
SPLINE
  5
126
330
1F
100
AcDbEntity
  8
0
  6
Continuous
 62
     7
370
    25
100
AcDbSpline
210
0.0
220
0.0
230
1.0
 70
     8
 71
     3
 72
    23
 73
    19
 74
     0
 42
0.00000001
 43
0.00000001
 40
0.0
 40
0.0
 40
0.0
 40
0.0
 40
0.0915730385026826
 40
0.1779807544749094
 40
0.2590869876699816
 40
0.3354942057355648
 40
0.4071287533466061
 40
0.4749759590299644
 40
0.5389206113119854
 40
0.599833077791212
 40
0.6575453937001497
 40
0.7115632697597011
 40
0.7628155689466841
 40
0.8111761619568122
 40
0.8582949564141044
 40
0.9050636528160465
 40
0.9520186638292163
 40
1.0
 40
1.0
 40
1.0
 40
1.0
 10
-3.514694284509731
 20
0.3682671440972222
 30
0.0
 10
-3.504025857288781
 20
0.3681551768027906
 30
0.0
 10
-3.483290772411263
 20
0.3679375579068221
 30
0.0
 10
-3.453166717984837
 20
0.3657872052824904
 30
0.0
 10
-3.424966866461471
 20
0.3621905487946848
 30
0.0
 10
-3.398715821016525
 20
0.3572767020284383
 30
0.0
 10
-3.374314331218328
 20
0.3510816867306965
 30
0.0
 10
-3.351947187602588
 20
0.343163076794905
 30
0.0
 10
-3.331450993272316
 20
0.3339364191186682
 30
0.0
 10
-3.312964655608707
 20
0.3233571322784828
 30
0.0
 10
-3.296484171338194
 20
0.3117762588153037
 30
0.0
 10
-3.282154362025131
 20
0.2992639002413614
 30
0.0
 10
-3.270060279633792
 20
0.2860188211689019
 30
0.0
 10
-3.260097969528494
 20
0.2720744992576368
 30
0.0
 10
-3.252368985493665
 20
0.2573489594860287
 30
0.0
 10
-3.24689265758522
 20
0.2418416078253599
 30
0.0
 10
-3.243367595469299
 20
0.2256328512147727
 30
0.0
 10
-3.24299663816776
 20
0.2145606363174963
 30
0.0
 10
-3.242809154369215
 20
0.2089646798593026
 30
0.0
  0
SPLINE
  5
127
330
1F
100
AcDbEntity
  8
0
  6
Continuous
 62
     7
370
    25
100
AcDbSpline
210
0.0
220
0.0
230
1.0
 70
     8
 71
     3
 72
    15
 73
    11
 74
     0
 42
0.00000001
 43
0.00000001
 40
0.0
 40
0.0
 40
0.0
 40
0.0
 40
0.1197948641852158
 40
0.2268390401813567
 40
0.3287681441104268
 40
0.4322636794852799
 40
0.544156358768268
 40
0.6749474626430855
 40
0.8248206616282853
 40
0.9999999999999999
 40
0.9999999999999999
 40
0.9999999999999999
 40
0.9999999999999999
 10
0.3041472258391201
 20
0.2991914537217881
 30
0.0
 10
0.3040062359754855
 20
0.3019778224138606
 30
0.0
 10
0.3037392628831107
 20
0.3072539851609035
 30
0.0
 10
0.3013763377715585
 20
0.3145927293302298
 30
0.0
 10
0.2975844948346573
 20
0.3208799400718482
 30
0.0
 10
0.291954948871367
 20
0.3257705405159022
 30
0.0
 10
0.2848481965999305
 20
0.3296328969844348
 30
0.0
 10
0.2760425823113725
 20
0.3321541760570959
 30
0.0
 10
0.2655631307958411
 20
0.3337621352471632
 30
0.0
 10
0.2580148408837113
 20
0.3339147734255509
 30
0.0
 10
0.2539468694616244
 20
0.3339970341435186
 30
0.0
  0
SPLINE
  5
128
330
1F
100
AcDbEntity
  8
0
  6
Continuous
 62
     7
370
    25
100
AcDbSpline
210
0.0
220
0.0
230
1.0
 70
     8
 71
     3
 72
    15
 73
    11
 74
     0
 42
0.00000001
 43
0.00000001
 40
0.0
 40
0.0
 40
0.0
 40
0.0
 40
0.0962189848219688
 40
0.1870512961536488
 40
0.2783846168636723
 40
0.3792709949135512
 40
0.4939272378178499
 40
0.635729484468142
 40
0.8030524352079282
 40
1.0
 40
1.0
 40
1.0
 40
1.0
 10
0.424092610677083
 20
-0.2362790143048323
 30
0.0
 10
0.4242307761408005
 20
-0.2385363311831057
 30
0.0
 10
0.424499372084936
 20
-0.2429245924882088
 30
0.0
 10
0.427085415933768
 20
-0.2490136357471782
 30
0.0
 10
0.4311189245158084
 20
-0.2543291557857664
 30
0.0
 10
0.4369401484894735
 20
-0.2586762737748884
 30
0.0
 10
0.4447107684686312
 20
-0.2618622455248635
 30
0.0
 10
0.454358348354689
 20
-0.2642012557350084
 30
0.0
 10
0.4661427901587998
 20
-0.2654022498902346
 30
0.0
 10
0.4746477515341845
 20
-0.2656149116927352
 30
0.0
 10
0.479246068883825
 20
-0.2657298900462964
 30
0.0
  0
SPLINE
  5
129
330
1F
100
AcDbEntity
  8
0
  6
Continuous
 62
     7
370
    25
100
AcDbSpline
210
0.0
220
0.0
230
1.0
 70
     8
 71
     3
 72
    15
 73
    11
 74
     0
 42
0.00000001
 43
0.00000001
 40
0.0
 40
0.0
 40
0.0
 40
0.0
 40
0.1682623950688037
 40
0.3236987674733061
 40
0.4665385728631571
 40
0.59691863819653
 40
0.7154474477496786
 40
0.8218975372144185
 40
0.9163270311244004
 40
1.0
 40
1.0
 40
1.0
 40
1.0
 10
1.328100628323027
 20
-0.0058928454363788
 30
0.0
 10
1.3169361758979
 20
-0.0037958059525964
 30
0.0
 10
1.295458296137242
 20
0.0002384234185335
 30
0.0
 10
1.264643890319825
 20
0.0067704230733366
 30
0.0
 10
1.236502361471586
 20
0.0135421609177133
 30
0.0
 10
1.211033542078165
 20
0.0206780874863682
 30
0.0
 10
1.188107816606218
 20
0.0277785812626422
 30
0.0
 10
1.16789626928367
 20
0.035303767086721
 30
0.0
 10
1.150173439646392
 20
0.0427796155130268
 30
0.0
 10
1.139619968216159
 20
0.0485552295474902
 30
0.0
 10
1.13466192174841
 20
0.0512686270254629
 30
0.0
  0
SPLINE
  5
12A
330
1F
100
AcDbEntity
  8
0
  6
Continuous
 62
     7
370
    25
100
AcDbSpline
210
0.0
220
0.0
230
1.0
 70
     8
 71
     3
 72
    23
 73
    19
 74
     0
 42
0.00000001
 43
0.00000001
 40
0.0
 40
0.0
 40
0.0
 40
0.0
 40
0.0584628651289783
 40
0.1150852714761477
 40
0.1701623163573419
 40
0.2252852128290261
 40
0.2802965118252618
 40
0.3369864090387421
 40
0.3955286408408924
 40
0.4568975502932697
 40
0.5198385158749392
 40
0.5830479522748154
 40
0.6473975659363703
 40
0.713076801107895
 40
0.7809252551779892
 40
0.8510346220751066
 40
0.9238415005926146
 40
1.0
 40
1.0
 40
1.0
 40
1.0
 10
1.058089644820603
 20
0.1796476717348451
 30
0.0
 10
1.058263876564765
 20
0.1867138865586155
 30
0.0
 10
1.058606855095366
 20
0.2006238659875798
 30
0.0
 10
1.062255193661366
 20
0.2209183226854508
 30
0.0
 10
1.067882509133836
 20
0.2402921365164719
 30
0.0
 10
1.075751884759466
 20
0.2586927512161233
 30
0.0
 10
1.086144405383881
 20
0.2760063267857796
 30
0.0
 10
1.098609178774631
 20
0.2924094420494793
 30
0.0
 10
1.113514106285286
 20
0.3077257719162651
 30
0.0
 10
1.130451987927488
 20
0.321939359093068
 30
0.0
 10
1.149095129014195
 20
0.3348457349274936
 30
0.0
 10
1.169157188071841
 20
0.3461692365271672
 30
0.0
 10
1.190511093385066
 20
0.3556561419441222
 30
0.0
 10
1.213126718810828
 20
0.3634515389665984
 30
0.0
 10
1.237003747317304
 20
0.3694581837185711
 30
0.0
 10
1.262122429101177
 20
0.3736466210275357
 30
0.0
 10
1.288455802315737
 20
0.3764784627878395
 30
0.0
 10
1.306450934605273
 20
0.3767141675865243
 30
0.0
 10
1.315650939941408
 20
0.3768346715856481
 30
0.0
  0
SPLINE
  5
12B
330
1F
100
AcDbEntity
  8
0
  6
Continuous
 62
     7
370
    25
100
AcDbSpline
210
0.0
220
0.0
230
1.0
 70
     8
 71
     3
 72
    15
 73
    11
 74
     0
 42
0.00000001
 43
0.00000001
 40
0.0
 40
0.0
 40
0.0
 40
0.0
 40
0.1551343408258926
 40
0.2931046468650716
 40
0.417751679330439
 40
0.5299511285213586
 40
0.637968273880933
 40
0.747685911735112
 40
0.8661847413920815
 40
1.0
 40
1.0
 40
1.0
 40
1.0
 10
0.4658593071831594
 20
0.3339970341435185
 30
0.0
 10
0.4626402302511793
 20
0.3339034080754514
 30
0.0
 10
0.4565582344638092
 20
0.333726514710178
 30
0.0
 10
0.4479852392198476
 20
0.3321790952866603
 30
0.0
 10
0.4406830087511103
 20
0.3293708121301033
 30
0.0
 10
0.4345837498068246
 20
0.3255587888517494
 30
0.0
 10
0.4296625848323749
 20
0.3206598170410991
 30
0.0
 10
0.4264974353299249
 20
0.3143580488701869
 30
0.0
 10
0.4243925616912244
 20
0.3070905016949513
 30
0.0
 10
0.4241965603583287
 20
0.3018414373861714
 30
0.0
 10
0.424092610677083
 20
0.2990575861047814
 30
0.0
  0
SPLINE
  5
12C
330
1F
100
AcDbEntity
  8
0
  6
Continuous
 62
     7
370
    25
100
AcDbSpline
210
0.0
220
0.0
230
1.0
 70
     8
 71
     3
 72
    11
 73
     7
 74
     0
 42
0.00000001
 43
0.00000001
 40
0.0
 40
0.0
 40
0.0
 40
0.0
 40
0.1981109463933657
 40
0.4233538804057244
 40
0.6895580161499981
 40
1.0
 40
1.0
 40
1.0
 40
1.0
 10
2.033850705182111
 20
-0.2508705845585577
 30
0.0
 10
2.036918030915073
 20
-0.2532383888331904
 30
0.0
 10
2.043472763377657
 20
-0.2582982764666414
 30
0.0
 10
2.056400020282309
 20
-0.2624942753928267
 30
0.0
 10
2.071736202774519
 20
-0.2653276074139879
 30
0.0
 10
2.082961133469565
 20
-0.2655891087440138
 30
0.0
 10
2.089004163388853
 20
-0.2657298900462964
 30
0.0
  0
SPLINE
  5
12D
330
1F
100
AcDbEntity
  8
0
  6
Continuous
 62
     7
370
    25
100
AcDbSpline
210
0.0
220
0.0
230
1.0
 70
     8
 71
     3
 72
    23
 73
    19
 74
     0
 42
0.00000001
 43
0.00000001
 40
0.0
 40
0.0
 40
0.0
 40
0.0
 40
0.0939616584125126
 40
0.1827655847124566
 40
0.2657405133005947
 40
0.3438075311950158
 40
0.4168809118275569
 40
0.4852149491074989
 40
0.548754460100225
 40
0.6081878453452539
 40
0.6640568251633572
 40
0.7162018759859954
 40
0.7658042789881864
 40
0.8135851594481253
 40
0.8596660261302067
 40
0.9056148733267131
 40
0.9524229783114508
 40
1.0
 40
1.0
 40
1.0
 40
1.0
 10
-3.446020196985317
 20
0.0487251423023364
 30
0.0
 10
-3.435744424506199
 20
0.0470098208525774
 30
0.0
 10
-3.415756936021554
 20
0.0436733351728686
 30
0.0
 10
-3.386902951065106
 20
0.0376737919230403
 30
0.0
 10
-3.360020780956756
 20
0.0309675202769546
 30
0.0
 10
-3.33509948215162
 20
0.0236826072493083
 30
0.0
 10
-3.312141771622491
 20
0.015563708327096
 30
0.0
 10
-3.291273324090123
 20
0.0065492755323015
 30
0.0
 10
-3.272239482653063
 20
-0.0028547350239476
 30
0.0
 10
-3.255324755884615
 20
-0.0132409128948088
 30
0.0
 10
-3.240238373678993
 20
-0.024109100559154
 30
0.0
 10
-3.227286438648429
 20
-0.0358855567715747
 30
0.0
 10
-3.216135034458675
 20
-0.048206196035555
 30
0.0
 10
-3.207163097575509
 20
-0.0613918553898077
 30
0.0
 10
-3.200014462092994
 20
-0.0752047456128993
 30
0.0
 10
-3.19511429885615
 20
-0.0898382484654267
 30
0.0
 10
-3.191859229176526
 20
-0.1051236543890546
 30
0.0
 10
-3.191556557930556
 20
-0.1156028472056172
 30
0.0
 10
-3.191403989438659
 20
-0.1208851284450956
 30
0.0
  0
SPLINE
  5
12E
330
1F
100
AcDbEntity
  8
0
  6
Continuous
 62
     7
370
    25
100
AcDbSpline
210
0.0
220
0.0
230
1.0
 70
     8
 71
     3
 72
    15
 73
    11
 74
     0
 42
0.00000001
 43
0.00000001
 40
0.0
 40
0.0
 40
0.0
 40
0.0
 40
0.1665983030977501
 40
0.3153673036240894
 40
0.4476413132353737
 40
0.5692911221026609
 40
0.681822079105579
 40
0.7856151686886085
 40
0.8892640811085791
 40
1.0
 40
1.0
 40
1.0
 40
1.0
 10
-1.980571393613462
 20
-0.2657298900462964
 30
0.0
 10
-1.977533799304975
 20
-0.2656102246251368
 30
0.0
 10
-1.971783693158878
 20
-0.2653837003418371
 30
0.0
 10
-1.963671598794648
 20
-0.2641645569285683
 30
0.0
 10
-1.95669958189689
 20
-0.2617184190577598
 30
0.0
 10
-1.95085197051552
 20
-0.2583874906842041
 30
0.0
 10
-1.946241412979627
 20
-0.2542181530476396
 30
0.0
 10
-1.942855228927572
 20
-0.2493918251175721
 30
0.0
 10
-1.94092634205606
 20
-0.2438238054706346
 30
0.0
 10
-1.940674869118689
 20
-0.2399080340451391
 30
0.0
 10
-1.940544976128473
 20
-0.2378854257089122
 30
0.0
  0
SPLINE
  5
12F
330
1F
100
AcDbEntity
  8
0
  6
Continuous
 62
     7
370
    25
100
AcDbSpline
210
0.0
220
0.0
230
1.0
 70
     8
 71
     3
 72
    23
 73
    19
 74
     0
 42
0.00000001
 43
0.00000001
 40
0.0
 40
0.0
 40
0.0
 40
0.0
 40
0.0574554036799978
 40
0.1128159242814337
 40
0.1668829040820327
 40
0.2222548380472849
 40
0.2792065085548113
 40
0.3395898584516096
 40
0.4046072244571487
 40
0.474770389998838
 40
0.5150193281847407
 40
0.5625585796602903
 40
0.6169773812312804
 40
0.6788023504388304
 40
0.7480663229183352
 40
0.8246854417825634
 40
0.9088910868130516
 40
1.0
 40
1.0
 40
1.0
 40
1.0
 10
1.143764919704863
 20
0.2219498387089482
 30
0.0
 10
1.143937483094847
 20
0.2168407314252797
 30
0.0
 10
1.144276318036231
 20
0.2068088001613327
 30
0.0
 10
1.147932852983933
 20
0.1923478416485543
 30
0.0
 10
1.153633915120256
 20
0.1788284948924763
 30
0.0
 10
1.161570803469925
 20
0.1662790428268877
 30
0.0
 10
1.171970296730856
 20
0.1549255899373989
 30
0.0
 10
1.184582130573458
 20
0.1446957551074408
 30
0.0
 10
1.199446444489307
 20
0.1356616676992274
 30
0.0
 10
1.213514104236197
 20
0.12891146919082
 30
0.0
 10
1.226677973450981
 20
0.124067376267345
 30
0.0
 10
1.23870781766235
 20
0.1202408664531362
 30
0.0
 10
1.252679165509908
 20
0.1162195194011404
 30
0.0
 10
1.268623373115895
 20
0.1121074542059495
 30
0.0
 10
1.286547410631708
 20
0.1077875766948101
 30
0.0
 10
1.306540090120016
 20
0.1036175703074442
 30
0.0
 10
1.328415137669386
 20
0.0989803507614693
 30
0.0
 10
1.34371182203128
 20
0.0961254126707122
 30
0.0
 10
1.351661328916198
 20
0.0946417349356191
 30
0.0
  0
SPLINE
  5
130
330
1F
100
AcDbEntity
  8
0
  6
Continuous
 62
     7
370
    25
100
AcDbSpline
210
0.0
220
0.0
230
1.0
 70
     8
 71
     3
 72
    15
 73
    11
 74
     0
 42
0.00000001
 43
0.00000001
 40
0.0
 40
0.0
 40
0.0
 40
0.0
 40
0.1919303180177995
 40
0.3521237420706446
 40
0.4825058444077854
 40
0.5882579930067389
 40
0.6818283334536315
 40
0.777408059994914
 40
0.8805289178918255
 40
1.0
 40
1.0
 40
1.0
 40
1.0
 10
-1.761965575041595
 20
0.3339970341435184
 30
0.0
 10
-1.767147561462587
 20
0.3339277896759127
 30
0.0
 10
-1.776654660021918
 20
0.3338007507520844
 30
0.0
 10
-1.789602121659158
 20
0.3321150747722032
 30
0.0
 10
-1.799983259939209
 20
0.3294306439786439
 30
0.0
 10
-1.808120340542433
 20
0.3255773397183916
 30
0.0
 10
-1.81397368424518
 20
0.3199912371649894
 30
0.0
 10
-1.817910065545389
 20
0.3130517641845343
 30
0.0
 10
-1.820203163852556
 20
0.3046867430025511
 30
0.0
 10
-1.820461132550663
 20
0.2986716322161321
 30
0.0
 10
-1.82059959129051
 20
0.2954431604456017
 30
0.0
  0
SPLINE
  5
131
330
1F
100
AcDbEntity
  8
0
  6
Continuous
 62
     7
370
    25
100
AcDbSpline
210
0.0
220
0.0
230
1.0
 70
     8
 71
     3
 72
    11
 73
     7
 74
     0
 42
0.00000001
 43
0.00000001
 40
0.0
 40
0.0
 40
0.0
 40
0.0
 40
0.3628707793915666
 40
0.6470646815407847
 40
0.855371839642146
 40
1.0
 40
1.0
 40
1.0
 40
1.0
 10
2.548839427806714
 20
-0.208434549967448
 30
0.0
 10
2.548852077724605
 20
-0.2136696703345542
 30
0.0
 10
2.548874634831865
 20
-0.2230048433094877
 30
0.0
 10
2.550433025806122
 20
-0.2351651397994443
 30
0.0
 10
2.552146624065066
 20
-0.2443589467915815
 30
0.0
 10
2.555023316685137
 20
-0.2485980049190687
 30
0.0
 10
2.556202146742079
 20
-0.2503351140905311
 30
0.0
  0
SPLINE
  5
132
330
1F
100
AcDbEntity
  8
0
  6
Continuous
 62
     7
370
    25
100
AcDbSpline
210
0.0
220
0.0
230
1.0
 70
     8
 71
     3
 72
    23
 73
    19
 74
     0
 42
0.00000001
 43
0.00000001
 40
0.0
 40
0.0
 40
0.0
 40
0.0
 40
0.0657654780623802
 40
0.1294951070638451
 40
0.1919590142375548
 40
0.2536414092801906
 40
0.3149690475313033
 40
0.3761098743222857
 40
0.4382601403990789
 40
0.5014892016627964
 40
0.5650357469955477
 40
0.6271212181327542
 40
0.6887211339630214
 40
0.749782219352553
 40
0.8112961017388385
 40
0.8732731459420743
 40
0.9358454827739806
 40
1.0
 40
1.0
 40
1.0
 40
1.0
 10
1.083792227285881
 20
-0.0429741753472223
 30
0.0
 10
1.086003370431663
 20
-0.0517211762086901
 30
0.0
 10
1.090357208141547
 20
-0.0689444040542923
 30
0.0
 10
1.099463888055405
 20
-0.0936891806017467
 30
0.0
 10
1.110317279914097
 20
-0.1170767240857585
 30
0.0
 10
1.123021827202632
 20
-0.1391558615619299
 30
0.0
 10
1.137844086001454
 20
-0.1596436177538033
 30
0.0
 10
1.154407424966276
 20
-0.1788284240624737
 30
0.0
 10
1.17293355739221
 20
-0.1965171112796055
 30
0.0
 10
1.193265603679087
 20
-0.212618295859041
 30
0.0
 10
1.214778684259435
 20
-0.2270698497769141
 30
0.0
 10
1.237103692751048
 20
-0.2398043644530152
 30
0.0
 10
1.2601803981379
 20
-0.2503213677679593
 30
0.0
 10
1.28387578691754
 20
-0.2591110759791105
 30
0.0
 10
1.308267576337093
 20
-0.2659730633605629
 30
0.0
 10
1.333356176084833
 20
-0.2707063278224282
 30
0.0
 10
1.35907959343296
 20
-0.2738184435587175
 30
0.0
 10
1.376462257680065
 20
-0.2741364361671446
 30
0.0
 10
1.385262100784868
 20
-0.2742974175347224
 30
0.0
  0
SPLINE
  5
133
330
1F
100
AcDbEntity
  8
0
  6
Continuous
 62
     7
370
    25
100
AcDbSpline
210
0.0
220
0.0
230
1.0
 70
     8
 71
     3
 72
    15
 73
    11
 74
     0
 42
0.00000001
 43
0.00000001
 40
0.0
 40
0.0
 40
0.0
 40
0.0
 40
0.1179379861251589
 40
0.2248475221687375
 40
0.3279914494481824
 40
0.4364982456994234
 40
0.5522018425495523
 40
0.6836512236937474
 40
0.8307741137543461
 40
1.0
 40
1.0
 40
1.0
 40
1.0
 10
-0.5097678855613423
 20
0.3001285270408348
 30
0.0
 10
-0.5099164049749121
 20
0.3027783877340653
 30
0.0
 10
-0.5101995556647979
 20
0.3078303190968149
 30
0.0
 10
-0.5125088576721288
 20
0.3149272283137863
 30
0.0
 10
-0.5165752553993319
 20
0.3209141376908611
 30
0.0
 10
-0.5222010140428724
 20
0.3257437696977544
 30
0.0
 10
-0.5292630578928972
 20
0.3295816630728707
 30
0.0
 10
-0.5377791220084192
 20
0.3321333220412415
 30
0.0
 10
-0.5477248177664149
 20
0.3337554410082501
 30
0.0
 10
-0.5548291911048914
 20
0.3339128373853684
 30
0.0
 10
-0.5586295657687714
 20
0.3339970341435186
 30
0.0
  0
SPLINE
  5
134
330
1F
100
AcDbEntity
  8
0
  6
Continuous
 62
     7
370
    25
100
AcDbSpline
210
0.0
220
0.0
230
1.0
 70
     8
 71
     3
 72
    15
 73
    11
 74
     0
 42
0.00000001
 43
0.00000001
 40
0.0
 40
0.0
 40
0.0
 40
0.0
 40
0.1844167114346413
 40
0.340983380018439
 40
0.4701538362362602
 40
0.5781196607317465
 40
0.6753494152336592
 40
0.7731713040851897
 40
0.8796409940242298
 40
0.9999999999999999
 40
0.9999999999999999
 40
0.9999999999999999
 40
0.9999999999999999
 10
-0.5756307531286167
 20
-0.2657298900462963
 30
0.0
 10
-0.570000051666428
 20
-0.2656287636491548
 30
0.0
 10
-0.5595889799066305
 20
-0.2654417826514017
 30
0.0
 10
-0.5453508426951758
 20
-0.2634589070096565
 30
0.0
 10
-0.5336679134313919
 20
-0.2604638069374171
 30
0.0
 10
-0.5244873147581789
 20
-0.2557209064942226
 30
0.0
 10
-0.5177718753084319
 20
-0.2492129123325807
 30
0.0
 10
-0.5128481801507475
 20
-0.2413112187602711
 30
0.0
 10
-0.5102700931723056
 20
-0.2316122399519835
 30
0.0
 10
-0.5099419850715492
 20
-0.2246907574706481
 30
0.0
 10
-0.5097678855613424
 20
-0.2210181059660735
 30
0.0
  0
SPLINE
  5
135
330
1F
100
AcDbEntity
  8
0
  6
Continuous
 62
     7
370
    25
100
AcDbSpline
210
0.0
220
0.0
230
1.0
 70
     8
 71
     3
 72
    15
 73
    11
 74
     0
 42
0.00000001
 43
0.00000001
 40
0.0
 40
0.0
 40
0.0
 40
0.0
 40
0.1148976916536663
 40
0.2311264897571126
 40
0.350131940428683
 40
0.4717284748434676
 40
0.5968768282107545
 40
0.7264854197180722
 40
0.8607228552361351
 40
1.0
 40
1.0
 40
1.0
 40
1.0
 10
3.902107168126989
 20
0.0593006840458622
 30
0.0
 10
3.894062851358242
 20
0.0545164948566538
 30
0.0
 10
3.877881023242331
 20
0.0448926909514483
 30
0.0
 10
3.851951527466589
 20
0.0329516022681774
 30
0.0
 10
3.824802212307949
 20
0.0225471030140402
 30
0.0
 10
3.796142859493422
 20
0.0143674211276767
 30
0.0
 10
3.766216662029324
 20
0.0076835119574722
 30
0.0
 10
3.734829418535368
 20
0.0033093825350419
 30
0.0
 10
3.702120670964887
 20
0.0003613494459159
 30
0.0
 10
3.679849131174826
 20
0.0000314507546965
 30
0.0
 10
3.668508176450376
 20
-0.0001365379050927
 30
0.0
  0
SPLINE
  5
136
330
1F
100
AcDbEntity
  8
0
  6
Continuous
 62
     7
370
    25
100
AcDbSpline
210
0.0
220
0.0
230
1.0
 70
     8
 71
     3
 72
    15
 73
    11
 74
     0
 42
0.00000001
 43
0.00000001
 40
0.0
 40
0.0
 40
0.0
 40
0.0
 40
0.2062593983851218
 40
0.3848065660376252
 40
0.5356836497986013
 40
0.6611697738196083
 40
0.7675770444922736
 40
0.8551152310615727
 40
0.9307398771167278
 40
0.9999999999999999
 40
0.9999999999999999
 40
0.9999999999999999
 40
0.9999999999999999
 10
-3.889122009277346
 20
-0.2657298900462964
 30
0.0
 10
-3.883987396870046
 20
-0.2656268138972006
 30
0.0
 10
-3.874408039110562
 20
-0.2654345105195872
 30
0.0
 10
-3.861116658678114
 20
-0.2640705904941352
 30
0.0
 10
-3.850037345189977
 20
-0.2616042594425013
 30
0.0
 10
-3.841078596867112
 20
-0.2581897331672453
 30
0.0
 10
-3.834372559025653
 20
-0.2538268934459129
 30
0.0
 10
-3.829295060982465
 20
-0.2494288558896371
 30
0.0
 10
-3.825968988330611
 20
-0.2444588055545722
 30
0.0
 10
-3.82558471840644
 20
-0.2408265722351546
 30
0.0
 10
-3.825401023582178
 20
-0.239090234261972
 30
0.0
  0
SPLINE
  5
137
330
1F
100
AcDbEntity
  8
0
  6
Continuous
 62
     7
370
    25
100
AcDbSpline
210
0.0
220
0.0
230
1.0
 70
     8
 71
     3
 72
    15
 73
    11
 74
     0
 42
0.00000001
 43
0.00000001
 40
0.0
 40
0.0
 40
0.0
 40
0.0
 40
0.1137226097878146
 40
0.217856454306912
 40
0.3205018083801608
 40
0.4272840042745268
 40
0.5450689691158137
 40
0.6791159748220192
 40
0.8292866573768765
 40
1.0
 40
1.0
 40
1.0
 40
1.0
 10
-3.825401023582178
 20
0.2955770280626084
 30
0.0
 10
-3.825562549066909
 20
0.2985901151042599
 30
0.0
 10
-3.82587198066938
 20
0.304362234304101
 30
0.0
 10
-3.828770200773037
 20
0.3124753171841206
 30
0.0
 10
-3.833792003751682
 20
0.3192018207444056
 30
0.0
 10
-3.840611624940388
 20
0.3246401324411103
 30
0.0
 10
-3.849115137007849
 20
0.3289577727574884
 30
0.0
 10
-3.859365004765126
 20
0.3319478041156204
 30
0.0
 10
-3.871309043165391
 20
0.333601180270431
 30
0.0
 10
-3.879790538932372
 20
0.3338595689285045
 30
0.0
 10
-3.884302775065106
 20
0.3339970341435185
 30
0.0
  0
SPLINE
  5
138
330
1F
100
AcDbEntity
  8
0
  6
Continuous
 62
     7
370
    25
100
AcDbSpline
210
0.0
220
0.0
230
1.0
 70
     8
 71
     3
 72
    23
 73
    19
 74
     0
 42
0.00000001
 43
0.00000001
 40
0.0
 40
0.0
 40
0.0
 40
0.0
 40
0.0808891061620446
 40
0.157279152202929
 40
0.229780681217243
 40
0.2984134358124254
 40
0.3639096256150861
 40
0.426105936461682
 40
0.4857633789726949
 40
0.5432891764286201
 40
0.5992770780801391
 40
0.6543494293406715
 40
0.7090594835001703
 40
0.7641922376867395
 40
0.8201801393382586
 40
0.8778792511636551
 40
0.9375366936746675
 40
1.0
 40
1.0
 40
1.0
 40
1.0
 10
-1.555006239149306
 20
0.1198088469328702
 30
0.0
 10
-1.556741223672936
 20
0.1284871125055761
 30
0.0
 10
-1.560114692708619
 20
0.1453609576576382
 30
0.0
 10
-1.566609774572043
 20
0.1696570572414724
 30
0.0
 10
-1.573872704513132
 20
0.1923297027870993
 30
0.0
 10
-1.58233251963091
 20
0.2133114384968913
 30
0.0
 10
-1.59180097971904
 20
0.232610840227796
 30
0.0
 10
-1.602293848417166
 20
0.2502353997136509
 30
0.0
 10
-1.613623359063283
 20
0.2662938695459315
 30
0.0
 10
-1.626179294697042
 20
0.2805154721071803
 30
0.0
 10
-1.63956367149276
 20
0.2932514624488131
 30
0.0
 10
-1.654145526003356
 20
0.3040886172911735
 30
0.0
 10
-1.669598989190007
 20
0.3134641960554103
 30
0.0
 10
-1.686181356703329
 20
0.3209050074559978
 30
0.0
 10
-1.703683840997846
 20
0.3268977543637047
 30
0.0
 10
-1.722239244187714
 20
0.330935204067256
 30
0.0
 10
-1.741762949633208
 20
0.3336069318846371
 30
0.0
 10
-1.755128999811114
 20
0.3338650234079574
 30
0.0
 10
-1.761965575041595
 20
0.3339970341435184
 30
0.0
  0
SPLINE
  5
139
330
1F
100
AcDbEntity
  8
0
  6
Continuous
 62
     7
370
    25
100
AcDbSpline
210
0.0
220
0.0
230
1.0
 70
     8
 71
     3
 72
    23
 73
    19
 74
     0
 42
0.00000001
 43
0.00000001
 40
0.0
 40
0.0
 40
0.0
 40
0.0
 40
0.0502888219749721
 40
0.0988733808712609
 40
0.1472835052924986
 40
0.1960770309978654
 40
0.2456076923780034
 40
0.2963941668520806
 40
0.3498328177310019
 40
0.4061056990641628
 40
0.4653069901718608
 40
0.5283680861899058
 40
0.595312351622119
 40
0.6670205801490532
 40
0.742855487681333
 40
0.8234494001920785
 40
0.9094253769477485
 40
1.0
 40
1.0
 40
1.0
 40
1.0
 10
-3.242809154369215
 20
0.2089646798593026
 30
0.0
 10
-3.242951345667016
 20
0.204266768985522
 30
0.0
 10
-3.243230909470498
 20
0.1950301570928489
 30
0.0
 10
-3.245816092956283
 20
0.1814878389076005
 30
0.0
 10
-3.249590068395319
 20
0.1683826508301074
 30
0.0
 10
-3.255360411837489
 20
0.1559199771225987
 30
0.0
 10
-3.262425978179865
 20
0.1438982904490474
 30
0.0
 10
-3.271315457312364
 20
0.1325911473583873
 30
0.0
 10
-3.281637853356559
 20
0.1217070935873103
 30
0.0
 10
-3.29363834171627
 20
0.1114548896803846
 30
0.0
 10
-3.307069141896857
 20
0.1015571927992999
 30
0.0
 10
-3.322312350447443
 20
0.0926076212895017
 30
0.0
 10
-3.338954054168164
 20
0.0837928927604549
 30
0.0
 10
-3.357295619497437
 20
0.0757404219793198
 30
0.0
 10
-3.377167710126163
 20
0.0680840048976175
 30
0.0
 10
-3.398661514431387
 20
0.0610034720330231
 30
0.0
 10
-3.421760112841466
 20
0.0544684794677602
 30
0.0
 10
-3.437794287230268
 20
0.0506725458206202
 30
0.0
 10
-3.446020196985317
 20
0.0487251423023364
 30
0.0
  0
SPLINE
  5
13A
330
1F
100
AcDbEntity
  8
0
  6
Continuous
 62
     7
370
    25
100
AcDbSpline
210
0.0
220
0.0
230
1.0
 70
     8
 71
     3
 72
    23
 73
    19
 74
     0
 42
0.00000001
 43
0.00000001
 40
0.0
 40
0.0
 40
0.0
 40
0.0
 40
0.0842688104414488
 40
0.1630989241332584
 40
0.2366318006331002
 40
0.3051716398704341
 40
0.3696828821260554
 40
0.4300518570515364
 40
0.4871208411355344
 40
0.5413175698456016
 40
0.5945400251615135
 40
0.6477466485755083
 40
0.7017513154831097
 40
0.757460706463856
 40
0.8143473269409772
 40
0.8737534375178915
 40
0.9354931110723954
 40
1.0
 40
1.0
 40
1.0
 40
1.0
 10
0.8439014576099534
 20
0.145511429398148
 30
0.0
 10
0.841907775735269
 20
0.1539726067378823
 30
0.0
 10
0.8380490839236534
 20
0.1703488782644658
 30
0.0
 10
0.8307619121900696
 20
0.1936597014026744
 30
0.0
 10
0.8227786367732552
 20
0.215008533535757
 30
0.0
 10
0.8139589670170532
 20
0.2344266471595106
 30
0.0
 10
0.8042032155730862
 20
0.2518511027518909
 30
0.0
 10
0.793644089056583
 20
0.2674002407106383
 30
0.0
 10
0.7820965001264225
 20
0.2808653849485722
 30
0.0
 10
0.7696235177595608
 20
0.2924260832791431
 30
0.0
 10
0.7561954659338362
 20
0.3021632324273567
 30
0.0
 10
0.7421213559543701
 20
0.3109151211388007
 30
0.0
 10
0.726822359109059
 20
0.3179431260189141
 30
0.0
 10
0.7106683913666242
 20
0.3238488310951727
 30
0.0
 10
0.6934954673380455
 20
0.3283750925890304
 30
0.0
 10
0.675432408417152
 20
0.3317681138873204
 30
0.0
 10
0.6563456946311212
 20
0.3335850663945286
 30
0.0
 10
0.6433266115435482
 20
0.3338577194541671
 30
0.0
 10
0.6366743864836513
 20
0.3339970341435185
 30
0.0
  0
SPLINE
  5
13B
330
1F
100
AcDbEntity
  8
0
  6
Continuous
 62
     7
370
    25
100
AcDbSpline
210
0.0
220
0.0
230
1.0
 70
     8
 71
     3
 72
    23
 73
    19
 74
     0
 42
0.00000001
 43
0.00000001
 40
0.0
 40
0.0
 40
0.0
 40
0.0
 40
0.0498266368323001
 40
0.0980200410744684
 40
0.1461398291076771
 40
0.1951509423540376
 40
0.2473817033400025
 40
0.3042292541751884
 40
0.3676265516832642
 40
0.4379024784892557
 40
0.4790199007572206
 40
0.5285045989356105
 40
0.5860210634714226
 40
0.6521340664875053
 40
0.7264415086174626
 40
0.8092912016731773
 40
0.9003598335575926
 40
1.0
 40
1.0
 40
1.0
 40
1.0
 10
1.580708821614585
 20
-0.1398943300600406
 30
0.0
 10
1.58049750974617
 20
-0.1347387315645388
 30
0.0
 10
1.580081812453749
 20
-0.1245965263421914
 30
0.0
 10
1.576168222488155
 20
-0.1098908693901763
 30
0.0
 10
1.5698024983652
 20
-0.0962217770722682
 30
0.0
 10
1.560894107865364
 20
-0.0835238037254506
 30
0.0
 10
1.549309060306425
 20
-0.0719095982277448
 30
0.0
 10
1.534852007457529
 20
-0.0613773233549623
 30
0.0
 10
1.517413686305838
 20
-0.052153086003945
 30
0.0
 10
1.500726985290439
 20
-0.045204158295489
 30
0.0
 10
1.485010874005736
 20
-0.039780484538096
 30
0.0
 10
1.470290487391448
 20
-0.0355838009129205
 30
0.0
 10
1.452953898099594
 20
-0.0311919683777033
 30
0.0
 10
1.433039098957149
 20
-0.0265513569406955
 30
0.0
 10
1.410521602786601
 20
-0.0215514959543924
 30
0.0
 10
1.385368350788809
 20
-0.0165601280774499
 30
0.0
 10
1.357634081704096
 20
-0.0111337133704005
 30
0.0
 10
1.338235736649821
 20
-0.0076913741608179
 30
0.0
 10
1.328100628323027
 20
-0.0058928454363788
 30
0.0
  0
SPLINE
  5
13C
330
1F
100
AcDbEntity
  8
0
  6
Continuous
 62
     7
370
    25
100
AcDbSpline
210
0.0
220
0.0
230
1.0
 70
     8
 71
     3
 72
    15
 73
    11
 74
     0
 42
0.00000001
 43
0.00000001
 40
0.0
 40
0.0
 40
0.0
 40
0.0
 40
0.1953879288220392
 40
0.3589867958614033
 40
0.4962919288738842
 40
0.6087872155127216
 40
0.7075268104702543
 40
0.8016223842100454
 40
0.8969181497682642
 40
1.0
 40
1.0
 40
1.0
 40
1.0
 10
0.2424342543990521
 20
-0.2657298900462964
 30
0.0
 10
0.2477058075347535
 20
-0.2656590289681524
 30
0.0
 10
0.2573912470642457
 20
-0.2655288357082743
 30
0.0
 10
0.2706958577079068
 20
-0.2638419924315495
 30
0.0
 10
0.281540869432386
 20
-0.2610496394557917
 30
0.0
 10
0.2900717500997208
 20
-0.2569727736974686
 30
0.0
 10
0.2966101334971635
 20
-0.2517763329439502
 30
0.0
 10
0.3009184939318917
 20
-0.2452128495757681
 30
0.0
 10
0.30382859317009
 20
-0.2377627241095233
 30
0.0
 10
0.3040382717382543
 20
-0.2323817295444854
 30
0.0
 10
0.3041472258391201
 20
-0.2295856334544995
 30
0.0
  0
SPLINE
  5
13D
330
1F
100
AcDbEntity
  8
0
  6
Continuous
 62
     7
370
    25
100
AcDbSpline
210
0.0
220
0.0
230
1.0
 70
     8
 71
     3
 72
     9
 73
     5
 74
     0
 42
0.00000001
 43
0.00000001
 40
0.0
 40
0.0
 40
0.0
 40
0.0
 40
0.4743877612140574
 40
1.0
 40
1.0
 40
1.0
 40
1.0
 10
-2.505064717045536
 20
-0.2369483523898656
 30
0.0
 10
-2.505286658992209
 20
-0.2342377680403266
 30
0.0
 10
-2.505754508217712
 20
-0.2285239099454171
 30
0.0
 10
-2.508022518965833
 20
-0.2232530591728975
 30
0.0
 10
-2.509214613172743
 20
-0.2204826354980469
 30
0.0
  0
SPLINE
  5
13E
330
1F
100
AcDbEntity
  8
0
  6
Continuous
 62
     7
370
    25
100
AcDbSpline
210
0.0
220
0.0
230
1.0
 70
     8
 71
     3
 72
    23
 73
    19
 74
     0
 42
0.00000001
 43
0.00000001
 40
0.0
 40
0.0
 40
0.0
 40
0.0
 40
0.0808891061620446
 40
0.157279152202929
 40
0.2297806812172428
 40
0.2984134358124254
 40
0.3639096256150859
 40
0.426105936461682
 40
0.4857633789726952
 40
0.5432891764286197
 40
0.5992770780801391
 40
0.6543494293406715
 40
0.7090594835001703
 40
0.7641922376867395
 40
0.8201801393382586
 40
0.8778792511636551
 40
0.937536693674668
 40
1.0
 40
1.0
 40
1.0
 40
1.0
 10
-0.7582261827256945
 20
0.1198088469328703
 30
0.0
 10
-0.7599611672493247
 20
0.1284871125055762
 30
0.0
 10
-0.7633346362850079
 20
0.1453609576576382
 30
0.0
 10
-0.7698297181484315
 20
0.1696570572414725
 30
0.0
 10
-0.7770926480895202
 20
0.1923297027870994
 30
0.0
 10
-0.7855524632072985
 20
0.2133114384968913
 30
0.0
 10
-0.7950209232954282
 20
0.2326108402277961
 30
0.0
 10
-0.805513791993554
 20
0.2502353997136509
 30
0.0
 10
-0.8168433026396722
 20
0.2662938695459315
 30
0.0
 10
-0.8293992382734309
 20
0.2805154721071805
 30
0.0
 10
-0.8427836150691493
 20
0.2932514624488133
 30
0.0
 10
-0.8573654695797446
 20
0.3040886172911735
 30
0.0
 10
-0.8728189327663952
 20
0.3134641960554104
 30
0.0
 10
-0.8894013002797182
 20
0.3209050074559978
 30
0.0
 10
-0.9069037845742348
 20
0.3268977543637048
 30
0.0
 10
-0.9254591877641029
 20
0.3309352040672561
 30
0.0
 10
-0.9449828932095964
 20
0.333606931884637
 30
0.0
 10
-0.9583489433875024
 20
0.3338650234079575
 30
0.0
 10
-0.9651855186179834
 20
0.3339970341435186
 30
0.0
  0
SPLINE
  5
13F
330
1F
100
AcDbEntity
  8
0
  6
Continuous
 62
     7
370
    25
100
AcDbSpline
210
0.0
220
0.0
230
1.0
 70
     8
 71
     3
 72
    23
 73
    19
 74
     0
 42
0.00000001
 43
0.00000001
 40
0.0
 40
0.0
 40
0.0
 40
0.0
 40
0.0781686487130464
 40
0.1528959055416559
 40
0.2236348919627972
 40
0.2912043969778877
 40
0.3562030263757306
 40
0.4186527727938112
 40
0.4789969187682341
 40
0.5382904590464792
 40
0.5964493378566855
 40
0.6534806354517507
 40
0.7099229209381833
 40
0.7664921104401909
 40
0.8234343754093991
 40
0.8811448655548392
 40
0.9400032600277103
 40
1.0
 40
1.0
 40
1.0
 40
1.0
 10
1.572141294126159
 20
0.1283763744212962
 30
0.0
 10
1.56917173228216
 20
0.1373849410456335
 30
0.0
 10
1.563363344204902
 20
0.1550054701751143
 30
0.0
 10
1.553031177147628
 20
0.1801162876056094
 30
0.0
 10
1.541799692795964
 20
0.2034085928873639
 30
0.0
 10
1.529502915602139
 20
0.2248215523647437
 30
0.0
 10
1.515943629788806
 20
0.2442436807923832
 30
0.0
 10
1.501464115185874
 20
0.2618596828778415
 30
0.0
 10
1.486024580680863
 20
0.2777089625850251
 30
0.0
 10
1.469356003549107
 20
0.2914585486977447
 30
0.0
 10
1.451911468507499
 20
0.3034769938887973
 30
0.0
 10
1.433943657176531
 20
0.3140522414688002
 30
0.0
 10
1.415194178908372
 20
0.3227171492101956
 30
0.0
 10
1.395890250723702
 20
0.3300133814981975
 30
0.0
 10
1.375865393697932
 20
0.3356386088203941
 30
0.0
 10
1.355180927920642
 20
0.3396354930390185
 30
0.0
 10
1.333872679063732
 20
0.3421125843657238
 30
0.0
 10
1.319450524106415
 20
0.3424129436374272
 30
0.0
 10
1.312170381899235
 20
0.3425645616319444
 30
0.0
  0
SPLINE
  5
140
330
1F
100
AcDbEntity
  8
0
  6
Continuous
 62
     7
370
    25
100
AcDbSpline
210
0.0
220
0.0
230
1.0
 70
     8
 71
     3
 72
    31
 73
    27
 74
     0
 42
0.00000001
 43
0.00000001
 40
0.0
 40
0.0
 40
0.0
 40
0.0
 40
0.0843411330037174
 40
0.1628641802069438
 40
0.2348720821659419
 40
0.3011017600603308
 40
0.3608611029182949
 40
0.4149092426827852
 40
0.4628827806226362
 40
0.5049584562096343
 40
0.5431990228982233
 40
0.5796290443124977
 40
0.614644813404374
 40
0.6484901892664131
 40
0.6805465235670031
 40
0.7116330811372723
 40
0.7417168107877257
 40
0.7709794869999903
 40
0.7995424658918652
 40
0.8279354880603842
 40
0.8558124237225946
 40
0.8836815550913536
 40
0.9121759095354331
 40
0.940763628994001
 40
0.9699723613145976
 40
1.0
 40
1.0
 40
1.0
 40
1.0
 10
1.351661328916198
 20
0.0946417349356191
 30
0.0
 10
1.362868870026076
 20
0.0924915291961133
 30
0.0
 10
1.384510824906092
 20
0.0883394448860122
 30
0.0
 10
1.415603932942048
 20
0.0817659949030445
 30
0.0
 10
1.444229679640282
 20
0.0753769232734713
 30
0.0
 10
1.470241784907128
 20
0.0689626601648414
 30
0.0
 10
1.493787926394342
 20
0.0627080866683797
 30
0.0
 10
1.5147567665964
 20
0.0564173062530765
 30
0.0
 10
1.533288551530102
 20
0.0503449288366048
 30
0.0
 10
1.549496106865479
 20
0.0441032473980352
 30
0.0
 10
1.563920382046442
 20
0.0376572349196469
 30
0.0
 10
1.577277244199733
 20
0.0311697327452878
 30
0.0
 10
1.589603874502533
 20
0.0240050195837327
 30
0.0
 10
1.601061723960527
 20
0.0165733380827658
 30
0.0
 10
1.611659002478182
 20
0.0088037740342635
 30
0.0
 10
1.62108497662352
 20
0.0004119537719286
 30
0.0
 10
1.629944971725739
 20
-0.0080524984011237
 30
0.0
 10
1.637478737609611
 20
-0.01727867320201
 30
0.0
 10
1.644459993235272
 20
-0.0266380455160248
 30
0.0
 10
1.650275952471185
 20
-0.0365558927430488
 30
0.0
 10
1.655308944589712
 20
-0.0467812232178767
 30
0.0
 10
1.659319529961215
 20
-0.0574670368727951
 30
0.0
 10
1.662534671332914
 20
-0.0685151898486566
 30
0.0
 10
1.664811230548473
 20
-0.0799792725230748
 30
0.0
 10
1.666190211125406
 20
-0.0918015187110566
 30
0.0
 10
1.666318875140762
 20
-0.0998195189878005
 30
0.0
 10
1.666384096498844
 20
-0.1038839410852504
 30
0.0
  0
SPLINE
  5
141
330
1F
100
AcDbEntity
  8
0
  6
Continuous
 62
     7
370
    25
100
AcDbSpline
210
0.0
220
0.0
230
1.0
 70
     8
 71
     3
 72
    11
 73
     7
 74
     0
 42
0.00000001
 43
0.00000001
 40
0.0
 40
0.0
 40
0.0
 40
0.0
 40
0.1372979728001876
 40
0.3474762368910137
 40
0.6358853547425578
 40
1.0
 40
1.0
 40
1.0
 40
1.0
 10
2.552319985848886
 20
0.3119088773374204
 30
0.0
 10
2.551779811366797
 20
0.3101343675572603
 30
0.0
 10
2.550412727844201
 20
0.3056434055411371
 30
0.0
 10
2.54964546346825
 20
0.297059479978822
 30
0.0
 10
2.54896132088929
 20
0.2854622181683239
 30
0.0
 10
2.548883084485583
 20
0.2766602028933121
 30
0.0
 10
2.548839427806713
 20
0.2717485922354239
 30
0.0
  0
SPLINE
  5
142
330
1F
100
AcDbEntity
  8
0
  6
Continuous
 62
     7
370
    25
100
AcDbSpline
210
0.0
220
0.0
230
1.0
 70
     8
 71
     3
 72
    19
 73
    15
 74
     0
 42
0.00000001
 43
0.00000001
 40
0.0
 40
0.0
 40
0.0
 40
0.0
 40
0.0940348749756698
 40
0.1788280237687484
 40
0.2544787653338052
 40
0.3211678969010484
 40
0.3781874742126122
 40
0.4283382882860979
 40
0.469826124753801
 40
0.5069777072711392
 40
0.585300120227463
 40
0.6912101362904587
 40
0.82932668460869
 40
1.0
 40
1.0
 40
1.0
 40
1.0
 10
2.42889404296875
 20
0.2764339588306568
 30
0.0
 10
2.428884087332292
 20
0.2795584860508839
 30
0.0
 10
2.428865154497068
 20
0.2855004626648738
 30
0.0
 10
2.428302976137831
 20
0.2939414513901968
 30
0.0
 10
2.427506856340867
 20
0.3014432015294897
 30
0.0
 10
2.426540602207144
 20
0.3080065871332004
 30
0.0
 10
2.425005530226278
 20
0.3135830521360479
 30
0.0
 10
2.423365297905313
 20
0.3182515235552288
 30
0.0
 10
2.421324968131794
 20
0.3220370999855078
 30
0.0
 10
2.417930812901412
 20
0.3260645532836951
 30
0.0
 10
2.41127309951365
 20
0.3296312805849554
 30
0.0
 10
2.400843080503467
 20
0.3321454337515924
 30
0.0
 10
2.387132797497154
 20
0.3338194965333312
 30
0.0
 10
2.376869690629418
 20
0.333933836521974
 30
0.0
 10
2.371197100038882
 20
0.3339970341435185
 30
0.0
  0
SPLINE
  5
143
330
1F
100
AcDbEntity
  8
0
  6
Continuous
 62
     7
370
    25
100
AcDbSpline
210
0.0
220
0.0
230
1.0
 70
     8
 71
     3
 72
    15
 73
    11
 74
     0
 42
0.00000001
 43
0.00000001
 40
0.0
 40
0.0
 40
0.0
 40
0.0
 40
0.1222748798846588
 40
0.2415686743188894
 40
0.3598394534645354
 40
0.4772548854885973
 40
0.5973238244166954
 40
0.7241531183352145
 40
0.8579900754916806
 40
1.0
 40
1.0
 40
1.0
 40
1.0
 10
1.315650939941408
 20
0.3768346715856482
 30
0.0
 10
1.324583877269138
 20
0.3766701682394998
 30
0.0
 10
1.34223196516805
 20
0.376345172170908
 30
0.0
 10
1.368373438261531
 20
0.3732821835157381
 30
0.0
 10
1.393847951970557
 20
0.3683585730540149
 30
0.0
 10
1.418900318659412
 20
0.3613424266989168
 30
0.0
 10
1.443812836875763
 20
0.351920427764485
 30
0.0
 10
1.469041246683355
 20
0.3401577578398342
 30
0.0
 10
1.494529309993331
 20
0.3254126178486093
 30
0.0
 10
1.511211054790523
 20
0.3141121132543161
 30
0.0
 10
1.519799055876556
 20
0.3082944516782407
 30
0.0
  0
SPLINE
  5
144
330
1F
100
AcDbEntity
  8
0
  6
Continuous
 62
     7
370
    25
100
AcDbSpline
210
0.0
220
0.0
230
1.0
 70
     8
 71
     3
 72
    15
 73
    11
 74
     0
 42
0.00000001
 43
0.00000001
 40
0.0
 40
0.0
 40
0.0
 40
0.0
 40
0.1731021233278744
 40
0.3145809688215832
 40
0.4269531940471771
 40
0.5119711230102494
 40
0.5936505209825215
 40
0.6977717320123034
 40
0.8333402786632214
 40
1.0
 40
1.0
 40
1.0
 40
1.0
 10
2.089004163388853
 20
0.3339970341435186
 30
0.0
 10
2.083070120929932
 20
0.3338563218305821
 30
0.0
 10
2.072286100550123
 20
0.3336006033282458
 30
0.0
 10
2.057639738643798
 20
0.3321454914422799
 30
0.0
 10
2.046448307457592
 20
0.3290185112447043
 30
0.0
 10
2.037607603413242
 20
0.3247354847631503
 30
0.0
 10
2.032143424806668
 20
0.3168727505105375
 30
0.0
 10
2.028500142884471
 20
0.306406972749358
 30
0.0
 10
2.026666693740619
 20
0.2925114487951
 30
0.0
 10
2.026378932877733
 20
0.2821484792668259
 30
0.0
 10
2.026220251012731
 20
0.2764339588306567
 30
0.0
  0
SPLINE
  5
145
330
1F
100
AcDbEntity
  8
0
  6
Continuous
 62
     7
370
    25
100
AcDbSpline
210
0.0
220
0.0
230
1.0
 70
     8
 71
     3
 72
    23
 73
    19
 74
     0
 42
0.00000001
 43
0.00000001
 40
0.0
 40
0.0
 40
0.0
 40
0.0
 40
0.0804946492766591
 40
0.1571616997008715
 40
0.2304111386886113
 40
0.3015541887786791
 40
0.369509676481642
 40
0.4363727589648093
 40
0.5012839019701982
 40
0.5652616019756008
 40
0.6272947979089326
 40
0.6856426585458313
 40
0.7409306811834224
 40
0.7938928867315167
 40
0.8455865896942316
 40
0.8966316824173027
 40
0.9474629834255724
 40
1.0
 40
1.0
 40
1.0
 40
1.0
 10
1.385262100784868
 20
-0.2742974175347223
 30
0.0
 10
1.39231525233026
 20
-0.2741488145929112
 30
0.0
 10
1.406086171206019
 20
-0.2738586749236853
 30
0.0
 10
1.426228612946987
 20
-0.2721840544493507
 30
0.0
 10
1.445361548349002
 20
-0.2690471070146417
 30
0.0
 10
1.463504304881509
 20
-0.2648430286051779
 30
0.0
 10
1.480715823638707
 20
-0.2593229045572589
 30
0.0
 10
1.496838619920531
 20
-0.2524705558911717
 30
0.0
 10
1.512129725945002
 20
-0.2446334373318826
 30
0.0
 10
1.526062921792695
 20
-0.2353252421144588
 30
0.0
 10
1.538870146159811
 20
-0.225450303959209
 30
0.0
 10
1.55006233249512
 20
-0.2148385762840288
 30
0.0
 10
1.55954139684245
 20
-0.2036896382031936
 30
0.0
 10
1.56722660950556
 20
-0.1919301432374655
 30
0.0
 10
1.573353018491092
 20
-0.1796938038679025
 30
0.0
 10
1.577623286657072
 20
-0.1668946561424229
 30
0.0
 10
1.580304410857287
 20
-0.1535717124176866
 30
0.0
 10
1.580572543181432
 20
-0.1445033376190395
 30
0.0
 10
1.580708821614585
 20
-0.1398943300600406
 30
0.0
  0
SPLINE
  5
146
330
1F
100
AcDbEntity
  8
0
  6
Continuous
 62
     7
370
    25
100
AcDbSpline
210
0.0
220
0.0
230
1.0
 70
     8
 71
     3
 72
    23
 73
    19
 74
     0
 42
0.00000001
 43
0.00000001
 40
0.0
 40
0.0
 40
0.0
 40
0.0
 40
0.0786237837773019
 40
0.154044437353504
 40
0.2266841178128322
 40
0.2961520886713221
 40
0.3637132794110171
 40
0.4296806299498502
 40
0.494818234495495
 40
0.5585941101101396
 40
0.6202380700947919
 40
0.6791036297170995
 40
0.7350166311762933
 40
0.7889521018817253
 40
0.8410368162580223
 40
0.8936877733976407
 40
0.9463290748308837
 40
1.0
 40
1.0
 40
1.0
 40
1.0
 10
1.312170381899235
 20
0.3425645616319444
 30
0.0
 10
1.306143399196001
 20
0.3424617593276016
 30
0.0
 10
1.294334972854059
 20
0.3422603428811993
 30
0.0
 10
1.277008102787861
 20
0.3406813029052026
 30
0.0
 10
1.260572418422967
 20
0.3378113865934989
 30
0.0
 10
1.244904710334936
 20
0.3341525058119154
 30
0.0
 10
1.230154915821195
 20
0.3291340778871762
 30
0.0
 10
1.216129061066044
 20
0.3231498018100742
 30
0.0
 10
1.20305632649308
 20
0.3158775768666366
 30
0.0
 10
1.190871650919629
 20
0.3077847897137312
 30
0.0
 10
1.179946031541248
 20
0.2988047905967017
 30
0.0
 10
1.170201975265802
 20
0.2893838800635076
 30
0.0
 10
1.162179102134582
 20
0.2792082990810304
 30
0.0
 10
1.1553525697167
 20
0.268806778566904
 30
0.0
 10
1.150229080531606
 20
0.2577350613697967
 30
0.0
 10
1.146429020041628
 20
0.2462549327906231
 30
0.0
 10
1.144288617752609
 20
0.2342101768235392
 30
0.0
 10
1.143940609197291
 20
0.226062919881622
 30
0.0
 10
1.143764919704862
 20
0.2219498387089481
 30
0.0
  0
SPLINE
  5
147
330
1F
100
AcDbEntity
  8
0
  6
Continuous
 62
     7
370
    25
100
AcDbSpline
210
0.0
220
0.0
230
1.0
 70
     8
 71
     3
 72
    15
 73
    11
 74
     0
 42
0.00000001
 43
0.00000001
 40
0.0
 40
0.0
 40
0.0
 40
0.0
 40
0.1692919077716821
 40
0.3249802575389869
 40
0.4672749623037353
 40
0.5977798613079005
 40
0.7169978142982744
 40
0.8229860176481864
 40
0.9167208675353112
 40
1.0
 40
1.0
 40
1.0
 40
1.0
 10
-2.597968843248156
 20
-0.2657298900462964
 30
0.0
 10
-2.593551308524939
 20
-0.2657005600499023
 30
0.0
 10
-2.585071212866885
 20
-0.2656442568874699
 30
0.0
 10
-2.572876516429153
 20
-0.2653202160863367
 30
0.0
 10
-2.561731041416768
 20
-0.2644093457900054
 30
0.0
 10
-2.551526857907427
 20
-0.2636126086318288
 30
0.0
 10
-2.542351101742717
 20
-0.2621828022756519
 30
0.0
 10
-2.534135704687555
 20
-0.2608292360050607
 30
0.0
 10
-2.526977740374219
 20
-0.2589523879882202
 30
0.0
 10
-2.52263600245988
 20
-0.2573709197645808
 30
0.0
 10
-2.520593360618308
 20
-0.2566268920898438
 30
0.0
  0
SPLINE
  5
148
330
1F
100
AcDbEntity
  8
0
  6
Continuous
 62
     7
370
    25
100
AcDbSpline
210
0.0
220
0.0
230
1.0
 70
     8
 71
     3
 72
    15
 73
    11
 74
     0
 42
0.00000001
 43
0.00000001
 40
0.0
 40
0.0
 40
0.0
 40
0.0
 40
0.1011454352674515
 40
0.2079085347075781
 40
0.3209491191502685
 40
0.4408208338836373
 40
0.5681473856305405
 40
0.7032063973506747
 40
0.8469179206431084
 40
1.0
 40
1.0
 40
1.0
 40
1.0
 10
-1.342022860491718
 20
0.274425944575557
 30
0.0
 10
-1.345851716904015
 20
0.270119000540589
 30
0.0
 10
-1.353722086181495
 20
0.2612659028104742
 30
0.0
 10
-1.364295176414026
 20
0.2463066172267743
 30
0.0
 10
-1.373879748004172
 20
0.2294815249275158
 30
0.0
 10
-1.382696878878387
 20
0.2109436228659285
 30
0.0
 10
-1.390754790692451
 20
0.1907017180211756
 30
0.0
 10
-1.397719948507239
 20
0.1686403187859727
 30
0.0
 10
-1.404285424922085
 20
0.1449273590258218
 30
0.0
 10
-1.407632101736316
 20
0.1283560839037433
 30
0.0
 10
-1.409358271846065
 20
0.1198088469328703
 30
0.0
  0
SPLINE
  5
149
330
1F
100
AcDbEntity
  8
0
  6
Continuous
 62
     7
370
    25
100
AcDbSpline
210
0.0
220
0.0
230
1.0
 70
     8
 71
     3
 72
    23
 73
    19
 74
     0
 42
0.00000001
 43
0.00000001
 40
0.0
 40
0.0
 40
0.0
 40
0.0
 40
0.0807364751134731
 40
0.1556200347098159
 40
0.2258732630439418
 40
0.2910886397744026
 40
0.3527373702047528
 40
0.4110437225316581
 40
0.4677042731430026
 40
0.5222287942454926
 40
0.5767323702711927
 40
0.6317097309285085
 40
0.687139174341476
 40
0.7446313528309285
 40
0.8043446779791212
 40
0.8665177067170928
 40
0.9314221979805911
 40
0.9999999999999999
 40
0.9999999999999999
 40
0.9999999999999999
 40
0.9999999999999999
 10
0.6382807978877313
 20
-0.1200819227430557
 30
0.0
 10
0.6379017738561448
 20
-0.1137857325984268
 30
0.0
 10
0.6371712027868922
 20
-0.1016497887456682
 30
0.0
 10
0.6350236706462572
 20
-0.0841065626336779
 30
0.0
 10
0.6313181096540305
 20
-0.0680784414864454
 30
0.0
 10
0.6268857963984261
 20
-0.0533028345198747
 30
0.0
 10
0.6210366333593696
 20
-0.040044852590517
 30
0.0
 10
0.6144157617614884
 20
-0.027899287516155
 30
0.0
 10
0.6063234803557515
 20
-0.0173607290659742
 30
0.0
 10
0.5972490797080062
 20
-0.0080774082000227
 30
0.0
 10
0.5870737859191562
 20
-0.0002490840522908
 30
0.0
 10
0.5762729927309767
 20
0.0068166919001818
 30
0.0
 10
0.5644400472733074
 20
0.0125356498534419
 30
0.0
 10
0.5518565887438137
 20
0.0174499843653622
 30
0.0
 10
0.5382580773127698
 20
0.0209383223815545
 30
0.0
 10
0.5239125450175627
 20
0.0236534024639546
 30
0.0
 10
0.5086893927994643
 20
0.0252782011949713
 30
0.0
 10
0.4982591847442199
 20
0.0254683525083097
 30
0.0
 10
0.4929005658185037
 20
0.0255660445601851
 30
0.0
  0
SPLINE
  5
14A
330
1F
100
AcDbEntity
  8
0
  6
Continuous
 62
     7
370
    25
100
AcDbSpline
210
0.0
220
0.0
230
1.0
 70
     8
 71
     3
 72
    15
 73
    11
 74
     0
 42
0.00000001
 43
0.00000001
 40
0.0
 40
0.0
 40
0.0
 40
0.0
 40
0.1011454352674515
 40
0.2079085347075781
 40
0.3209491191502685
 40
0.4408208338836373
 40
0.5681473856305405
 40
0.7032063973506747
 40
0.8469179206431084
 40
1.0
 40
1.0
 40
1.0
 40
1.0
 10
-2.138802916915329
 20
0.2744259445755569
 30
0.0
 10
-2.142631773327626
 20
0.2701190005405889
 30
0.0
 10
-2.150502142605107
 20
0.2612659028104741
 30
0.0
 10
-2.161075232837637
 20
0.2463066172267743
 30
0.0
 10
-2.170659804427784
 20
0.2294815249275157
 30
0.0
 10
-2.179476935301999
 20
0.2109436228659284
 30
0.0
 10
-2.187534847116062
 20
0.1907017180211756
 30
0.0
 10
-2.194500004930851
 20
0.1686403187859726
 30
0.0
 10
-2.201065481345696
 20
0.1449273590258217
 30
0.0
 10
-2.204412158159928
 20
0.1283560839037433
 30
0.0
 10
-2.206138328269676
 20
0.1198088469328702
 30
0.0
  0
SPLINE
  5
14B
330
1F
100
AcDbEntity
  8
0
  6
Continuous
 62
     7
370
    25
100
AcDbSpline
210
0.0
220
0.0
230
1.0
 70
     8
 71
     3
 72
    11
 73
     7
 74
     0
 42
0.00000001
 43
0.00000001
 40
0.0
 40
0.0
 40
0.0
 40
0.0
 40
0.338327706928637
 40
0.6144982712458192
 40
0.8285883177598553
 40
1.0
 40
1.0
 40
1.0
 40
1.0
 10
3.028620967158565
 20
-0.2174036803068939
 30
0.0
 10
3.028713110839341
 20
-0.2219728237945834
 30
0.0
 10
3.028880469679256
 20
-0.2302716734505815
 30
0.0
 10
3.030853865273946
 20
-0.2412263678398467
 30
0.0
 10
3.033691229413879
 20
-0.2499240618114753
 30
0.0
 10
3.037409381143253
 20
-0.2536371896357131
 30
0.0
 10
3.039062641285084
 20
-0.2552882159197773
 30
0.0
  0
SPLINE
  5
14C
330
1F
100
AcDbEntity
  8
0
  6
Continuous
 62
     7
370
    25
100
AcDbSpline
210
0.0
220
0.0
230
1.0
 70
     8
 71
     3
 72
    15
 73
    11
 74
     0
 42
0.00000001
 43
0.00000001
 40
0.0
 40
0.0
 40
0.0
 40
0.0
 40
0.1333265464557205
 40
0.2593638432525092
 40
0.3817502746950891
 40
0.5012619819144366
 40
0.6209839356572513
 40
0.7426145750305871
 40
0.8678734935693962
 40
1.0
 40
1.0
 40
1.0
 40
1.0
 10
3.971048990885416
 20
0.1844669059470847
 30
0.0
 10
3.970859853009808
 20
0.1778030712452097
 30
0.0
 10
3.970491917833908
 20
0.1648397280474487
 30
0.0
 10
3.967145715213066
 20
0.1460112780475267
 30
0.0
 10
3.961915428427278
 20
0.1283349831590028
 30
0.0
 10
3.954064880167912
 20
0.1120103727674582
 30
0.0
 10
3.944481665974761
 20
0.0966780753983542
 30
0.0
 10
3.932333625749329
 20
0.0829052842470443
 30
0.0
 10
3.918342076912078
 20
0.0700668602420746
 30
0.0
 10
3.90761421837904
 20
0.0629526832113538
 30
0.0
 10
3.902107168126989
 20
0.0593006840458622
 30
0.0
  0
SPLINE
  5
14D
330
1F
100
AcDbEntity
  8
0
  6
Continuous
 62
     7
370
    25
100
AcDbSpline
210
0.0
220
0.0
230
1.0
 70
     8
 71
     3
 72
    23
 73
    19
 74
     0
 42
0.00000001
 43
0.00000001
 40
0.0
 40
0.0
 40
0.0
 40
0.0
 40
0.0728186387588152
 40
0.1419646894117556
 40
0.2077491354817264
 40
0.2706372770243126
 40
0.3309985364545447
 40
0.389802710867991
 40
0.4468134031677635
 40
0.5031600951906079
 40
0.5595300546266018
 40
0.616286014942438
 40
0.6742535761381985
 40
0.7340824119323585
 40
0.7958523547308926
 40
0.8606729328647934
 40
0.9284823503744255
 40
1.0
 40
1.0
 40
1.0
 40
1.0
 10
0.6148539649115665
 20
-0.2657298900462964
 30
0.0
 10
0.6238300783357058
 20
-0.2655979139662175
 30
0.0
 10
0.6413295973613674
 20
-0.2653406179835195
 30
0.0
 10
0.6668216273982448
 20
-0.262698799334877
 30
0.0
 10
0.6908834730523669
 20
-0.2586600145603004
 30
0.0
 10
0.7134425230603986
 20
-0.25273459115954
 30
0.0
 10
0.7346249753700249
 20
-0.2452564066673479
 30
0.0
 10
0.7543130467405634
 20
-0.2360265115141283
 30
0.0
 10
0.7725754082911003
 20
-0.2251452049983116
 30
0.0
 10
0.7892198743064164
 20
-0.2124238184089886
 30
0.0
 10
0.804624862466541
 20
-0.1982611820199411
 30
0.0
 10
0.8182698481780316
 20
-0.1821323084057314
 30
0.0
 10
0.8306857555151353
 20
-0.1645341557999823
 30
0.0
 10
0.8415295436117136
 20
-0.1451977396468163
 30
0.0
 10
0.8507474618154454
 20
-0.1241244767878824
 30
0.0
 10
0.8586217049106902
 20
-0.1014806126385394
 30
0.0
 10
0.86511641908759
 20
-0.0771426531516245
 30
0.0
 10
0.8680818577299624
 20
-0.0602254385389101
 30
0.0
 10
0.8696040400752312
 20
-0.0515417028356482
 30
0.0
  0
SPLINE
  5
14E
330
1F
100
AcDbEntity
  8
0
  6
Continuous
 62
     7
370
    25
100
AcDbSpline
210
0.0
220
0.0
230
1.0
 70
     8
 71
     3
 72
    15
 73
    11
 74
     0
 42
0.00000001
 43
0.00000001
 40
0.0
 40
0.0
 40
0.0
 40
0.0
 40
0.1314288389222654
 40
0.2588888453879084
 40
0.3827718652191912
 40
0.5041388158952332
 40
0.6257449658739725
 40
0.7474985351697536
 40
0.8723852799862247
 40
1.0
 40
1.0
 40
1.0
 40
1.0
 10
-1.997304845739294
 20
0.3339970341435184
 30
0.0
 10
-2.004230723700842
 20
0.3338216153906303
 30
0.0
 10
-2.017873334892311
 20
0.3334760751061162
 30
0.0
 10
-2.037882673189039
 20
0.3306083997458884
 30
0.0
 10
-2.056967823728532
 20
0.3258967647932007
 30
0.0
 10
-2.075244005852026
 20
0.3194911054019252
 30
0.0
 10
-2.092510715621065
 20
0.3109715027869264
 30
0.0
 10
-2.109017580617217
 20
0.3007281502733463
 30
0.0
 10
-2.124583090350236
 20
0.2885419210790369
 30
0.0
 10
-2.134028957641552
 20
0.2791650387289717
 30
0.0
 10
-2.138802916915329
 20
0.2744259445755569
 30
0.0
  0
SPLINE
  5
14F
330
1F
100
AcDbEntity
  8
0
  6
Continuous
 62
     7
370
    25
100
AcDbSpline
210
0.0
220
0.0
230
1.0
 70
     8
 71
     3
 72
    15
 73
    11
 74
     0
 42
0.00000001
 43
0.00000001
 40
0.0
 40
0.0
 40
0.0
 40
0.0
 40
0.1566625799317297
 40
0.2915929304394718
 40
0.4122783048247458
 40
0.5207617058034895
 40
0.6258733000611634
 40
0.737121635700113
 40
0.8592321510848493
 40
1.0
 40
1.0
 40
1.0
 40
1.0
 10
-0.3464493928132231
 20
0.3339970341435186
 30
0.0
 10
-0.349938678572774
 20
0.3339237737872215
 30
0.0
 10
-0.3564332164529208
 20
0.3337874157495394
 30
0.0
 10
-0.3654874831087853
 20
0.3320483101565185
 30
0.0
 10
-0.3731054005634347
 20
0.3291478692662014
 30
0.0
 10
-0.3793747456659993
 20
0.3250413482048591
 30
0.0
 10
-0.3843408728246731
 20
0.3196372059659814
 30
0.0
 10
-0.3874292297134429
 20
0.3126809427625515
 30
0.0
 10
-0.3895380910840552
 20
0.3045810807900671
 30
0.0
 10
-0.389723315516563
 20
0.29871710740057
 30
0.0
 10
-0.3898225007233794
 20
0.2955770280626085
 30
0.0
  0
SPLINE
  5
153
330
1F
100
AcDbEntity
  8
0
  6
Continuous
 62
     7
370
    25
100
AcDbSpline
210
0.0
220
0.0
230
1.0
 70
     8
 71
     3
 72
    23
 73
    19
 74
     0
 42
0.00000001
 43
0.00000001
 40
0.0
 40
0.0
 40
0.0
 40
0.0
 40
0.0609988351307541
 40
0.119163281996867
 40
0.1751859409535113
 40
0.2301140851632301
 40
0.2846629233739121
 40
0.3395008897779027
 40
0.3951300078739183
 40
0.4533276512594588
 40
0.5130242972745895
 40
0.5739241050418672
 40
0.6370871088685726
 40
0.7026599499973837
 40
0.7713085916106447
 40
0.8434452433826621
 40
0.9198720792007563
 40
1.0
 40
1.0
 40
1.0
 40
1.0
 10
-3.3370519567419
 20
-0.1210189960621022
 30
0.0
 10
-3.337199448640894
 20
-0.1154771167042618
 30
0.0
 10
-3.337487579040669
 20
-0.1046508684440225
 30
0.0
 10
-3.339935031189282
 20
-0.0888810099935988
 30
0.0
 10
-3.344009083347717
 20
-0.0740497020844548
 30
0.0
 10
-3.349431521141382
 20
-0.0599903571647194
 30
0.0
 10
-3.35675544764448
 20
-0.0469325220967093
 30
0.0
 10
-3.365661581805038
 20
-0.0348415855657543
 30
0.0
 10
-3.376094331862781
 20
-0.0235764240433917
 30
0.0
 10
-3.388141443550836
 20
-0.0133717579179588
 30
0.0
 10
-3.40150053618033
 20
-0.0040847482664604
 30
0.0
 10
-3.416259847184533
 20
0.0037621672434786
 30
0.0
 10
-3.432059809734632
 20
0.0106697358097635
 30
0.0
 10
-3.449174594221649
 20
0.0160964282113791
 30
0.0
 10
-3.46743712616178
 20
0.020364548906388
 30
0.0
 10
-3.48693821957679
 20
0.0234624586938656
 30
0.0
 10
-3.507659475318544
 20
0.0251254887001009
 30
0.0
 10
-3.521875788041723
 20
0.0254168962344615
 30
0.0
 10
-3.529151987146451
 20
0.0255660445601851
 30
0.0
  0
SPLINE
  5
154
330
1F
100
AcDbEntity
  8
0
  6
Continuous
 62
     7
370
    25
100
AcDbSpline
210
0.0
220
0.0
230
1.0
 70
     8
 71
     3
 72
    15
 73
    11
 74
     0
 42
0.00000001
 43
0.00000001
 40
0.0
 40
0.0
 40
0.0
 40
0.0
 40
0.1035209209155405
 40
0.1977172823716536
 40
0.2884555774196091
 40
0.3848005409129965
 40
0.4952858428979249
 40
0.6337492340822087
 40
0.8003266976015245
 40
1.0
 40
1.0
 40
1.0
 40
1.0
 10
-3.705455638744215
 20
-0.2298533686885128
 30
0.0
 10
-3.705351730224123
 20
-0.2326946976789329
 30
0.0
 10
-3.705153272656066
 20
-0.2381214253523469
 30
0.0
 10
-3.702248125215386
 20
-0.2455579260174014
 30
0.0
 10
-3.698018684935072
 20
-0.2520402785803058
 30
0.0
 10
-3.691665951281287
 20
-0.2572936825268223
 30
0.0
 10
-3.683011862193072
 20
-0.2612101029678479
 30
0.0
 10
-3.671937740278652
 20
-0.2638058666040781
 30
0.0
 10
-3.658254354292999
 20
-0.2655446451530215
 30
0.0
 10
-3.64825633404254
 20
-0.2656645306426883
 30
0.0
 10
-3.6428055939851
 20
-0.2657298900462964
 30
0.0
  0
SPLINE
  5
155
330
1F
100
AcDbEntity
  8
0
  6
Continuous
 62
     7
370
    25
100
AcDbSpline
210
0.0
220
0.0
230
1.0
 70
     8
 71
     3
 72
    23
 73
    19
 74
     0
 42
0.00000001
 43
0.00000001
 40
0.0
 40
0.0
 40
0.0
 40
0.0
 40
0.0877214512717854
 40
0.1699593614249403
 40
0.2469833606315043
 40
0.3180941387940656
 40
0.3845505286595386
 40
0.4467489789396056
 40
0.5047468329654027
 40
0.5594259270676921
 40
0.6117105990574231
 40
0.6634158920066602
 40
0.714721910309188
 40
0.7670320890922024
 40
0.8208939155299444
 40
0.8772725975638526
 40
0.936754128437698
 40
1.0
 40
1.0
 40
1.0
 40
1.0
 10
-3.538924323187936
 20
-0.2657298900462964
 30
0.0
 10
-3.530622116525211
 20
-0.2656306869019385
 30
0.0
 10
-3.51453668106607
 20
-0.2654384818845573
 30
0.0
 10
-3.491200988489157
 20
-0.2638616202313952
 30
0.0
 10
-3.469562845753166
 20
-0.2610870548182261
 30
0.0
 10
-3.449610569131209
 20
-0.2572216938034769
 30
0.0
 10
-3.431336768534436
 20
-0.2523015398556355
 30
0.0
 10
-3.414696146648168
 20
-0.2463170525755011
 30
0.0
 10
-3.399680277846074
 20
-0.2392709555106137
 30
0.0
 10
-3.386470660768075
 20
-0.2308851375663913
 30
0.0
 10
-3.374730997908328
 20
-0.2214527911341223
 30
0.0
 10
-3.364708097540124
 20
-0.2106473532236901
 30
0.0
 10
-3.355964845194567
 20
-0.1987807931423532
 30
0.0
 10
-3.349006486241793
 20
-0.1855388571198486
 30
0.0
 10
-3.343670247656718
 20
-0.1710747774996099
 30
0.0
 10
-3.339776722297221
 20
-0.1554606270582874
 30
0.0
 10
-3.337515547823818
 20
-0.138621641506241
 30
0.0
 10
-3.337209614997809
 20
-0.1270053113480611
 30
0.0
 10
-3.3370519567419
 20
-0.1210189960621022
 30
0.0
  0
SPLINE
  5
158
330
1F
100
AcDbEntity
  8
0
  6
Continuous
 62
     7
370
    25
100
AcDbSpline
210
0.0
220
0.0
230
1.0
 70
     8
 71
     3
 72
    19
 73
    15
 74
     0
 42
0.00000001
 43
0.00000001
 40
0.0
 40
0.0
 40
0.0
 40
0.0
 40
0.135542487296648
 40
0.2588045381499369
 40
0.3675511986671832
 40
0.4630860645107144
 40
0.5453463968679537
 40
0.6145874665557881
 40
0.6700093086271095
 40
0.7143224379863573
 40
0.7854672435267953
 40
0.8523016735570977
 40
0.9221920615712406
 40
1.0
 40
1.0
 40
1.0
 40
1.0
 10
-3.604519455521197
 20
0.3339970341435185
 30
0.0
 10
-3.609919351269354
 20
0.3339796622271707
 30
0.0
 10
-3.620229900773297
 20
0.3339464923268919
 30
0.0
 10
-3.634863992350244
 20
0.3334760962769458
 30
0.0
 10
-3.647909931791675
 20
0.3330771309234813
 30
0.0
 10
-3.659282601822399
 20
0.3320601604028923
 30
0.0
 10
-3.66907442919048
 20
0.3310677704695086
 30
0.0
 10
-3.677223664247125
 20
0.3297853284963171
 30
0.0
 10
-3.683777973219705
 20
0.3282095968017567
 30
0.0
 10
-3.690194312490362
 20
0.3258780793041108
 30
0.0
 10
-3.696363664412615
 20
0.3218331366741422
 30
0.0
 10
-3.701750981710564
 20
0.3153846107492936
 30
0.0
 10
-3.70490735880934
 20
0.3072594821213088
 30
0.0
 10
-3.705266462042456
 20
0.30136147102154
 30
0.0
 10
-3.705455638744215
 20
0.2982543804027415
 30
0.0
  0
SPLINE
  5
159
330
1F
100
AcDbEntity
  8
0
  6
Continuous
 62
     7
370
    25
100
AcDbSpline
210
0.0
220
0.0
230
1.0
 70
     8
 71
     3
 72
    23
 73
    19
 74
     0
 42
0.00000001
 43
0.00000001
 40
0.0
 40
0.0
 40
0.0
 40
0.0
 40
0.0713099000791436
 40
0.1396550724998719
 40
0.2042812908748683
 40
0.2666201829753563
 40
0.3260472803988543
 40
0.384054158421955
 40
0.4406489699843881
 40
0.4963898336503841
 40
0.551818582745634
 40
0.607478307835355
 40
0.6647160445826557
 40
0.7239293261529548
 40
0.7864270437136581
 40
0.8526157401581695
 40
0.9238151551451537
 40
0.9999999999999999
 40
0.9999999999999999
 40
0.9999999999999999
 40
0.9999999999999999
 10
-3.547491850676362
 20
0.0598361545138888
 30
0.0
 10
-3.541598099946694
 20
0.0599357609648897
 30
0.0
 10
-3.530055632708141
 20
0.0601308327027625
 30
0.0
 10
-3.513232000052687
 20
0.0617438574798006
 30
0.0
 10
-3.497304415204998
 20
0.0644247916390222
 30
0.0
 10
-3.482329295724076
 20
0.0681120257924622
 30
0.0
 10
-3.468275204794278
 20
0.0729867219967285
 30
0.0
 10
-3.455121806935048
 20
0.0788496381539606
 30
0.0
 10
-3.442874268463215
 20
0.0858408476252777
 30
0.0
 10
-3.431567420843001
 20
0.0938930910367505
 30
0.0
 10
-3.421218826388581
 20
0.1030834914469507
 30
0.0
 10
-3.412537946130745
 20
0.1140140233931616
 30
0.0
 10
-3.4049269710659
 20
0.1260745868641291
 30
0.0
 10
-3.3989861305671
 20
0.1396604889463634
 30
0.0
 10
-3.394086751689285
 20
0.1544233254264138
 30
0.0
 10
-3.390838445766166
 20
0.1706513666325983
 30
0.0
 10
-3.388805046438991
 20
0.1882074567206986
 30
0.0
 10
-3.388575682751794
 20
0.20039106464055
 30
0.0
 10
-3.388457121672455
 20
0.2066889303701895
 30
0.0
  0
SPLINE
  5
15A
330
1F
100
AcDbEntity
  8
0
  6
Continuous
 62
     7
370
    25
100
AcDbSpline
210
0.0
220
0.0
230
1.0
 70
     8
 71
     3
 72
    23
 73
    19
 74
     0
 42
0.00000001
 43
0.00000001
 40
0.0
 40
0.0
 40
0.0
 40
0.0
 40
0.0793930812152648
 40
0.1501182506710245
 40
0.2149446393327229
 40
0.2750383550421732
 40
0.3340898937327619
 40
0.3948236789090798
 40
0.4585251826868548
 40
0.5270425605416648
 40
0.565498695408788
 40
0.6094941284613435
 40
0.6591811552699101
 40
0.7151260000248387
 40
0.7774070570034373
 40
0.8451550836948111
 40
0.9193505106684011
 40
1.0
 40
1.0
 40
1.0
 40
1.0
 10
-3.388457121672455
 20
0.2066889303701895
 30
0.0
 10
-3.388711655223603
 20
0.2143336346529637
 30
0.0
 10
-3.389192933073641
 20
0.228788416055335
 30
0.0
 10
-3.392825920895598
 20
0.2492664412348202
 30
0.0
 10
-3.399411730653614
 20
0.2670151415503563
 30
0.0
 10
-3.40851697687573
 20
0.2823519334605853
 30
0.0
 10
-3.420411815576453
 20
0.2950780204376034
 30
0.0
 10
-3.434340163272074
 20
0.3060483844143081
 30
0.0
 10
-3.450671844501267
 20
0.3150609265450831
 30
0.0
 10
-3.466083360559355
 20
0.3208995352539686
 30
0.0
 10
-3.480106758210863
 20
0.3247549086911115
 30
0.0
 10
-3.492592837956115
 20
0.3272378675374507
 30
0.0
 10
-3.506844665101357
 20
0.3293614575644513
 30
0.0
 10
-3.52292445780738
 20
0.3310631701408575
 30
0.0
 10
-3.540783371395573
 20
0.3323797640290353
 30
0.0
 10
-3.560426475436124
 20
0.3332484055769599
 30
0.0
 10
-3.581845495215062
 20
0.3340082499492121
 30
0.0
 10
-3.59675433127177
 20
0.3340008752071701
 30
0.0
 10
-3.604519455521197
 20
0.3339970341435186
 30
0.0
  0
SPLINE
  5
15D
330
1F
100
AcDbEntity
  8
0
  6
Continuous
 62
     7
370
    25
100
AcDbSpline
210
0.0
220
0.0
230
1.0
 70
     8
 71
     3
 72
    27
 73
    23
 74
     0
 42
0.00000001
 43
0.00000001
 40
0.0
 40
0.0
 40
0.0
 40
0.0
 40
0.0447834780308298
 40
0.0874834521573256
 40
0.1274341907931743
 40
0.1651073511462756
 40
0.2004497252901433
 40
0.2344297473650472
 40
0.2663074926848892
 40
0.2971737518041016
 40
0.3576606437235569
 40
0.4193196854214764
 40
0.483867200101553
 40
0.5528041044335733
 40
0.5910198539265921
 40
0.633823653902006
 40
0.6819100961569613
 40
0.7349552688532912
 40
0.7929927644281326
 40
0.8565405335780487
 40
0.9256771642435436
 40
1.0
 40
1.0
 40
1.0
 40
1.0
 10
3.833968551070601
 20
0.1864749202021846
 30
0.0
 10
3.833866746288302
 20
0.1910715657363788
 30
0.0
 10
3.83366787308342
 20
0.2000510027376323
 30
0.0
 10
3.832843494465753
 20
0.2131223067981282
 30
0.0
 10
3.830996961909424
 20
0.2253443277210696
 30
0.0
 10
3.828865496373697
 20
0.2367563015982415
 30
0.0
 10
3.82570355743065
 20
0.2472967728612212
 30
0.0
 10
3.821991697242506
 20
0.257006296420952
 30
0.0
 10
3.817737901155402
 20
0.2660051423843336
 30
0.0
 10
3.810868257053456
 20
0.2766562314911649
 30
0.0
 10
3.800818024023176
 20
0.2888291177433437
 30
0.0
 10
3.786103728587594
 20
0.3012651053637303
 30
0.0
 10
3.768861399352963
 20
0.3116163867941232
 30
0.0
 10
3.752554623822325
 20
0.3184590917202314
 30
0.0
 10
3.737843334911731
 20
0.3230428451064804
 30
0.0
 10
3.724889380497246
 20
0.3259117151277687
 30
0.0
 10
3.710322511700624
 20
0.3284168711176539
 30
0.0
 10
3.694116380490072
 20
0.3305617533650809
 30
0.0
 10
3.676251071334878
 20
0.3321437411125759
 30
0.0
 10
3.656692577026045
 20
0.3331499975703609
 30
0.0
 10
3.63544758428087
 20
0.3338303473901401
 30
0.0
 10
3.62071801307531
 20
0.3339401487489285
 30
0.0
 10
3.61308698300962
 20
0.3339970341435185
 30
0.0
  0
SPLINE
  5
15E
330
1F
100
AcDbEntity
  8
0
  6
Continuous
 62
     7
370
    25
100
AcDbSpline
210
0.0
220
0.0
230
1.0
 70
     8
 71
     3
 72
    23
 73
    19
 74
     0
 42
0.00000001
 43
0.00000001
 40
0.0
 40
0.0
 40
0.0
 40
0.0
 40
0.0890012385938667
 40
0.1713528876633497
 40
0.2481029763467104
 40
0.3187148131530947
 40
0.3843520565510334
 40
0.4447038002643916
 40
0.5004216497093098
 40
0.552570132384004
 40
0.603054950627296
 40
0.6528503822466872
 40
0.7038542907659514
 40
0.756511396098131
 40
0.8119238270214033
 40
0.8703774111785607
 40
0.9328650170108054
 40
1.0
 40
1.0
 40
1.0
 40
1.0
 10
3.630489773220486
 20
0.0341335720486111
 30
0.0
 10
3.639195409907883
 20
0.0342085121880336
 30
0.0
 10
3.655956255137695
 20
0.034352793430574
 30
0.0
 10
3.680156099840998
 20
0.0362289568796228
 30
0.0
 10
3.702495729382861
 20
0.0387097855223184
 30
0.0
 10
3.7229612969419
 20
0.0426651237997008
 30
0.0
 10
3.741607518023743
 20
0.0474513087686459
 30
0.0
 10
3.758270912242112
 20
0.0536919710938404
 30
0.0
 10
3.773189246431778
 20
0.0606954710509792
 30
0.0
 10
3.786246180349416
 20
0.0691079793846879
 30
0.0
 10
3.797632327886572
 20
0.0788066035988133
 30
0.0
 10
3.807378631973554
 20
0.0899956272051536
 30
0.0
 10
3.815770087396227
 20
0.1024930802549843
 30
0.0
 10
3.822448313865183
 20
0.1165983435197573
 30
0.0
 10
3.827633003683771
 20
0.1320659845041401
 30
0.0
 10
3.831402836474136
 20
0.1489269442104145
 30
0.0
 10
3.833471795219881
 20
0.1672357362372442
 30
0.0
 10
3.833799054693507
 20
0.1799103835679585
 30
0.0
 10
3.833968551070601
 20
0.1864749202021846
 30
0.0
  0
SPLINE
  5
15F
330
1F
100
AcDbEntity
  8
0
  6
Continuous
 62
     7
370
    25
100
AcDbSpline
210
0.0
220
0.0
230
1.0
 70
     8
 71
     3
 72
    19
 73
    15
 74
     0
 42
0.00000001
 43
0.00000001
 40
0.0
 40
0.0
 40
0.0
 40
0.0
 40
0.1260441956149624
 40
0.2397546485047521
 40
0.3412609462961449
 40
0.4316329073906963
 40
0.5100932732222787
 40
0.5767459062838698
 40
0.6322656950569738
 40
0.6776299937040248
 40
0.753930034487251
 40
0.8298056511809062
 40
0.9095229999783238
 40
1.0
 40
1.0
 40
1.0
 40
1.0
 10
3.61308698300962
 20
0.3339970341435185
 30
0.0
 10
3.608089393360743
 20
0.3339678013169163
 30
0.0
 10
3.598583240825978
 20
0.3339121961695901
 30
0.0
 10
3.585050332665765
 20
0.3335952777152142
 30
0.0
 10
3.57296667224449
 20
0.3326890081989666
 30
0.0
 10
3.562270331087251
 20
0.3318992113532685
 30
0.0
 10
3.553034098758469
 20
0.3305144969798209
 30
0.0
 10
3.54520195297895
 20
0.3290393428147728
 30
0.0
 10
3.538878977600671
 20
0.3269722598401349
 30
0.0
 10
3.532348586031318
 20
0.3243293158582307
 30
0.0
 10
3.526012144232613
 20
0.3194620331169874
 30
0.0
 10
3.520648253331161
 20
0.3118459121506451
 30
0.0
 10
3.517502282333667
 20
0.3024535411415049
 30
0.0
 10
3.517154773260811
 20
0.2956913289422646
 30
0.0
 10
3.516970033998842
 20
0.2920964700204354
 30
0.0
  0
LINE
  5
163
330
1F
100
AcDbEntity
  8
0
  6
Continuous
 62
     7
370
    25
100
AcDbLine
 10
-3.8254010236
 20
-0.2390902343
 30
0.0
 11
-3.8254010236
 21
0.2955770281
 31
0.0
  0
LINE
  5
164
330
1F
100
AcDbEntity
  8
0
  6
Continuous
 62
     7
370
    25
100
AcDbLine
 10
-3.9624814634
 20
-0.26572989
 30
0.0
 11
-3.8891220093
 21
-0.26572989
 31
0.0
  0
LINE
  5
165
330
1F
100
AcDbEntity
  8
0
  6
Continuous
 62
     7
370
    25
100
AcDbLine
 10
-3.9624814634
 20
-0.3
 30
0.0
 11
-3.9624814634
 21
-0.26572989
 31
0.0
  0
LINE
  5
166
330
1F
100
AcDbEntity
  8
0
  6
Continuous
 62
     7
370
    25
100
AcDbLine
 10
-3.5255375615
 20
-0.3
 30
0.0
 11
-3.9624814634
 21
-0.3
 31
0.0
  0
LINE
  5
167
330
1F
100
AcDbEntity
  8
0
  6
Continuous
 62
     7
370
    25
100
AcDbLine
 10
-3.9624814634
 20
0.3682671441
 30
0.0
 11
-3.5146942845
 21
0.3682671441
 31
0.0
  0
LINE
  5
168
330
1F
100
AcDbEntity
  8
0
  6
Continuous
 62
     7
370
    25
100
AcDbLine
 10
-3.9624814634
 20
0.3339970341
 30
0.0
 11
-3.9624814634
 21
0.3682671441
 31
0.0
  0
LINE
  5
169
330
1F
100
AcDbEntity
  8
0
  6
Continuous
 62
     7
370
    25
100
AcDbLine
 10
-3.8843027751
 20
0.3339970341
 30
0.0
 11
-3.9624814634
 21
0.3339970341
 31
0.0
  0
LINE
  5
16A
330
1F
100
AcDbEntity
  8
0
  6
Continuous
 62
     7
370
    25
100
AcDbLine
 10
-1.9405449761
 20
-0.2378854257
 30
0.0
 11
-1.9405449761
 21
0.299459189
 31
0.0
  0
LINE
  5
16B
330
1F
100
AcDbEntity
  8
0
  6
Continuous
 62
     7
370
    25
100
AcDbLine
 10
-2.0776254159
 20
-0.26572989
 30
0.0
 11
-1.9805713936
 21
-0.26572989
 31
0.0
  0
LINE
  5
16C
330
1F
100
AcDbEntity
  8
0
  6
Continuous
 62
     7
370
    25
100
AcDbLine
 10
-2.0776254159
 20
-0.3
 30
0.0
 11
-2.0776254159
 21
-0.26572989
 31
0.0
  0
LINE
  5
16D
330
1F
100
AcDbEntity
  8
0
  6
Continuous
 62
     7
370
    25
100
AcDbLine
 10
-1.6835191515
 20
-0.3
 30
0.0
 11
-2.0776254159
 21
-0.3
 31
0.0
  0
LINE
  5
16E
330
1F
100
AcDbEntity
  8
0
  6
Continuous
 62
     7
370
    25
100
AcDbLine
 10
-1.6835191515
 20
-0.26572989
 30
0.0
 11
-1.6835191515
 21
-0.3
 31
0.0
  0
LINE
  5
16F
330
1F
100
AcDbEntity
  8
0
  6
Continuous
 62
     7
370
    25
100
AcDbLine
 10
-1.7689266911
 20
-0.26572989
 30
0.0
 11
-1.6835191515
 21
-0.26572989
 31
0.0
  0
LINE
  5
170
330
1F
100
AcDbEntity
  8
0
  6
Continuous
 62
     7
370
    25
100
AcDbLine
 10
-1.8205995913
 20
0.2954431604
 30
0.0
 11
-1.8205995913
 21
-0.2344048677
 31
0.0
  0
LINE
  5
171
330
1F
100
AcDbEntity
  8
0
  6
Continuous
 62
     7
370
    25
100
AcDbLine
 10
-1.5121686017
 20
0.1198088469
 30
0.0
 11
-1.5550062391
 21
0.1198088469
 31
0.0
  0
LINE
  5
172
330
1F
100
AcDbEntity
  8
0
  6
Continuous
 62
     7
370
    25
100
AcDbLine
 10
-1.5301068624
 20
0.3682671441
 30
0.0
 11
-1.5121686017
 21
0.1198088469
 31
0.0
  0
LINE
  5
173
330
1F
100
AcDbEntity
  8
0
  6
Continuous
 62
     7
370
    25
100
AcDbLine
 10
-2.2302344993
 20
0.3682671441
 30
0.0
 11
-1.5301068624
 21
0.3682671441
 31
0.0
  0
LINE
  5
174
330
1F
100
AcDbEntity
  8
0
  6
Continuous
 62
     7
370
    25
100
AcDbLine
 10
-2.2489759657
 20
0.1198088469
 30
0.0
 11
-2.2302344993
 21
0.3682671441
 31
0.0
  0
LINE
  5
175
330
1F
100
AcDbEntity
  8
0
  6
Continuous
 62
     7
370
    25
100
AcDbLine
 10
-2.2061383283
 20
0.1198088469
 30
0.0
 11
-2.2489759657
 21
0.1198088469
 31
0.0
  0
LINE
  5
176
330
1F
100
AcDbEntity
  8
0
  6
Continuous
 62
     7
370
    25
100
AcDbLine
 10
-1.1437649197
 20
-0.2378854257
 30
0.0
 11
-1.1437649197
 21
0.299459189
 31
0.0
  0
LINE
  5
177
330
1F
100
AcDbEntity
  8
0
  6
Continuous
 62
     7
370
    25
100
AcDbLine
 10
-1.2808453595
 20
-0.26572989
 30
0.0
 11
-1.1837913372
 21
-0.26572989
 31
0.0
  0
LINE
  5
178
330
1F
100
AcDbEntity
  8
0
  6
Continuous
 62
     7
370
    25
100
AcDbLine
 10
-1.2808453595
 20
-0.3
 30
0.0
 11
-1.2808453595
 21
-0.26572989
 31
0.0
  0
LINE
  5
179
330
1F
100
AcDbEntity
  8
0
  6
Continuous
 62
     7
370
    25
100
AcDbLine
 10
-0.8867390951
 20
-0.3
 30
0.0
 11
-1.2808453595
 21
-0.3
 31
0.0
  0
LINE
  5
17A
330
1F
100
AcDbEntity
  8
0
  6
Continuous
 62
     7
370
    25
100
AcDbLine
 10
-0.8867390951
 20
-0.26572989
 30
0.0
 11
-0.8867390951
 21
-0.3
 31
0.0
  0
LINE
  5
17B
330
1F
100
AcDbEntity
  8
0
  6
Continuous
 62
     7
370
    25
100
AcDbLine
 10
-0.9721466347
 20
-0.26572989
 30
0.0
 11
-0.8867390951
 21
-0.26572989
 31
0.0
  0
LINE
  5
17C
330
1F
100
AcDbEntity
  8
0
  6
Continuous
 62
     7
370
    25
100
AcDbLine
 10
-1.0238195349
 20
0.2954431604
 30
0.0
 11
-1.0238195349
 21
-0.2344048677
 31
0.0
  0
LINE
  5
17D
330
1F
100
AcDbEntity
  8
0
  6
Continuous
 62
     7
370
    25
100
AcDbLine
 10
-0.7153885453
 20
0.1198088469
 30
0.0
 11
-0.7582261827
 21
0.1198088469
 31
0.0
  0
LINE
  5
17E
330
1F
100
AcDbEntity
  8
0
  6
Continuous
 62
     7
370
    25
100
AcDbLine
 10
-0.733326806
 20
0.3682671441
 30
0.0
 11
-0.7153885453
 21
0.1198088469
 31
0.0
  0
LINE
  5
17F
330
1F
100
AcDbEntity
  8
0
  6
Continuous
 62
     7
370
    25
100
AcDbLine
 10
-1.4334544429
 20
0.3682671441
 30
0.0
 11
-0.733326806
 21
0.3682671441
 31
0.0
  0
LINE
  5
180
330
1F
100
AcDbEntity
  8
0
  6
Continuous
 62
     7
370
    25
100
AcDbLine
 10
-1.4521959093
 20
0.1198088469
 30
0.0
 11
-1.4334544429
 21
0.3682671441
 31
0.0
  0
LINE
  5
181
330
1F
100
AcDbEntity
  8
0
  6
Continuous
 62
     7
370
    25
100
AcDbLine
 10
-1.4093582718
 20
0.1198088469
 30
0.0
 11
-1.4521959093
 21
0.1198088469
 31
0.0
  0
LINE
  5
182
330
1F
100
AcDbEntity
  8
0
  6
Continuous
 62
     7
370
    25
100
AcDbLine
 10
-0.6468483254
 20
-0.26572989
 30
0.0
 11
-0.5756307531
 21
-0.26572989
 31
0.0
  0
LINE
  5
183
330
1F
100
AcDbEntity
  8
0
  6
Continuous
 62
     7
370
    25
100
AcDbLine
 10
-0.6468483254
 20
-0.3
 30
0.0
 11
-0.6468483254
 21
-0.26572989
 31
0.0
  0
LINE
  5
184
330
1F
100
AcDbEntity
  8
0
  6
Continuous
 62
     7
370
    25
100
AcDbLine
 10
0.0813915111
 20
-0.3
 30
0.0
 11
-0.6468483254
 21
-0.3
 31
0.0
  0
LINE
  5
185
330
1F
100
AcDbEntity
  8
0
  6
Continuous
 62
     7
370
    25
100
AcDbLine
 10
0.0985265661
 20
-0.0515417028
 30
0.0
 11
0.0813915111
 21
-0.3
 31
0.0
  0
LINE
  5
186
330
1F
100
AcDbEntity
  8
0
  6
Continuous
 62
     7
370
    25
100
AcDbLine
 10
0.0556889287
 20
-0.0515417028
 30
0.0
 11
0.0985265661
 21
-0.0515417028
 31
0.0
  0
LINE
  5
187
330
1F
100
AcDbEntity
  8
0
  6
Continuous
 62
     7
370
    25
100
AcDbLine
 10
-0.319809737
 20
-0.26572989
 30
0.0
 11
-0.1963837941
 21
-0.26572989
 31
0.0
  0
LINE
  5
188
330
1F
100
AcDbEntity
  8
0
  6
Continuous
 62
     7
370
    25
100
AcDbLine
 10
-0.3898225007
 20
0.2955770281
 30
0.0
 11
-0.3898225007
 21
-0.2309243096
 31
0.0
  0
LINE
  5
189
330
1F
100
AcDbEntity
  8
0
  6
Continuous
 62
     7
370
    25
100
AcDbLine
 10
-0.2527420609
 20
0.3339970341
 30
0.0
 11
-0.3464493928
 21
0.3339970341
 31
0.0
  0
LINE
  5
18A
330
1F
100
AcDbEntity
  8
0
  6
Continuous
 62
     7
370
    25
100
AcDbLine
 10
-0.2527420609
 20
0.3682671441
 30
0.0
 11
-0.2527420609
 21
0.3339970341
 31
0.0
  0
LINE
  5
18B
330
1F
100
AcDbEntity
  8
0
  6
Continuous
 62
     7
370
    25
100
AcDbLine
 10
-0.6468483254
 20
0.3682671441
 30
0.0
 11
-0.2527420609
 21
0.3682671441
 31
0.0
  0
LINE
  5
18C
330
1F
100
AcDbEntity
  8
0
  6
Continuous
 62
     7
370
    25
100
AcDbLine
 10
-0.6468483254
 20
0.3339970341
 30
0.0
 11
-0.6468483254
 21
0.3682671441
 31
0.0
  0
LINE
  5
18D
330
1F
100
AcDbEntity
  8
0
  6
Continuous
 62
     7
370
    25
100
AcDbLine
 10
-0.5586295658
 20
0.3339970341
 30
0.0
 11
-0.6468483254
 21
0.3339970341
 31
0.0
  0
LINE
  5
18E
330
1F
100
AcDbEntity
  8
0
  6
Continuous
 62
     7
370
    25
100
AcDbLine
 10
0.3041472258
 20
-0.2295856335
 30
0.0
 11
0.3041472258
 21
0.2991914537
 31
0.0
  0
LINE
  5
18F
330
1F
100
AcDbEntity
  8
0
  6
Continuous
 62
     7
370
    25
100
AcDbLine
 10
0.184201841
 20
-0.26572989
 30
0.0
 11
0.2424342544
 21
-0.26572989
 31
0.0
  0
LINE
  5
190
330
1F
100
AcDbEntity
  8
0
  6
Continuous
 62
     7
370
    25
100
AcDbLine
 10
0.184201841
 20
-0.3
 30
0.0
 11
0.184201841
 21
-0.26572989
 31
0.0
  0
LINE
  5
191
330
1F
100
AcDbEntity
  8
0
  6
Continuous
 62
     7
370
    25
100
AcDbLine
 10
0.8953066225
 20
-0.3
 30
0.0
 11
0.184201841
 21
-0.3
 31
0.0
  0
LINE
  5
192
330
1F
100
AcDbEntity
  8
0
  6
Continuous
 62
     7
370
    25
100
AcDbLine
 10
0.9124416775
 20
-0.0515417028
 30
0.0
 11
0.8953066225
 21
-0.3
 31
0.0
  0
LINE
  5
193
330
1F
100
AcDbEntity
  8
0
  6
Continuous
 62
     7
370
    25
100
AcDbLine
 10
0.8696040401
 20
-0.0515417028
 30
0.0
 11
0.9124416775
 21
-0.0515417028
 31
0.0
  0
LINE
  5
194
330
1F
100
AcDbEntity
  8
0
  6
Continuous
 62
     7
370
    25
100
AcDbLine
 10
0.4240926107
 20
0.0255660446
 30
0.0
 11
0.4240926107
 21
-0.2362790143
 31
0.0
  0
LINE
  5
195
330
1F
100
AcDbEntity
  8
0
  6
Continuous
 62
     7
370
    25
100
AcDbLine
 10
0.4929005658
 20
0.0255660446
 30
0.0
 11
0.4240926107
 21
0.0255660446
 31
0.0
  0
LINE
  5
196
330
1F
100
AcDbEntity
  8
0
  6
Continuous
 62
     7
370
    25
100
AcDbLine
 10
0.6811184353
 20
-0.1200819227
 30
0.0
 11
0.6382807979
 21
-0.1200819227
 31
0.0
  0
LINE
  5
197
330
1F
100
AcDbEntity
  8
0
  6
Continuous
 62
     7
370
    25
100
AcDbLine
 10
0.6811184353
 20
0.2054841218
 30
0.0
 11
0.6811184353
 21
-0.1200819227
 31
0.0
  0
LINE
  5
198
330
1F
100
AcDbEntity
  8
0
  6
Continuous
 62
     7
370
    25
100
AcDbLine
 10
0.6382807979
 20
0.2054841218
 30
0.0
 11
0.6811184353
 21
0.2054841218
 31
0.0
  0
LINE
  5
199
330
1F
100
AcDbEntity
  8
0
  6
Continuous
 62
     7
370
    25
100
AcDbLine
 10
0.4240926107
 20
0.0598361545
 30
0.0
 11
0.4994600791
 21
0.0598361545
 31
0.0
  0
LINE
  5
19A
330
1F
100
AcDbEntity
  8
0
  6
Continuous
 62
     7
370
    25
100
AcDbLine
 10
0.4240926107
 20
0.2990575861
 30
0.0
 11
0.4240926107
 21
0.0598361545
 31
0.0
  0
LINE
  5
19B
330
1F
100
AcDbEntity
  8
0
  6
Continuous
 62
     7
370
    25
100
AcDbLine
 10
0.6366743865
 20
0.3339970341
 30
0.0
 11
0.4658593072
 21
0.3339970341
 31
0.0
  0
LINE
  5
19C
330
1F
100
AcDbEntity
  8
0
  6
Continuous
 62
     7
370
    25
100
AcDbLine
 10
0.8867390951
 20
0.1455114294
 30
0.0
 11
0.8439014576
 21
0.1455114294
 31
0.0
  0
LINE
  5
19D
330
1F
100
AcDbEntity
  8
0
  6
Continuous
 62
     7
370
    25
100
AcDbLine
 10
0.8696040401
 20
0.3682671441
 30
0.0
 11
0.8867390951
 21
0.1455114294
 31
0.0
  0
LINE
  5
19E
330
1F
100
AcDbEntity
  8
0
  6
Continuous
 62
     7
370
    25
100
AcDbLine
 10
0.184201841
 20
0.3682671441
 30
0.0
 11
0.8696040401
 21
0.3682671441
 31
0.0
  0
LINE
  5
19F
330
1F
100
AcDbEntity
  8
0
  6
Continuous
 62
     7
370
    25
100
AcDbLine
 10
0.184201841
 20
0.3339970341
 30
0.0
 11
0.184201841
 21
0.3682671441
 31
0.0
  0
LINE
  5
1A0
330
1F
100
AcDbEntity
  8
0
  6
Continuous
 62
     7
370
    25
100
AcDbLine
 10
1.0409545898
 20
-0.0429741753
 30
0.0
 11
1.0837922273
 21
-0.0429741753
 31
0.0
  0
LINE
  5
1A1
330
1F
100
AcDbEntity
  8
0
  6
Continuous
 62
     7
370
    25
100
AcDbLine
 10
1.0409545898
 20
-0.3
 30
0.0
 11
1.0409545898
 21
-0.0429741753
 31
0.0
  0
LINE
  5
1A2
330
1F
100
AcDbEntity
  8
0
  6
Continuous
 62
     7
370
    25
100
AcDbLine
 10
1.0837922273
 20
-0.3
 30
0.0
 11
1.0409545898
 21
-0.3
 31
0.0
  0
LINE
  5
1A3
330
1F
100
AcDbEntity
  8
0
  6
Continuous
 62
     7
370
    25
100
AcDbLine
 10
1.6149789316
 20
0.3682671441
 30
0.0
 11
1.6149789316
 21
0.1283763744
 31
0.0
  0
LINE
  5
1A4
330
1F
100
AcDbEntity
  8
0
  6
Continuous
 62
     7
370
    25
100
AcDbLine
 10
1.5721412941
 20
0.3682671441
 30
0.0
 11
1.6149789316
 21
0.3682671441
 31
0.0
  0
LINE
  5
1A5
330
1F
100
AcDbEntity
  8
0
  6
Continuous
 62
     7
370
    25
100
AcDbLine
 10
1.5197990559
 20
0.3082944517
 30
0.0
 11
1.5721412941
 21
0.3682671441
 31
0.0
  0
LINE
  5
1A6
330
1F
100
AcDbEntity
  8
0
  6
Continuous
 62
     7
370
    25
100
AcDbLine
 10
1.9062748662
 20
-0.2048201243
 30
0.0
 11
1.9062748662
 21
0.2771032969
 31
0.0
  0
LINE
  5
1A7
330
1F
100
AcDbEntity
  8
0
  6
Continuous
 62
     7
370
    25
100
AcDbLine
 10
1.7863294813
 20
-0.26572989
 30
0.0
 11
1.8571454507
 21
-0.26572989
 31
0.0
  0
LINE
  5
1A8
330
1F
100
AcDbEntity
  8
0
  6
Continuous
 62
     7
370
    25
100
AcDbLine
 10
1.7863294813
 20
-0.3
 30
0.0
 11
1.7863294813
 21
-0.26572989
 31
0.0
  0
LINE
  5
1A9
330
1F
100
AcDbEntity
  8
0
  6
Continuous
 62
     7
370
    25
100
AcDbLine
 10
2.1633006908
 20
-0.3
 30
0.0
 11
1.7863294813
 21
-0.3
 31
0.0
  0
LINE
  5
1AA
330
1F
100
AcDbEntity
  8
0
  6
Continuous
 62
     7
370
    25
100
AcDbLine
 10
2.0890041634
 20
-0.26572989
 30
0.0
 11
2.1633006908
 21
-0.26572989
 31
0.0
  0
LINE
  5
1AB
330
1F
100
AcDbEntity
  8
0
  6
Continuous
 62
     7
370
    25
100
AcDbLine
 10
2.428894043
 20
0.0255660446
 30
0.0
 11
2.026220251
 21
0.0255660446
 31
0.0
  0
LINE
  5
1AC
330
1F
100
AcDbEntity
  8
0
  6
Continuous
 62
     7
370
    25
100
AcDbLine
 10
2.3089486581
 20
-0.26572989
 30
0.0
 11
2.3711971
 21
-0.26572989
 31
0.0
  0
LINE
  5
1AD
330
1F
100
AcDbEntity
  8
0
  6
Continuous
 62
     7
370
    25
100
AcDbLine
 10
2.6687848126
 20
-0.3
 30
0.0
 11
2.3089486581
 21
-0.3
 31
0.0
  0
LINE
  5
1AE
330
1F
100
AcDbEntity
  8
0
  6
Continuous
 62
     7
370
    25
100
AcDbLine
 10
2.6687848126
 20
-0.26572989
 30
0.0
 11
2.6687848126
 21
-0.3
 31
0.0
  0
LINE
  5
1AF
330
1F
100
AcDbEntity
  8
0
  6
Continuous
 62
     7
370
    25
100
AcDbLine
 10
2.6687848126
 20
0.3339970341
 30
0.0
 11
2.6030558127
 21
0.3339970341
 31
0.0
  0
LINE
  5
1B0
330
1F
100
AcDbEntity
  8
0
  6
Continuous
 62
     7
370
    25
100
AcDbLine
 10
2.3089486581
 20
0.3682671441
 30
0.0
 11
2.6687848126
 21
0.3682671441
 31
0.0
  0
LINE
  5
1B1
330
1F
100
AcDbEntity
  8
0
  6
Continuous
 62
     7
370
    25
100
AcDbLine
 10
2.3711971
 20
0.3339970341
 30
0.0
 11
2.3089486581
 21
0.3339970341
 31
0.0
  0
LINE
  5
1B2
330
1F
100
AcDbEntity
  8
0
  6
Continuous
 62
     7
370
    25
100
AcDbLine
 10
2.428894043
 20
0.068403682
 30
0.0
 11
2.428894043
 21
0.2764339588
 31
0.0
  0
LINE
  5
1B3
330
1F
100
AcDbEntity
  8
0
  6
Continuous
 62
     7
370
    25
100
AcDbLine
 10
2.026220251
 20
0.068403682
 30
0.0
 11
2.428894043
 21
0.068403682
 31
0.0
  0
LINE
  5
1B4
330
1F
100
AcDbEntity
  8
0
  6
Continuous
 62
     7
370
    25
100
AcDbLine
 10
2.026220251
 20
0.2764339588
 30
0.0
 11
2.026220251
 21
0.068403682
 31
0.0
  0
LINE
  5
1B5
330
1F
100
AcDbEntity
  8
0
  6
Continuous
 62
     7
370
    25
100
AcDbLine
 10
2.1633006908
 20
0.3339970341
 30
0.0
 11
2.0890041634
 21
0.3339970341
 31
0.0
  0
LINE
  5
1B6
330
1F
100
AcDbEntity
  8
0
  6
Continuous
 62
     7
370
    25
100
AcDbLine
 10
2.1633006908
 20
0.3682671441
 30
0.0
 11
2.1633006908
 21
0.3339970341
 31
0.0
  0
LINE
  5
1B7
330
1F
100
AcDbEntity
  8
0
  6
Continuous
 62
     7
370
    25
100
AcDbLine
 10
1.7863294813
 20
0.3682671441
 30
0.0
 11
2.1633006908
 21
0.3682671441
 31
0.0
  0
LINE
  5
1B8
330
1F
100
AcDbEntity
  8
0
  6
Continuous
 62
     7
370
    25
100
AcDbLine
 10
1.7863294813
 20
0.3339970341
 30
0.0
 11
1.7863294813
 21
0.3682671441
 31
0.0
  0
LINE
  5
1B9
330
1F
100
AcDbEntity
  8
0
  6
Continuous
 62
     7
370
    25
100
AcDbLine
 10
1.848310188
 20
0.3339970341
 30
0.0
 11
1.7863294813
 21
0.3339970341
 31
0.0
  0
LINE
  5
1BA
330
1F
100
AcDbEntity
  8
0
  6
Continuous
 62
     7
370
    25
100
AcDbLine
 10
2.9086755823
 20
-0.2174036803
 30
0.0
 11
2.9086755823
 21
0.2879465739
 31
0.0
  0
LINE
  5
1BB
330
1F
100
AcDbEntity
  8
0
  6
Continuous
 62
     7
370
    25
100
AcDbLine
 10
2.7715951425
 20
-0.26572989
 30
0.0
 11
2.8461594052
 21
-0.26572989
 31
0.0
  0
LINE
  5
1BC
330
1F
100
AcDbEntity
  8
0
  6
Continuous
 62
     7
370
    25
100
AcDbLine
 10
3.165701407
 20
-0.3
 30
0.0
 11
2.7715951425
 21
-0.3
 31
0.0
  0
LINE
  5
1BD
330
1F
100
AcDbEntity
  8
0
  6
Continuous
 62
     7
370
    25
100
AcDbLine
 10
3.0896646005
 20
-0.26572989
 30
0.0
 11
3.165701407
 21
-0.26572989
 31
0.0
  0
LINE
  5
1BE
330
1F
100
AcDbEntity
  8
0
  6
Continuous
 62
     7
370
    25
100
AcDbLine
 10
3.165701407
 20
0.3682671441
 30
0.0
 11
3.165701407
 21
0.3339970341
 31
0.0
  0
LINE
  5
1BF
330
1F
100
AcDbEntity
  8
0
  6
Continuous
 62
     7
370
    25
100
AcDbLine
 10
2.7715951425
 20
0.3339970341
 30
0.0
 11
2.7715951425
 21
0.3682671441
 31
0.0
  0
LINE
  5
1C0
330
1F
100
AcDbEntity
  8
0
  6
Continuous
 62
     7
370
    25
100
AcDbLine
 10
3.2599442093
 20
-0.3
 30
0.0
 11
3.2599442093
 21
-0.26572989
 31
0.0
  0
LINE
  5
1C1
330
1F
100
AcDbEntity
  8
0
  6
Continuous
 62
     7
370
    25
100
AcDbLine
 10
3.516970034
 20
-0.0001365379
 30
0.0
 11
3.516970034
 21
-0.2266405459
 31
0.0
  0
LINE
  5
1C2
330
1F
100
AcDbEntity
  8
0
  6
Continuous
 62
     7
370
    25
100
AcDbLine
 10
3.6685081765
 20
-0.0001365379
 30
0.0
 11
3.516970034
 21
-0.0001365379
 31
0.0
  0
LINE
  5
1C3
330
1F
100
AcDbEntity
  8
0
  6
Continuous
 62
     7
370
    25
100
AcDbLine
 10
3.2599442093
 20
0.3339970341
 30
0.0
 11
3.2599442093
 21
0.3682671441
 31
0.0
  0
LINE
  5
1C4
330
1F
100
AcDbEntity
  8
0
  6
Continuous
 62
     7
370
    25
100
AcDbLine
 10
-4.25
 20
-1.0
 30
0.0
 11
4.25
 21
-1.0
 31
0.0
  0
LINE
  5
1C5
330
1F
100
AcDbEntity
  8
0
  6
Continuous
 62
     7
370
    25
100
AcDbLine
 10
-4.25
 20
1.0
 30
0.0
 11
-4.25
 21
-1.0
 31
0.0
  0
LINE
  5
1C6
330
1F
100
AcDbEntity
  8
0
  6
Continuous
 62
     7
370
    25
100
AcDbLine
 10
4.25
 20
1.0
 30
0.0
 11
-4.25
 21
1.0
 31
0.0
  0
LINE
  5
1C7
330
1F
100
AcDbEntity
  8
0
  6
Continuous
 62
     7
370
    25
100
AcDbLine
 10
4.25
 20
-1.0
 30
0.0
 11
4.25
 21
1.0
 31
0.0
  0
LINE
  5
1C8
330
1F
100
AcDbEntity
  8
0
  6
Continuous
 62
     7
370
    25
100
AcDbLine
 10
-3.1571338795
 20
-0.3
 30
0.0
 11
-3.1571338795
 21
-0.26572989
 31
0.0
  0
LINE
  5
1C9
330
1F
100
AcDbEntity
  8
0
  6
Continuous
 62
     7
370
    25
100
AcDbLine
 10
-2.8401353624
 20
-0.3
 30
0.0
 11
-3.1571338795
 21
-0.3
 31
0.0
  0
LINE
  5
1CA
330
1F
100
AcDbEntity
  8
0
  6
Continuous
 62
     7
370
    25
100
AcDbLine
 10
-2.8401353624
 20
-0.26572989
 30
0.0
 11
-2.8401353624
 21
-0.3
 31
0.0
  0
LINE
  5
1CB
330
1F
100
AcDbEntity
  8
0
  6
Continuous
 62
     7
370
    25
100
AcDbLine
 10
-2.8697201058
 20
-0.26572989
 30
0.0
 11
-2.8401353624
 21
-0.26572989
 31
0.0
  0
LINE
  5
1CC
330
1F
100
AcDbEntity
  8
0
  6
Continuous
 62
     7
370
    25
100
AcDbLine
 10
-2.9173769774
 20
-0.0772442853
 30
0.0
 11
-2.9590098063
 21
-0.1594390021
 31
0.0
  0
LINE
  5
1CD
330
1F
100
AcDbEntity
  8
0
  6
Continuous
 62
     7
370
    25
100
AcDbLine
 10
-2.5820385968
 20
-0.0772442853
 30
0.0
 11
-2.9173769774
 21
-0.0772442853
 31
0.0
  0
LINE
  5
1CE
330
1F
100
AcDbEntity
  8
0
  6
Continuous
 62
     7
370
    25
100
AcDbLine
 10
-2.5092146132
 20
-0.2204826355
 30
0.0
 11
-2.5820385968
 21
-0.0772442853
 31
0.0
  0
LINE
  5
1CF
330
1F
100
AcDbEntity
  8
0
  6
Continuous
 62
     7
370
    25
100
AcDbLine
 10
-2.6259471752
 20
-0.26572989
 30
0.0
 11
-2.5979688432
 21
-0.26572989
 31
0.0
  0
LINE
  5
1D0
330
1F
100
AcDbEntity
  8
0
  6
Continuous
 62
     7
370
    25
100
AcDbLine
 10
-2.6259471752
 20
-0.3
 30
0.0
 11
-2.6259471752
 21
-0.26572989
 31
0.0
  0
LINE
  5
1D1
330
1F
100
AcDbEntity
  8
0
  6
Continuous
 62
     7
370
    25
100
AcDbLine
 10
-2.2746785482
 20
-0.3
 30
0.0
 11
-2.6259471752
 21
-0.3
 31
0.0
  0
LINE
  5
1D2
330
1F
100
AcDbEntity
  8
0
  6
Continuous
 62
     7
370
    25
100
AcDbLine
 10
-2.2746785482
 20
-0.26572989
 30
0.0
 11
-2.2746785482
 21
-0.3
 31
0.0
  0
LINE
  5
1D3
330
1F
100
AcDbEntity
  8
0
  6
Continuous
 62
     7
370
    25
100
AcDbLine
 10
-2.3011843363
 20
-0.26572989
 30
0.0
 11
-2.2746785482
 21
-0.26572989
 31
0.0
  0
LINE
  5
1D4
330
1F
100
AcDbEntity
  8
0
  6
Continuous
 62
     7
370
    25
100
AcDbLine
 10
-2.684045721
 20
0.3768346716
 30
0.0
 11
-2.3764179371
 21
-0.2282469573
 31
0.0
  0
LINE
  5
1D5
330
1F
100
AcDbEntity
  8
0
  6
Continuous
 62
     7
370
    25
100
AcDbLine
 10
-2.7338444745
 20
0.3768346716
 30
0.0
 11
-2.684045721
 21
0.3768346716
 31
0.0
  0
LINE
  5
1D6
330
1F
100
AcDbEntity
  8
0
  6
Continuous
 62
     7
370
    25
100
AcDbLine
 10
-3.0172422197
 20
-0.1835351732
 30
0.0
 11
-2.7338444745
 21
0.3768346716
 31
0.0
  0
LINE
  5
1D7
330
1F
100
AcDbEntity
  8
0
  6
Continuous
 62
     7
370
    25
100
AcDbLine
 10
2.1633006908
 20
-0.26572989
 30
0.0
 11
2.1633006908
 21
-0.3
 31
0.0
  0
LINE
  5
1D8
330
1F
100
AcDbEntity
  8
0
  6
Continuous
 62
     7
370
    25
100
AcDbLine
 10
3.6711855288
 20
-0.26572989
 30
0.0
 11
3.6711855288
 21
-0.3
 31
0.0
  0
LINE
  5
1D9
330
1F
100
AcDbEntity
  8
0
  6
Continuous
 62
     7
370
    25
100
AcDbLine
 10
2.8386628186
 20
0.3339970341
 30
0.0
 11
2.7715951425
 21
0.3339970341
 31
0.0
  0
LINE
  5
1DA
330
1F
100
AcDbEntity
  8
0
  6
Continuous
 62
     7
370
    25
100
AcDbLine
 10
2.026220251
 20
0.0255660446
 30
0.0
 11
2.026220251
 21
-0.2087022852
 31
0.0
  0
LINE
  5
1DB
330
1F
100
AcDbEntity
  8
0
  6
Continuous
 62
     7
370
    25
100
AcDbLine
 10
2.428894043
 20
-0.2050878595
 30
0.0
 11
2.428894043
 21
0.0255660446
 31
0.0
  0
LINE
  5
1DC
330
1F
100
AcDbEntity
  8
0
  6
Continuous
 62
     7
370
    25
100
AcDbLine
 10
2.7715951425
 20
-0.3
 30
0.0
 11
2.7715951425
 21
-0.26572989
 31
0.0
  0
LINE
  5
1DD
330
1F
100
AcDbEntity
  8
0
  6
Continuous
 62
     7
370
    25
100
AcDbLine
 10
3.165701407
 20
-0.26572989
 30
0.0
 11
3.165701407
 21
-0.3
 31
0.0
  0
LINE
  5
1DE
330
1F
100
AcDbEntity
  8
0
  6
Continuous
 62
     7
370
    25
100
AcDbLine
 10
2.6687848126
 20
0.3682671441
 30
0.0
 11
2.6687848126
 21
0.3339970341
 31
0.0
  0
LINE
  5
1DF
330
1F
100
AcDbEntity
  8
0
  6
Continuous
 62
     7
370
    25
100
AcDbLine
 10
3.2599442093
 20
-0.26572989
 30
0.0
 11
3.3469581604
 21
-0.26572989
 31
0.0
  0
LINE
  5
1E0
330
1F
100
AcDbEntity
  8
0
  6
Continuous
 62
     7
370
    25
100
AcDbLine
 10
3.165701407
 20
0.3339970341
 30
0.0
 11
3.0976966575
 21
0.3339970341
 31
0.0
  0
LINE
  5
1E1
330
1F
100
AcDbEntity
  8
0
  6
Continuous
 62
     7
370
    25
100
AcDbLine
 10
1.6149789316
 20
0.1283763744
 30
0.0
 11
1.5721412941
 21
0.1283763744
 31
0.0
  0
LINE
  5
1E2
330
1F
100
AcDbEntity
  8
0
  6
Continuous
 62
     7
370
    25
100
AcDbLine
 10
3.6711855288
 20
-0.3
 30
0.0
 11
3.2599442093
 21
-0.3
 31
0.0
  0
LINE
  5
1E3
330
1F
100
AcDbEntity
  8
0
  6
Continuous
 62
     7
370
    25
100
AcDbLine
 10
2.3089486581
 20
0.3339970341
 30
0.0
 11
2.3089486581
 21
0.3682671441
 31
0.0
  0
LINE
  5
1E4
330
1F
100
AcDbEntity
  8
0
  6
Continuous
 62
     7
370
    25
100
AcDbLine
 10
2.5488394278
 20
0.2717485922
 30
0.0
 11
2.5488394278
 21
-0.20843455
 31
0.0
  0
LINE
  5
1E5
330
1F
100
AcDbEntity
  8
0
  6
Continuous
 62
     7
370
    25
100
AcDbLine
 10
3.3240667979
 20
0.3339970341
 30
0.0
 11
3.2599442093
 21
0.3339970341
 31
0.0
  0
LINE
  5
1E6
330
1F
100
AcDbEntity
  8
0
  6
Continuous
 62
     7
370
    25
100
AcDbLine
 10
3.5730605655
 20
-0.26572989
 30
0.0
 11
3.6711855288
 21
-0.26572989
 31
0.0
  0
LINE
  5
1E7
330
1F
100
AcDbEntity
  8
0
  6
Continuous
 62
     7
370
    25
100
AcDbLine
 10
2.3089486581
 20
-0.3
 30
0.0
 11
2.3089486581
 21
-0.26572989
 31
0.0
  0
LINE
  5
1E8
330
1F
100
AcDbEntity
  8
0
  6
Continuous
 62
     7
370
    25
100
AcDbLine
 10
2.7715951425
 20
0.3682671441
 30
0.0
 11
3.165701407
 21
0.3682671441
 31
0.0
  0
LINE
  5
1E9
330
1F
100
AcDbEntity
  8
0
  6
Continuous
 62
     7
370
    25
100
AcDbLine
 10
3.2599442093
 20
0.3682671441
 30
0.0
 11
3.6793514534
 21
0.3682671441
 31
0.0
  0
LINE
  5
1EA
330
1F
100
AcDbEntity
  8
0
  6
Continuous
 62
     7
370
    25
100
AcDbLine
 10
0.4792460689
 20
-0.26572989
 30
0.0
 11
0.6148539649
 21
-0.26572989
 31
0.0
  0
LINE
  5
1EB
330
1F
100
AcDbEntity
  8
0
  6
Continuous
 62
     7
370
    25
100
AcDbLine
 10
1.1500566977
 20
-0.2400273076
 30
0.0
 11
1.0837922273
 21
-0.3
 31
0.0
  0
LINE
  5
1EC
330
1F
100
AcDbEntity
  8
0
  6
Continuous
 62
     7
370
    25
100
AcDbLine
 10
2.6105523992
 20
-0.26572989
 30
0.0
 11
2.6687848126
 21
-0.26572989
 31
0.0
  0
LINE
  5
1ED
330
1F
100
AcDbEntity
  8
0
  6
Continuous
 62
     7
370
    25
100
AcDbLine
 10
0.2539468695
 20
0.3339970341
 30
0.0
 11
0.184201841
 21
0.3339970341
 31
0.0
  0
LINE
  5
1EE
330
1F
100
AcDbEntity
  8
0
  6
Continuous
 62
     7
370
    25
100
AcDbLine
 10
3.3970246492
 20
-0.2364128819
 30
0.0
 11
3.3970246492
 21
0.2955770281
 31
0.0
  0
LINE
  5
1EF
330
1F
100
AcDbEntity
  8
0
  6
Continuous
 62
     7
370
    25
100
AcDbLine
 10
-0.5097678856
 20
-0.221018106
 30
0.0
 11
-0.5097678856
 21
0.300128527
 31
0.0
  0
LINE
  5
1F0
330
1F
100
AcDbEntity
  8
0
  6
Continuous
 62
     7
370
    25
100
AcDbLine
 10
3.0286209672
 20
0.2879465739
 30
0.0
 11
3.0286209672
 21
-0.2174036803
 31
0.0
  0
LINE
  5
1F1
330
1F
100
AcDbEntity
  8
0
  6
Continuous
 62
     7
370
    25
100
AcDbLine
 10
-3.642805594
 20
-0.26572989
 30
0.0
 11
-3.5389243232
 21
-0.26572989
 31
0.0
  0
LINE
  5
1F2
330
1F
100
AcDbEntity
  8
0
  6
Continuous
 62
     7
370
    25
100
AcDbLine
 10
-3.7054556387
 20
0.0255660446
 30
0.0
 11
-3.7054556387
 21
-0.2298533687
 31
0.0
  0
LINE
  5
1F3
330
1F
100
AcDbEntity
  8
0
  6
Continuous
 62
     7
370
    25
100
AcDbLine
 10
-3.5291519871
 20
0.0255660446
 30
0.0
 11
-3.7054556387
 21
0.0255660446
 31
0.0
  0
LINE
  5
1F4
330
1F
100
AcDbEntity
  8
0
  6
Continuous
 62
     7
370
    25
100
AcDbLine
 10
-3.7054556387
 20
0.0598361545
 30
0.0
 11
-3.5474918507
 21
0.0598361545
 31
0.0
  0
LINE
  5
1F5
330
1F
100
AcDbEntity
  8
0
  6
Continuous
 62
     7
370
    25
100
AcDbLine
 10
-3.7054556387
 20
0.2982543804
 30
0.0
 11
-3.7054556387
 21
0.0598361545
 31
0.0
  0
LINE
  5
1F6
330
1F
100
AcDbEntity
  8
0
  6
Continuous
 62
     7
370
    25
100
AcDbLine
 10
3.516970034
 20
0.034133572
 30
0.0
 11
3.6304897732
 21
0.034133572
 31
0.0
  0
LINE
  5
1F7
330
1F
100
AcDbEntity
  8
0
  6
Continuous
 62
     7
370
    25
100
AcDbLine
 10
3.516970034
 20
0.29209647
 30
0.0
 11
3.516970034
 21
0.034133572
 31
0.0
  0
LINE
  5
1F8
330
1F
100
AcDbEntity
  8
0
  6
Continuous
 62
     7
370
    25
100
AcDbLine
 10
-2.7501763238
 20
0.2534087287
 30
0.0
 11
-2.9001080548
 21
-0.0429741753
 31
0.0
  0
LINE
  5
1F9
330
1F
100
AcDbEntity
  8
0
  6
Continuous
 62
     7
370
    25
100
AcDbLine
 10
-2.9001080548
 20
-0.0429741753
 30
0.0
 11
-2.5995752547
 21
-0.0429741753
 31
0.0
  0
LINE
  5
1FA
330
1F
100
AcDbEntity
  8
0
  6
Continuous
 62
     7
370
    25
100
AcDbLine
 10
-2.5995752547
 20
-0.0429741753
 30
0.0
 11
-2.7501763238
 21
0.2534087287
 31
0.0
  0
MTEXT
  5
1FC
330
1F
100
AcDbEntity
  8
0
  6
Continuous
 62
     7
100
AcDbMText
 10
-4.25
 20
-1.0401404091
 30
0.0
 40
0.1903
 41
0.0
 71
     1
 72
     1
  1
SOLIDWORKS Educational Product.
  7
SLDTEXTSTYLE0
 73
     1
 44
1.0
  0
MTEXT
  5
1FD
330
1F
100
AcDbEntity
  8
0
  6
Continuous
 62
     7
100
AcDbMText
 10
-4.25
 20
-1.3255904091
 30
0.0
 40
0.1903
 41
0.0
 71
     1
 72
     1
  1
For Instructional Use Only.
  7
SLDTEXTSTYLE0
 73
     1
 44
1.0
  0
ENDSEC
  0
SECTION
  2
OBJECTS
  0
DICTIONARY
  5
C
330
0
100
AcDbDictionary
281
     1
  3
ACAD_GROUP
350
D
  3
ACAD_LAYOUT
350
1A
  3
ACAD_MLINESTYLE
350
17
  3
ACAD_PLOTSETTINGS
350
19
  3
ACAD_PLOTSTYLENAME
350
E
  3
ACAD_SCALELIST
350
47
  3
DWGPROPS
350
1FE
  0
DICTIONARY
  5
D
102
{ACAD_REACTORS
330
C
102
}
330
C
100
AcDbDictionary
281
     1
  0
DICTIONARY
  5
1A
102
{ACAD_REACTORS
330
C
102
}
330
C
100
AcDbDictionary
281
     1
  3
Layout1
350
1E
  3
Layout2
350
26
  3
Model
350
22
  0
DICTIONARY
  5
17
102
{ACAD_REACTORS
330
C
102
}
330
C
100
AcDbDictionary
281
     1
  3
Standard
350
18
  0
DICTIONARY
  5
19
102
{ACAD_REACTORS
330
C
102
}
330
C
100
AcDbDictionary
281
     1
  0
ACDBDICTIONARYWDFLT
  5
E
102
{ACAD_REACTORS
330
C
102
}
330
C
100
AcDbDictionary
281
     1
  3
Normal
350
F
100
AcDbDictionaryWithDefault
340
F
  0
DICTIONARY
  5
47
102
{ACAD_REACTORS
330
C
102
}
330
C
100
AcDbDictionary
281
     1
  3
A0
350
48
  3
A1
350
49
  3
A2
350
4A
  3
A3
350
4B
  3
A4
350
4C
  3
A5
350
4D
  3
A6
350
4E
  3
A7
350
4F
  3
A8
350
50
  3
A9
350
51
  3
B0
350
52
  3
B1
350
53
  3
B2
350
54
  3
B3
350
55
  3
B4
350
56
  3
B5
350
57
  3
B6
350
58
  3
B7
350
59
  3
B8
350
5A
  3
B9
350
5B
  3
C0
350
5C
  3
C1
350
5D
  3
C2
350
5E
  3
C3
350
5F
  3
C4
350
60
  3
C5
350
61
  3
C6
350
62
  3
C7
350
63
  3
C8
350
64
  3
C9
350
65
  3
D0
350
66
  3
D1
350
67
  3
D2
350
68
  0
XRECORD
  5
1FE
102
{ACAD_REACTORS
330
C
102
}
330
C
100
AcDbXrecord
280
     1
  1
DWGPROPS COOKIE
  2

  3

  4

  6

  7

  8
ldura
  9

300
=
301
=
302
=
303
=
304
=
305
=
306
=
307
=
308
=
309
=
 40
0.0
 41
2459340.830921898
 42
2459340.830950289
  1

 90
        0
  0
LAYOUT
  5
1E
102
{ACAD_REACTORS
330
1A
102
}
330
1A
100
AcDbPlotSettings
  1

  2
none_device
  4

  6

 40
0.0
 41
0.0
 42
0.0
 43
0.0
 44
0.0
 45
0.0
 46
0.0
 47
0.0
 48
0.0
 49
0.0
140
0.0
141
0.0
142
1.0
143
1.0
 70
   688
 72
     0
 73
     0
 74
     5
  7

 75
    16
147
1.0
148
0.0
149
0.0
100
AcDbLayout
  1
Layout1
 70
     1
 71
     1
 10
0.0
 20
0.0
 11
12.0
 21
9.0
 12
0.0
 22
0.0
 32
0.0
 14
1.0000000000E+20
 24
1.0000000000E+20
 34
1.0000000000E+20
 15
-1.0000000000E+20
 25
-1.0000000000E+20
 35
-1.0000000000E+20
146
0.0
 13
0.0
 23
0.0
 33
0.0
 16
1.0
 26
0.0
 36
0.0
 17
0.0
 27
1.0
 37
0.0
 76
     0
330
1B
  0
LAYOUT
  5
26
102
{ACAD_REACTORS
330
1A
102
}
330
1A
100
AcDbPlotSettings
  1

  2
none_device
  4

  6

 40
0.0
 41
0.0
 42
0.0
 43
0.0
 44
0.0
 45
0.0
 46
0.0
 47
0.0
 48
0.0
 49
0.0
140
0.0
141
0.0
142
1.0
143
1.0
 70
   688
 72
     0
 73
     0
 74
     5
  7

 75
    16
147
1.0
148
0.0
149
0.0
100
AcDbLayout
  1
Layout2
 70
     1
 71
     2
 10
0.0
 20
0.0
 11
0.0
 21
0.0
 12
0.0
 22
0.0
 32
0.0
 14
0.0
 24
0.0
 34
0.0
 15
0.0
 25
0.0
 35
0.0
146
0.0
 13
0.0
 23
0.0
 33
0.0
 16
1.0
 26
0.0
 36
0.0
 17
0.0
 27
1.0
 37
0.0
 76
     0
330
23
  0
LAYOUT
  5
22
102
{ACAD_REACTORS
330
1A
102
}
330
1A
100
AcDbPlotSettings
  1

  2
none_device
  4
ANSI_A_(11.00_x_8.50_Inches)
  6

 40
6.35
 41
19.05
 42
6.35000508
 43
19.05000254
 44
279.4
 45
215.9
 46
133.34999746
 47
88.89999873
 48
0.0
 49
0.0
140
0.0
141
0.0
142
1.2811764706
143
1.0
 70
  1696
 72
     0
 73
     0
 74
     0
  7

 75
     0
147
0.5913241897
148
-39.4088153714
149
0.0
100
AcDbLayout
  1
Model
 70
     1
 71
     0
 10
0.0
 20
0.0
 11
12.0
 21
9.0
 12
0.0
 22
0.0
 32
0.0
 14
-4.25
 24
-1.0
 34
0.0
 15
4.25
 25
1.0
 35
0.0
146
0.0
 13
0.0
 23
0.0
 33
0.0
 16
1.0
 26
0.0
 36
0.0
 17
0.0
 27
1.0
 37
0.0
 76
     0
330
1F
331
29
  0
MLINESTYLE
  5
18
102
{ACAD_REACTORS
330
17
102
}
330
17
100
AcDbMlineStyle
  2
Standard
 70
     0
  3

 62
   256
 51
90.0
 52
90.0
 71
     2
 49
0.5
 62
   256
  6
BYLAYER
 49
-0.5
 62
   256
  6
BYLAYER
  0
ACDBPLACEHOLDER
  5
F
102
{ACAD_REACTORS
330
E
102
}
330
E
  0
SCALE
  5
48
102
{ACAD_REACTORS
330
47
102
}
330
47
100
AcDbScale
 70
     0
300
1:1
140
1.0
141
1.0
290
     1
  0
SCALE
  5
49
102
{ACAD_REACTORS
330
47
102
}
330
47
100
AcDbScale
 70
     0
300
1:2
140
1.0
141
2.0
290
     0
  0
SCALE
  5
4A
102
{ACAD_REACTORS
330
47
102
}
330
47
100
AcDbScale
 70
     0
300
1:4
140
1.0
141
4.0
290
     0
  0
SCALE
  5
4B
102
{ACAD_REACTORS
330
47
102
}
330
47
100
AcDbScale
 70
     0
300
1:5
140
1.0
141
5.0
290
     0
  0
SCALE
  5
4C
102
{ACAD_REACTORS
330
47
102
}
330
47
100
AcDbScale
 70
     0
300
1:8
140
1.0
141
8.0
290
     0
  0
SCALE
  5
4D
102
{ACAD_REACTORS
330
47
102
}
330
47
100
AcDbScale
 70
     0
300
1:10
140
1.0
141
10.0
290
     0
  0
SCALE
  5
4E
102
{ACAD_REACTORS
330
47
102
}
330
47
100
AcDbScale
 70
     0
300
1:16
140
1.0
141
16.0
290
     0
  0
SCALE
  5
4F
102
{ACAD_REACTORS
330
47
102
}
330
47
100
AcDbScale
 70
     0
300
1:20
140
1.0
141
20.0
290
     0
  0
SCALE
  5
50
102
{ACAD_REACTORS
330
47
102
}
330
47
100
AcDbScale
 70
     0
300
1:30
140
1.0
141
30.0
290
     0
  0
SCALE
  5
51
102
{ACAD_REACTORS
330
47
102
}
330
47
100
AcDbScale
 70
     0
300
1:40
140
1.0
141
40.0
290
     0
  0
SCALE
  5
52
102
{ACAD_REACTORS
330
47
102
}
330
47
100
AcDbScale
 70
     0
300
1:50
140
1.0
141
50.0
290
     0
  0
SCALE
  5
53
102
{ACAD_REACTORS
330
47
102
}
330
47
100
AcDbScale
 70
     0
300
1:100
140
1.0
141
100.0
290
     0
  0
SCALE
  5
54
102
{ACAD_REACTORS
330
47
102
}
330
47
100
AcDbScale
 70
     0
300
2:1
140
2.0
141
1.0
290
     0
  0
SCALE
  5
55
102
{ACAD_REACTORS
330
47
102
}
330
47
100
AcDbScale
 70
     0
300
4:1
140
4.0
141
1.0
290
     0
  0
SCALE
  5
56
102
{ACAD_REACTORS
330
47
102
}
330
47
100
AcDbScale
 70
     0
300
8:1
140
8.0
141
1.0
290
     0
  0
SCALE
  5
57
102
{ACAD_REACTORS
330
47
102
}
330
47
100
AcDbScale
 70
     0
300
10:1
140
10.0
141
1.0
290
     0
  0
SCALE
  5
58
102
{ACAD_REACTORS
330
47
102
}
330
47
100
AcDbScale
 70
     0
300
100:1
140
100.0
141
1.0
290
     0
  0
SCALE
  5
59
102
{ACAD_REACTORS
330
47
102
}
330
47
100
AcDbScale
 70
     0
300
1/128" = 1'-0"
140
0.0078125
141
12.0
290
     0
  0
SCALE
  5
5A
102
{ACAD_REACTORS
330
47
102
}
330
47
100
AcDbScale
 70
     0
300
1/64" = 1'-0"
140
0.015625
141
12.0
290
     0
  0
SCALE
  5
5B
102
{ACAD_REACTORS
330
47
102
}
330
47
100
AcDbScale
 70
     0
300
1/32" = 1'-0"
140
0.03125
141
12.0
290
     0
  0
SCALE
  5
5C
102
{ACAD_REACTORS
330
47
102
}
330
47
100
AcDbScale
 70
     0
300
1/16" = 1'-0"
140
0.0625
141
12.0
290
     0
  0
SCALE
  5
5D
102
{ACAD_REACTORS
330
47
102
}
330
47
100
AcDbScale
 70
     0
300
3/32" = 1'-0"
140
0.09375
141
12.0
290
     0
  0
SCALE
  5
5E
102
{ACAD_REACTORS
330
47
102
}
330
47
100
AcDbScale
 70
     0
300
1/8" = 1'-0"
140
0.125
141
12.0
290
     0
  0
SCALE
  5
5F
102
{ACAD_REACTORS
330
47
102
}
330
47
100
AcDbScale
 70
     0
300
3/16" = 1'-0"
140
0.1875
141
12.0
290
     0
  0
SCALE
  5
60
102
{ACAD_REACTORS
330
47
102
}
330
47
100
AcDbScale
 70
     0
300
1/4" = 1'-0"
140
0.25
141
12.0
290
     0
  0
SCALE
  5
61
102
{ACAD_REACTORS
330
47
102
}
330
47
100
AcDbScale
 70
     0
300
3/8" = 1'-0"
140
0.375
141
12.0
290
     0
  0
SCALE
  5
62
102
{ACAD_REACTORS
330
47
102
}
330
47
100
AcDbScale
 70
     0
300
1/2" = 1'-0"
140
0.5
141
12.0
290
     0
  0
SCALE
  5
63
102
{ACAD_REACTORS
330
47
102
}
330
47
100
AcDbScale
 70
     0
300
3/4" = 1'-0"
140
0.75
141
12.0
290
     0
  0
SCALE
  5
64
102
{ACAD_REACTORS
330
47
102
}
330
47
100
AcDbScale
 70
     0
300
1" = 1'-0"
140
1.0
141
12.0
290
     0
  0
SCALE
  5
65
102
{ACAD_REACTORS
330
47
102
}
330
47
100
AcDbScale
 70
     0
300
1-1/2" = 1'-0"
140
1.5
141
12.0
290
     0
  0
SCALE
  5
66
102
{ACAD_REACTORS
330
47
102
}
330
47
100
AcDbScale
 70
     0
300
3" = 1'-0"
140
3.0
141
12.0
290
     0
  0
SCALE
  5
67
102
{ACAD_REACTORS
330
47
102
}
330
47
100
AcDbScale
 70
     0
300
6" = 1'-0"
140
6.0
141
12.0
290
     0
  0
SCALE
  5
68
102
{ACAD_REACTORS
330
47
102
}
330
47
100
AcDbScale
 70
     0
300
1'-0" = 1'-0"
140
12.0
141
12.0
290
     0
  0
ENDSEC
  0
EOF
