  0
SECTION
  2
HEADER
  9
$ACADVER
  1
AC1015
  9
$ACADMAINTVER
 70
     6
  9
$DWGCODEPAGE
  3
ANSI_1252
  9
$INSBASE
 10
0.0
 20
0.0
 30
0.0
  9
$EXTMIN
 10
0.0
 20
0.0
 30
0.0
  9
$EXTMAX
 10
44.0
 20
34.0
 30
0.0
  9
$LIMMIN
 10
0.0
 20
0.0
  9
$LIMMAX
 10
44.0
 20
34.0
  9
$ORTHOMODE
 70
     0
  9
$REGENMODE
 70
     1
  9
$FILLMODE
 70
     1
  9
$QTEXTMODE
 70
     0
  9
$MIRRTEXT
 70
     1
  9
$LTSCALE
 40
1.0
  9
$ATTMODE
 70
     1
  9
$TEXTSIZE
 40
0.125
  9
$TRACEWID
 40
0.05
  9
$TEXTSTYLE
  7
Standard
  9
$CLAYER
  8
0
  9
$CELTYPE
  6
ByLayer
  9
$CECOLOR
 62
   256
  9
$CELTSCALE
 40
1.0
  9
$DISPSILH
 70
     0
  9
$DIMSCALE
 40
1.0
  9
$DIMASZ
 40
0.13
  9
$DIMEXO
 40
0.05
  9
$DIMDLI
 40
0.38
  9
$DIMRND
 40
0.0
  9
$DIMDLE
 40
0.0
  9
$DIMEXE
 40
0.125
  9
$DIMTP
 40
0.0
  9
$DIMTM
 40
0.0
  9
$DIMTXT
 40
0.125
  9
$DIMCEN
 40
0.09
  9
$DIMTSZ
 40
0.0
  9
$DIMTOL
 70
     0
  9
$DIMLIM
 70
     0
  9
$DIMTIH
 70
     1
  9
$DIMTOH
 70
     1
  9
$DIMSE1
 70
     0
  9
$DIMSE2
 70
     0
  9
$DIMTAD
 70
     0
  9
$DIMZIN
 70
     1
  9
$DIMBLK
  1

  9
$DIMASO
 70
     1
  9
$DIMSHO
 70
     1
  9
$DIMPOST
  1

  9
$DIMAPOST
  1

  9
$DIMALT
 70
     0
  9
$DIMALTD
 70
     2
  9
$DIMALTF
 40
25.4
  9
$DIMLFAC
 40
1.0
  9
$DIMTOFL
 70
     0
  9
$DIMTVP
 40
0.0
  9
$DIMTIX
 70
     0
  9
$DIMSOXD
 70
     0
  9
$DIMSAH
 70
     0
  9
$DIMBLK1
  1

  9
$DIMBLK2
  1

  9
$DIMSTYLE
  2
Standard
  9
$DIMCLRD
 70
     0
  9
$DIMCLRE
 70
     0
  9
$DIMCLRT
 70
     0
  9
$DIMTFAC
 40
1.0
  9
$DIMGAP
 40
0.06
  9
$DIMJUST
 70
     0
  9
$DIMSD1
 70
     0
  9
$DIMSD2
 70
     0
  9
$DIMTOLJ
 70
     1
  9
$DIMTZIN
 70
     1
  9
$DIMALTZ
 70
     0
  9
$DIMALTTZ
 70
     0
  9
$DIMUPT
 70
     0
  9
$DIMDEC
 70
     0
  9
$DIMTDEC
 70
     4
  9
$DIMALTU
 70
     2
  9
$DIMALTTD
 70
     2
  9
$DIMTXSTY
  7
Standard
  9
$DIMAUNIT
 70
     0
  9
$DIMADEC
 70
     0
  9
$DIMALTRND
 40
0.0
  9
$DIMAZIN
 70
     0
  9
$DIMDSEP
 70
    46
  9
$DIMATFIT
 70
     3
  9
$DIMFRAC
 70
     0
  9
$DIMLDRBLK
  1

  9
$DIMLUNIT
 70
     2
  9
$DIMLWD
 70
    -2
  9
$DIMLWE
 70
    -2
  9
$DIMTMOVE
 70
     0
  9
$LUNITS
 70
     2
  9
$LUPREC
 70
     4
  9
$SKETCHINC
 40
0.1
  9
$FILLETRAD
 40
0.5
  9
$AUNITS
 70
     0
  9
$AUPREC
 70
     0
  9
$MENU
  1
.
  9
$ELEVATION
 40
0.0
  9
$PELEVATION
 40
0.0
  9
$THICKNESS
 40
0.0
  9
$LIMCHECK
 70
     0
  9
$CHAMFERA
 40
0.0
  9
$CHAMFERB
 40
0.0
  9
$CHAMFERC
 40
0.0
  9
$CHAMFERD
 40
0.0
  9
$SKPOLY
 70
     0
  9
$TDCREATE
 40
2459338.637408912
  9
$TDUCREATE
 40
2459338.845742245
  9
$TDUPDATE
 40
2459338.637410046
  9
$TDUUPDATE
 40
2459338.84574338
  9
$TDINDWG
 40
0.0000000116
  9
$TDUSRTIMER
 40
0.0000000116
  9
$USRTIMER
 70
     1
  9
$ANGBASE
 50
0.0
  9
$ANGDIR
 70
     0
  9
$PDMODE
 70
     0
  9
$PDSIZE
 40
-1.0
  9
$PLINEWID
 40
0.0
  9
$SPLFRAME
 70
     0
  9
$SPLINETYPE
 70
     6
  9
$SPLINESEGS
 70
     8
  9
$HANDSEED
  5
197
  9
$SURFTAB1
 70
     6
  9
$SURFTAB2
 70
     6
  9
$SURFTYPE
 70
     6
  9
$SURFU
 70
     6
  9
$SURFV
 70
     6
  9
$UCSBASE
  2

  9
$UCSNAME
  2

  9
$UCSORG
 10
0.0
 20
0.0
 30
0.0
  9
$UCSXDIR
 10
1.0
 20
0.0
 30
0.0
  9
$UCSYDIR
 10
0.0
 20
1.0
 30
0.0
  9
$UCSORTHOREF
  2

  9
$UCSORTHOVIEW
 70
     0
  9
$UCSORGTOP
 10
0.0
 20
0.0
 30
0.0
  9
$UCSORGBOTTOM
 10
0.0
 20
0.0
 30
0.0
  9
$UCSORGLEFT
 10
0.0
 20
0.0
 30
0.0
  9
$UCSORGRIGHT
 10
0.0
 20
0.0
 30
0.0
  9
$UCSORGFRONT
 10
0.0
 20
0.0
 30
0.0
  9
$UCSORGBACK
 10
0.0
 20
0.0
 30
0.0
  9
$PUCSBASE
  2

  9
$PUCSNAME
  2

  9
$PUCSORG
 10
0.0
 20
0.0
 30
0.0
  9
$PUCSXDIR
 10
1.0
 20
0.0
 30
0.0
  9
$PUCSYDIR
 10
0.0
 20
1.0
 30
0.0
  9
$PUCSORTHOREF
  2

  9
$PUCSORTHOVIEW
 70
     0
  9
$PUCSORGTOP
 10
0.0
 20
0.0
 30
0.0
  9
$PUCSORGBOTTOM
 10
0.0
 20
0.0
 30
0.0
  9
$PUCSORGLEFT
 10
0.0
 20
0.0
 30
0.0
  9
$PUCSORGRIGHT
 10
0.0
 20
0.0
 30
0.0
  9
$PUCSORGFRONT
 10
0.0
 20
0.0
 30
0.0
  9
$PUCSORGBACK
 10
0.0
 20
0.0
 30
0.0
  9
$USERI1
 70
     0
  9
$USERI2
 70
     0
  9
$USERI3
 70
     0
  9
$USERI4
 70
     0
  9
$USERI5
 70
     0
  9
$USERR1
 40
0.0
  9
$USERR2
 40
0.0
  9
$USERR3
 40
0.0
  9
$USERR4
 40
0.0
  9
$USERR5
 40
0.0
  9
$WORLDVIEW
 70
     1
  9
$SHADEDGE
 70
     3
  9
$SHADEDIF
 70
    70
  9
$TILEMODE
 70
     1
  9
$MAXACTVP
 70
    64
  9
$PINSBASE
 10
0.0
 20
0.0
 30
0.0
  9
$PLIMCHECK
 70
     0
  9
$PEXTMIN
 10
1.0000000000E+20
 20
1.0000000000E+20
 30
1.0000000000E+20
  9
$PEXTMAX
 10
-1.0000000000E+20
 20
-1.0000000000E+20
 30
-1.0000000000E+20
  9
$PLIMMIN
 10
0.0
 20
0.0
  9
$PLIMMAX
 10
12.0
 20
9.0
  9
$UNITMODE
 70
     0
  9
$VISRETAIN
 70
     1
  9
$PLINEGEN
 70
     0
  9
$PSLTSCALE
 70
     1
  9
$TREEDEPTH
 70
  3020
  9
$CMLSTYLE
  2
Standard
  9
$CMLJUST
 70
     0
  9
$CMLSCALE
 40
1.0
  9
$PROXYGRAPHICS
 70
     1
  9
$MEASUREMENT
 70
     0
  9
$CELWEIGHT
370
    -1
  9
$ENDCAPS
280
     0
  9
$JOINSTYLE
280
     0
  9
$LWDISPLAY
290
     1
  9
$INSUNITS
 70
     1
  9
$HYPERLINKBASE
  1

  9
$STYLESHEET
  1

  9
$XEDIT
290
     1
  9
$CEPSNTYPE
380
     0
  9
$PSTYLEMODE
290
     1
  9
$FINGERPRINTGUID
  2
{ebb696ef-28c1-4ec1-96f4-fa436ab60223}
  9
$VERSIONGUID
  2
{FAEB1C32-E019-11D5-929B-00C0DF256EC4}
  9
$EXTNAMES
290
     1
  9
$PSVPSCALE
 40
0.0
  9
$OLESTARTUP
290
     0
  0
ENDSEC
  0
SECTION
  2
CLASSES
  0
CLASS
  1
ACDBDICTIONARYWDFLT
  2
AcDbDictionaryWithDefault
  3
ObjectDBX Classes
 90
        0
280
     0
281
     0
  0
CLASS
  1
VISUALSTYLE
  2
AcDbVisualStyle
  3
ObjectDBX Classes
 90
     4095
280
     0
281
     0
  0
CLASS
  1
MATERIAL
  2
AcDbMaterial
  3
ObjectDBX Classes
 90
     1153
280
     0
281
     0
  0
CLASS
  1
SCALE
  2
AcDbScale
  3
ObjectDBX Classes
 90
     1153
280
     0
281
     0
  0
CLASS
  1
TABLESTYLE
  2
AcDbTableStyle
  3
ObjectDBX Classes
 90
     4095
280
     0
281
     0
  0
CLASS
  1
MLEADERSTYLE
  2
AcDbMLeaderStyle
  3
ACDB_MLEADERSTYLE_CLASS
 90
     4095
280
     0
281
     0
  0
CLASS
  1
SUN
  2
AcDbSun
  3
SCENEOE
 90
     1153
280
     0
281
     0
  0
CLASS
  1
ACDBPLACEHOLDER
  2
AcDbPlaceHolder
  3
ObjectDBX Classes
 90
        0
280
     0
281
     0
  0
CLASS
  1
LAYOUT
  2
AcDbLayout
  3
ObjectDBX Classes
 90
        0
280
     0
281
     0
  0
ENDSEC
  0
SECTION
  2
TABLES
  0
TABLE
  2
VPORT
  5
8
330
0
100
AcDbSymbolTable
 70
     1
  0
VPORT
  5
29
330
8
100
AcDbSymbolTableRecord
100
AcDbViewportTableRecord
  2
*Active
 70
     0
 10
0.0
 20
0.0
 11
1.0
 21
1.0
 12
22.0
 22
17.0
 13
0.0
 23
0.0
 14
0.5
 24
0.5
 15
0.5
 25
0.5
 16
0.0
 26
0.0
 36
1.0
 17
0.0
 27
0.0
 37
0.0
 40
34.0
 41
1.2941176471
 42
50.0
 43
0.0
 44
0.0
 50
0.0
 51
0.0
 71
     0
 72
  2000
 73
     1
 74
     3
 75
     0
 76
     0
 77
     0
 78
     0
281
     0
 65
     1
110
0.0
120
0.0
130
0.0
111
1.0
121
0.0
131
0.0
112
0.0
122
1.0
132
0.0
 79
     0
146
0.0
  0
ENDTAB
  0
TABLE
  2
LTYPE
  5
5
330
0
100
AcDbSymbolTable
 70
     6
  0
LTYPE
  5
14
330
5
100
AcDbSymbolTableRecord
100
AcDbLinetypeTableRecord
  2
ByBlock
 70
     0
  3

 72
    65
 73
     0
 40
0.0
  0
LTYPE
  5
15
330
5
100
AcDbSymbolTableRecord
100
AcDbLinetypeTableRecord
  2
ByLayer
 70
     0
  3

 72
    65
 73
     0
 40
0.0
  0
LTYPE
  5
16
330
5
100
AcDbSymbolTableRecord
100
AcDbLinetypeTableRecord
  2
Continuous
 70
     0
  3
Solid line
 72
    65
 73
     0
 40
0.0
  0
LTYPE
  5
6E
330
5
100
AcDbSymbolTableRecord
100
AcDbLinetypeTableRecord
  2
HIDDEN
 70
     0
  3
Hidden __ __ __ __ __ __ __ __ __ __ __ __ __ __
 72
    65
 73
     2
 40
0.075
 49
0.05
 74
     0
 49
-0.025
 74
     0
  0
LTYPE
  5
6F
330
5
100
AcDbSymbolTableRecord
100
AcDbLinetypeTableRecord
  2
PHANTOM
 70
     0
  3
Phantom ______  __  __  ______  __  __  ______
 72
    65
 73
     6
 40
0.5
 49
0.25
 74
     0
 49
-0.05
 74
     0
 49
0.05
 74
     0
 49
-0.05
 74
     0
 49
0.05
 74
     0
 49
-0.05
 74
     0
  0
LTYPE
  5
70
330
5
100
AcDbSymbolTableRecord
100
AcDbLinetypeTableRecord
  2
CENTER
 70
     0
  3
Center ____ _ ____ _ ____ _ ____ _ ____ _ ____
 72
    65
 73
     4
 40
0.4
 49
0.25
 74
     0
 49
-0.05
 74
     0
 49
0.05
 74
     0
 49
-0.05
 74
     0
  0
LTYPE
  5
71
330
5
100
AcDbSymbolTableRecord
100
AcDbLinetypeTableRecord
  2
CENTERX2
 70
     0
  3
Center (2x) ________  __  ________  __  _____
 72
    65
 73
     4
 40
0.8
 49
0.5
 74
     0
 49
-0.1
 74
     0
 49
0.1
 74
     0
 49
-0.1
 74
     0
  0
LTYPE
  5
72
330
5
100
AcDbSymbolTableRecord
100
AcDbLinetypeTableRecord
  2
DOT2
 70
     0
  3
Dot (.5x) ........................................
 72
    65
 73
     2
 40
0.025
 49
0.0
 74
     0
 49
-0.025
 74
     0
  0
ENDTAB
  0
TABLE
  2
LAYER
  5
2
330
0
100
AcDbSymbolTable
 70
     4
  0
LAYER
  5
10
330
2
100
AcDbSymbolTableRecord
100
AcDbLayerTableRecord
  2
0
 70
     0
 62
     7
  6
Continuous
370
    -3
390
F
  0
LAYER
  5
73
330
2
100
AcDbSymbolTableRecord
100
AcDbLayerTableRecord
  2
BOTTOM_OUTSIDECUTPATH
 70
     0
 62
   179
  6
Continuous
370
    -3
390
F
  0
LAYER
  5
74
330
2
100
AcDbSymbolTableRecord
100
AcDbLayerTableRecord
  2
RIGHT_OUTSIDECUTPATH
 70
     0
 62
   179
  6
Continuous
370
    -3
390
F
  0
LAYER
  5
75
330
2
100
AcDbSymbolTableRecord
100
AcDbLayerTableRecord
  2
FRONT_OUTSIDECUTPATH
 70
     0
 62
   179
  6
Continuous
370
    -3
390
F
  0
ENDTAB
  0
TABLE
  2
STYLE
  5
3
330
0
100
AcDbSymbolTable
 70
     1
  0
STYLE
  5
11
330
3
100
AcDbSymbolTableRecord
100
AcDbTextStyleTableRecord
  2
Standard
 70
     0
 40
0.0
 41
1.0
 50
0.0
 71
     0
 42
0.125
  3
txt
  4

  0
ENDTAB
  0
TABLE
  2
VIEW
  5
6
330
0
100
AcDbSymbolTable
 70
     0
  0
ENDTAB
  0
TABLE
  2
UCS
  5
7
330
0
100
AcDbSymbolTable
 70
     0
  0
ENDTAB
  0
TABLE
  2
APPID
  5
9
330
0
100
AcDbSymbolTable
 70
     1
  0
APPID
  5
12
330
9
100
AcDbSymbolTableRecord
100
AcDbRegAppTableRecord
  2
ACAD
 70
     0
  0
ENDTAB
  0
TABLE
  2
DIMSTYLE
  5
A
330
0
100
AcDbSymbolTable
 70
     1
100
AcDbDimStyleTable
  0
DIMSTYLE
105
27
330
A
100
AcDbSymbolTableRecord
100
AcDbDimStyleTableRecord
  2
Standard
 70
     0
178
     0
340
11
  0
ENDTAB
  0
TABLE
  2
BLOCK_RECORD
  5
1
330
0
100
AcDbSymbolTable
 70
     1
  0
BLOCK_RECORD
  5
1F
330
1
100
AcDbSymbolTableRecord
100
AcDbBlockTableRecord
  2
*Model_Space
340
22
  0
BLOCK_RECORD
  5
1B
330
1
100
AcDbSymbolTableRecord
100
AcDbBlockTableRecord
  2
*Paper_Space
340
1E
  0
BLOCK_RECORD
  5
23
330
1
100
AcDbSymbolTableRecord
100
AcDbBlockTableRecord
  2
*Paper_Space0
340
26
  0
ENDTAB
  0
ENDSEC
  0
SECTION
  2
BLOCKS
  0
BLOCK
  5
20
330
1F
100
AcDbEntity
  8
0
100
AcDbBlockBegin
  2
*Model_Space
 70
     0
 10
0.0
 20
0.0
 30
0.0
  3
*Model_Space
  1

  0
ENDBLK
  5
21
330
1F
100
AcDbEntity
  8
0
100
AcDbBlockEnd
  0
BLOCK
  5
1C
330
1B
100
AcDbEntity
 67
     1
  8
0
100
AcDbBlockBegin
  2
*Paper_Space
 70
     0
 10
0.0
 20
0.0
 30
0.0
  3
*Paper_Space
  1

  0
ENDBLK
  5
1D
330
1B
100
AcDbEntity
 67
     1
  8
0
100
AcDbBlockEnd
  0
BLOCK
  5
24
330
23
100
AcDbEntity
  8
0
100
AcDbBlockBegin
  2
*Paper_Space0
 70
     0
 10
0.0
 20
0.0
 30
0.0
  3
*Paper_Space0
  1

  0
ENDBLK
  5
25
330
23
100
AcDbEntity
  8
0
100
AcDbBlockEnd
  0
ENDSEC
  0
SECTION
  2
ENTITIES
  0
LINE
  5
76
330
1F
100
AcDbEntity
  8
FRONT_OUTSIDECUTPATH
100
AcDbLine
 10
27.4999686001
 20
25.4897043366
 30
0.0
 11
27.4999686001
 21
25.3546484136
 31
0.0
  0
LINE
  5
77
330
1F
100
AcDbEntity
  8
RIGHT_OUTSIDECUTPATH
100
AcDbLine
 10
15.1363087633
 20
27.1051371442
 30
0.0
 11
15.1305827607
 21
27.105148825
 31
0.0
  0
LINE
  5
78
330
1F
100
AcDbEntity
  8
RIGHT_OUTSIDECUTPATH
100
AcDbLine
 10
15.1305827607
 20
27.105148825
 30
0.0
 11
15.1309537903
 21
25.6051488708
 31
0.0
  0
LINE
  5
79
330
1F
100
AcDbEntity
  8
FRONT_OUTSIDECUTPATH
100
AcDbLine
 10
15.2487186006
 20
25.3548867965
 30
0.0
 11
16.5587186003
 21
25.3548613067
 31
0.0
  0
LINE
  5
7A
330
1F
100
AcDbEntity
  8
FRONT_OUTSIDECUTPATH
100
AcDbLine
 10
27.5329259457
 20
27.3549766017
 30
0.0
 11
27.5329259457
 21
27.2201263033
 31
0.0
  0
LINE
  5
7B
330
1F
100
AcDbEntity
  8
FRONT_OUTSIDECUTPATH
100
AcDbLine
 10
16.5587186003
 20
25.3548613067
 30
0.0
 11
16.5587186003
 21
25.3574771725
 31
0.0
  0
LINE
  5
7C
330
1F
100
AcDbEntity
  8
FRONT_OUTSIDECUTPATH
100
AcDbLine
 10
15.2516759457
 20
27.3549695367
 30
0.0
 11
15.2516759457
 21
27.2201128157
 31
0.0
  0
LINE
  5
7D
330
1F
100
AcDbEntity
  8
FRONT_OUTSIDECUTPATH
100
AcDbLine
 10
15.2487186006
 20
25.4897367965
 30
0.0
 11
15.2487186006
 21
25.3548867965
 31
0.0
  0
LINE
  5
7E
330
1F
100
AcDbEntity
  8
RIGHT_OUTSIDECUTPATH
100
AcDbLine
 10
27.6314159563
 20
25.6049545939
 30
0.0
 11
27.6280252416
 21
27.1049507615
 31
0.0
  0
LINE
  5
7F
330
1F
100
AcDbEntity
  8
RIGHT_OUTSIDECUTPATH
100
AcDbLine
 10
27.6280252416
 20
27.1049507615
 30
0.0
 11
27.6280944562
 21
27.1049507615
 31
0.0
  0
LINE
  5
80
330
1F
100
AcDbEntity
  8
FRONT_OUTSIDECUTPATH
100
AcDbLine
 10
16.6738902003
 20
25.4726487725
 30
0.0
 11
18.3757970003
 21
25.4726487725
 31
0.0
  0
LINE
  5
81
330
1F
100
AcDbEntity
  8
FRONT_OUTSIDECUTPATH
100
AcDbLine
 10
18.4609686003
 20
25.3574777562
 30
0.0
 11
18.4609686003
 21
25.354824293
 31
0.0
  0
LINE
  5
82
330
1F
100
AcDbEntity
  8
FRONT_OUTSIDECUTPATH
100
AcDbLine
 10
18.4609686003
 20
25.354824293
 30
0.0
 11
20.3932186003
 21
25.3547866956
 31
0.0
  0
LINE
  5
83
330
1F
100
AcDbEntity
  8
FRONT_OUTSIDECUTPATH
100
AcDbLine
 10
20.3932186003
 20
25.3547866956
 30
0.0
 11
20.3932186003
 21
25.3574777562
 31
0.0
  0
LINE
  5
84
330
1F
100
AcDbEntity
  8
FRONT_OUTSIDECUTPATH
100
AcDbLine
 10
20.5383902003
 20
25.4726487725
 30
0.0
 11
22.2402970003
 21
25.4726487725
 31
0.0
  0
LINE
  5
85
330
1F
100
AcDbEntity
  8
FRONT_OUTSIDECUTPATH
100
AcDbLine
 10
22.3254686003
 20
25.3574777562
 30
0.0
 11
22.3254686003
 21
25.3547490982
 31
0.0
  0
LINE
  5
86
330
1F
100
AcDbEntity
  8
FRONT_OUTSIDECUTPATH
100
AcDbLine
 10
22.3254686003
 20
25.3547490982
 30
0.0
 11
24.2577186003
 21
25.3547115008
 31
0.0
  0
LINE
  5
87
330
1F
100
AcDbEntity
  8
FRONT_OUTSIDECUTPATH
100
AcDbLine
 10
24.2577186003
 20
25.3547115008
 30
0.0
 11
24.2577186003
 21
25.3574777562
 31
0.0
  0
LINE
  5
88
330
1F
100
AcDbEntity
  8
FRONT_OUTSIDECUTPATH
100
AcDbLine
 10
24.4028902003
 20
25.4726487725
 30
0.0
 11
26.1047970003
 21
25.4726487725
 31
0.0
  0
LINE
  5
89
330
1F
100
AcDbEntity
  8
FRONT_OUTSIDECUTPATH
100
AcDbLine
 10
26.1899686003
 20
25.3574777562
 30
0.0
 11
26.1899686003
 21
25.3546739033
 31
0.0
  0
LINE
  5
8A
330
1F
100
AcDbEntity
  8
FRONT_OUTSIDECUTPATH
100
AcDbLine
 10
26.1899686003
 20
25.3546739033
 30
0.0
 11
27.4999686001
 21
25.3546484136
 31
0.0
  0
LINE
  5
8B
330
1F
100
AcDbEntity
  8
FRONT_OUTSIDECUTPATH
100
AcDbLine
 10
27.5329259457
 20
27.3549766017
 30
0.0
 11
26.2229259457
 21
27.3549758481
 31
0.0
  0
LINE
  5
8C
330
1F
100
AcDbEntity
  8
FRONT_OUTSIDECUTPATH
100
AcDbLine
 10
26.2229259457
 20
27.3549758481
 30
0.0
 11
26.2229259457
 21
27.3521411646
 31
0.0
  0
LINE
  5
8D
330
1F
100
AcDbEntity
  8
FRONT_OUTSIDECUTPATH
100
AcDbLine
 10
26.1077543457
 20
27.2369695646
 30
0.0
 11
24.4058475457
 21
27.2369695646
 31
0.0
  0
LINE
  5
8E
330
1F
100
AcDbEntity
  8
FRONT_OUTSIDECUTPATH
100
AcDbLine
 10
24.2906759457
 20
27.3521411646
 30
0.0
 11
24.2906759457
 21
27.3549747365
 31
0.0
  0
LINE
  5
8F
330
1F
100
AcDbEntity
  8
FRONT_OUTSIDECUTPATH
100
AcDbLine
 10
24.2906759457
 20
27.3549747365
 30
0.0
 11
22.3584259457
 21
27.354973625
 31
0.0
  0
LINE
  5
90
330
1F
100
AcDbEntity
  8
FRONT_OUTSIDECUTPATH
100
AcDbLine
 10
22.3584259457
 20
27.354973625
 30
0.0
 11
22.3584259457
 21
27.3521411646
 31
0.0
  0
LINE
  5
91
330
1F
100
AcDbEntity
  8
FRONT_OUTSIDECUTPATH
100
AcDbLine
 10
22.2432543457
 20
27.2369695646
 30
0.0
 11
20.5413475457
 21
27.2369695646
 31
0.0
  0
LINE
  5
92
330
1F
100
AcDbEntity
  8
FRONT_OUTSIDECUTPATH
100
AcDbLine
 10
20.4261759457
 20
27.3521411646
 30
0.0
 11
20.4261759457
 21
27.3549725134
 31
0.0
  0
LINE
  5
93
330
1F
100
AcDbEntity
  8
FRONT_OUTSIDECUTPATH
100
AcDbLine
 10
20.4261759457
 20
27.3549725134
 30
0.0
 11
18.4939259457
 21
27.3549714019
 31
0.0
  0
LINE
  5
94
330
1F
100
AcDbEntity
  8
RIGHT_OUTSIDECUTPATH
100
AcDbLine
 10
15.1309537903
 20
25.6051488708
 30
0.0
 11
15.1337821844
 21
25.605143101
 31
0.0
  0
LINE
  5
95
330
1F
100
AcDbEntity
  8
FRONT_OUTSIDECUTPATH
100
AcDbLine
 10
18.4939259457
 20
27.3549714019
 30
0.0
 11
18.4939259457
 21
27.3521411646
 31
0.0
  0
LINE
  5
96
330
1F
100
AcDbEntity
  8
FRONT_OUTSIDECUTPATH
100
AcDbLine
 10
27.5052271603
 20
30.928622265
 30
0.0
 11
27.5052271603
 21
30.793566342
 31
0.0
  0
LINE
  5
97
330
1F
100
AcDbEntity
  8
RIGHT_OUTSIDECUTPATH
100
AcDbLine
 10
15.1415673235
 20
32.5440550726
 30
0.0
 11
15.1358413209
 21
32.5440667534
 31
0.0
  0
LINE
  5
98
330
1F
100
AcDbEntity
  8
RIGHT_OUTSIDECUTPATH
100
AcDbLine
 10
15.1358413209
 20
32.5440667534
 30
0.0
 11
15.1362123505
 21
31.0440667992
 31
0.0
  0
LINE
  5
99
330
1F
100
AcDbEntity
  8
FRONT_OUTSIDECUTPATH
100
AcDbLine
 10
15.2539771608
 20
30.7938047249
 30
0.0
 11
16.5639771605
 21
30.7937792351
 31
0.0
  0
LINE
  5
9A
330
1F
100
AcDbEntity
  8
FRONT_OUTSIDECUTPATH
100
AcDbLine
 10
27.5381845059
 20
32.7938945301
 30
0.0
 11
27.5381845059
 21
32.6590442317
 31
0.0
  0
LINE
  5
9B
330
1F
100
AcDbEntity
  8
FRONT_OUTSIDECUTPATH
100
AcDbLine
 10
16.5639771605
 20
30.7937792351
 30
0.0
 11
16.5639771605
 21
30.7963951009
 31
0.0
  0
LINE
  5
9C
330
1F
100
AcDbEntity
  8
FRONT_OUTSIDECUTPATH
100
AcDbLine
 10
18.3787543457
 20
27.2369695646
 30
0.0
 11
16.6768475457
 21
27.2369695646
 31
0.0
  0
LINE
  5
9D
330
1F
100
AcDbEntity
  8
FRONT_OUTSIDECUTPATH
100
AcDbLine
 10
16.5616759457
 20
27.3521411646
 30
0.0
 11
16.5616759457
 21
27.3549702903
 31
0.0
  0
LINE
  5
9E
330
1F
100
AcDbEntity
  8
FRONT_OUTSIDECUTPATH
100
AcDbLine
 10
16.5616759457
 20
27.3549702903
 30
0.0
 11
15.2516759457
 21
27.3549695367
 31
0.0
  0
LINE
  5
9F
330
1F
100
AcDbEntity
  8
FRONT_OUTSIDECUTPATH
100
AcDbLine
 10
15.2569345059
 20
32.7938874651
 30
0.0
 11
15.2569345059
 21
32.6590307441
 31
0.0
  0
LINE
  5
A0
330
1F
100
AcDbEntity
  8
FRONT_OUTSIDECUTPATH
100
AcDbLine
 10
15.2539771608
 20
30.9286547249
 30
0.0
 11
15.2539771608
 21
30.7938047249
 31
0.0
  0
LINE
  5
A1
330
1F
100
AcDbEntity
  8
FRONT_OUTSIDECUTPATH
100
AcDbLine
 10
27.5374621211
 20
28.2700707417
 30
0.0
 11
27.5374621211
 21
28.1350148187
 31
0.0
  0
LINE
  5
A2
330
1F
100
AcDbEntity
  8
RIGHT_OUTSIDECUTPATH
100
AcDbLine
 10
15.1738022844
 20
29.8855035493
 30
0.0
 11
15.1680762817
 21
29.88551523
 31
0.0
  0
LINE
  5
A3
330
1F
100
AcDbEntity
  8
RIGHT_OUTSIDECUTPATH
100
AcDbLine
 10
15.1680762817
 20
29.88551523
 30
0.0
 11
15.1684473114
 21
28.3855152759
 31
0.0
  0
LINE
  5
A4
330
1F
100
AcDbEntity
  8
FRONT_OUTSIDECUTPATH
100
AcDbLine
 10
15.2862121216
 20
28.1352532016
 30
0.0
 11
16.5962121214
 21
28.1352277118
 31
0.0
  0
LINE
  5
A5
330
1F
100
AcDbEntity
  8
FRONT_OUTSIDECUTPATH
100
AcDbLine
 10
27.5704194668
 20
30.1353430068
 30
0.0
 11
27.5704194668
 21
30.0004927084
 31
0.0
  0
LINE
  5
A6
330
1F
100
AcDbEntity
  8
RIGHT_OUTSIDECUTPATH
100
AcDbLine
 10
27.6285875563
 20
25.6049546697
 30
0.0
 11
27.6314159563
 21
25.6049545939
 31
0.0
  0
LINE
  5
A7
330
1F
100
AcDbEntity
  8
FRONT_OUTSIDECUTPATH
100
AcDbLine
 10
16.5962121214
 20
28.1352277118
 30
0.0
 11
16.5962121214
 21
28.1378435776
 31
0.0
  0
LINE
  5
A8
330
1F
100
AcDbEntity
  8
FRONT_OUTSIDECUTPATH
100
AcDbLine
 10
27.4752433655
 20
22.2736265712
 30
0.0
 11
27.4752433655
 21
22.1385706482
 31
0.0
  0
LINE
  5
A9
330
1F
100
AcDbEntity
  8
RIGHT_OUTSIDECUTPATH
100
AcDbLine
 10
15.1115835287
 20
23.8890593788
 30
0.0
 11
15.1058575261
 21
23.8890710596
 31
0.0
  0
LINE
  5
AA
330
1F
100
AcDbEntity
  8
RIGHT_OUTSIDECUTPATH
100
AcDbLine
 10
15.1058575261
 20
23.8890710596
 30
0.0
 11
15.1062285557
 21
22.3890711055
 31
0.0
  0
LINE
  5
AB
330
1F
100
AcDbEntity
  8
FRONT_OUTSIDECUTPATH
100
AcDbLine
 10
15.223993366
 20
22.1388090311
 30
0.0
 11
16.5339933657
 21
22.1387835413
 31
0.0
  0
LINE
  5
AC
330
1F
100
AcDbEntity
  8
FRONT_OUTSIDECUTPATH
100
AcDbLine
 10
27.5082007111
 20
24.1388988363
 30
0.0
 11
27.5082007111
 21
24.0040485379
 31
0.0
  0
LINE
  5
AD
330
1F
100
AcDbEntity
  8
FRONT_OUTSIDECUTPATH
100
AcDbLine
 10
16.5339933657
 20
22.1387835413
 30
0.0
 11
16.5339933657
 21
22.1413994071
 31
0.0
  0
LINE
  5
AE
330
1F
100
AcDbEntity
  8
FRONT_OUTSIDECUTPATH
100
AcDbLine
 10
15.2269507111
 20
24.1388917713
 30
0.0
 11
15.2269507111
 21
24.0040350503
 31
0.0
  0
LINE
  5
AF
330
1F
100
AcDbEntity
  8
FRONT_OUTSIDECUTPATH
100
AcDbLine
 10
15.223993366
 20
22.2736590311
 30
0.0
 11
15.223993366
 21
22.1388090311
 31
0.0
  0
LINE
  5
B0
330
1F
100
AcDbEntity
  8
RIGHT_OUTSIDECUTPATH
100
AcDbLine
 10
27.6066907217
 20
22.3888768285
 30
0.0
 11
27.603300007
 21
23.8888729962
 31
0.0
  0
LINE
  5
B1
330
1F
100
AcDbEntity
  8
RIGHT_OUTSIDECUTPATH
100
AcDbLine
 10
27.603300007
 20
23.8888729962
 30
0.0
 11
27.6033692216
 21
23.8888729962
 31
0.0
  0
LINE
  5
B2
330
1F
100
AcDbEntity
  8
FRONT_OUTSIDECUTPATH
100
AcDbLine
 10
16.6491649657
 20
22.2565710071
 30
0.0
 11
18.3510717657
 21
22.2565710071
 31
0.0
  0
LINE
  5
B3
330
1F
100
AcDbEntity
  8
FRONT_OUTSIDECUTPATH
100
AcDbLine
 10
18.4362433657
 20
22.1413999908
 30
0.0
 11
18.4362433657
 21
22.1387465276
 31
0.0
  0
LINE
  5
B4
330
1F
100
AcDbEntity
  8
FRONT_OUTSIDECUTPATH
100
AcDbLine
 10
18.4362433657
 20
22.1387465276
 30
0.0
 11
20.3684933657
 21
22.1387089302
 31
0.0
  0
LINE
  5
B5
330
1F
100
AcDbEntity
  8
FRONT_OUTSIDECUTPATH
100
AcDbLine
 10
15.2891694668
 20
30.1353359418
 30
0.0
 11
15.2891694668
 21
30.0004792208
 31
0.0
  0
LINE
  5
B6
330
1F
100
AcDbEntity
  8
BOTTOM_OUTSIDECUTPATH
100
AcDbLine
 10
0.7614916176
 20
33.1181481194
 30
0.0
 11
0.7614916176
 21
31.9319447194
 31
0.0
  0
LINE
  5
B7
330
1F
100
AcDbEntity
  8
BOTTOM_OUTSIDECUTPATH
100
AcDbLine
 10
0.6463200176
 20
31.8167731194
 30
0.0
 11
0.6434916176
 21
31.8167731194
 31
0.0
  0
LINE
  5
B8
330
1F
100
AcDbEntity
  8
BOTTOM_OUTSIDECUTPATH
100
AcDbLine
 10
0.6434916176
 20
31.8167731194
 30
0.0
 11
0.6434916176
 21
29.8845231194
 31
0.0
  0
LINE
  5
B9
330
1F
100
AcDbEntity
  8
BOTTOM_OUTSIDECUTPATH
100
AcDbLine
 10
0.6434916176
 20
29.8845231194
 30
0.0
 11
0.6463200176
 21
29.8845231194
 31
0.0
  0
LINE
  5
BA
330
1F
100
AcDbEntity
  8
BOTTOM_OUTSIDECUTPATH
100
AcDbLine
 10
0.7614916176
 20
29.7693515194
 30
0.0
 11
0.7614916176
 21
28.0674447194
 31
0.0
  0
LINE
  5
BB
330
1F
100
AcDbEntity
  8
BOTTOM_OUTSIDECUTPATH
100
AcDbLine
 10
0.6463200176
 20
27.9522731194
 30
0.0
 11
0.6434916176
 21
27.9522731194
 31
0.0
  0
LINE
  5
BC
330
1F
100
AcDbEntity
  8
BOTTOM_OUTSIDECUTPATH
100
AcDbLine
 10
0.6434916176
 20
27.9522731194
 30
0.0
 11
0.6434916176
 21
26.0200231194
 31
0.0
  0
LINE
  5
BD
330
1F
100
AcDbEntity
  8
BOTTOM_OUTSIDECUTPATH
100
AcDbLine
 10
0.6434916176
 20
26.0200231194
 30
0.0
 11
0.6463200176
 21
26.0200231194
 31
0.0
  0
LINE
  5
BE
330
1F
100
AcDbEntity
  8
BOTTOM_OUTSIDECUTPATH
100
AcDbLine
 10
0.7614916176
 20
25.9048515194
 30
0.0
 11
0.7614916176
 21
24.2029447194
 31
0.0
  0
LINE
  5
BF
330
1F
100
AcDbEntity
  8
BOTTOM_OUTSIDECUTPATH
100
AcDbLine
 10
0.6463200176
 20
24.0877731194
 30
0.0
 11
0.6434916176
 21
24.0877731194
 31
0.0
  0
LINE
  5
C0
330
1F
100
AcDbEntity
  8
BOTTOM_OUTSIDECUTPATH
100
AcDbLine
 10
0.6434916176
 20
24.0877731194
 30
0.0
 11
0.6434916176
 21
22.1555231194
 31
0.0
  0
LINE
  5
C1
330
1F
100
AcDbEntity
  8
BOTTOM_OUTSIDECUTPATH
100
AcDbLine
 10
0.6434916176
 20
22.1555231194
 30
0.0
 11
0.6463200176
 21
22.1555231194
 31
0.0
  0
LINE
  5
C2
330
1F
100
AcDbEntity
  8
BOTTOM_OUTSIDECUTPATH
100
AcDbLine
 10
0.7614916176
 20
22.0403515194
 30
0.0
 11
0.7614916176
 21
20.8541481194
 31
0.0
  0
LINE
  5
C3
330
1F
100
AcDbEntity
  8
BOTTOM_OUTSIDECUTPATH
100
AcDbLine
 10
0.7614916176
 20
20.8541481194
 30
0.0
 11
1.9476950176
 21
20.8541481194
 31
0.0
  0
LINE
  5
C4
330
1F
100
AcDbEntity
  8
BOTTOM_OUTSIDECUTPATH
100
AcDbLine
 10
2.0628666176
 20
20.7389765194
 30
0.0
 11
2.0628666176
 21
20.7361481194
 31
0.0
  0
LINE
  5
C5
330
1F
100
AcDbEntity
  8
BOTTOM_OUTSIDECUTPATH
100
AcDbLine
 10
2.0628666176
 20
20.7361481194
 30
0.0
 11
3.9951166176
 21
20.7361481194
 31
0.0
  0
LINE
  5
C6
330
1F
100
AcDbEntity
  8
BOTTOM_OUTSIDECUTPATH
100
AcDbLine
 10
3.9951166176
 20
20.7361481194
 30
0.0
 11
3.9951166176
 21
20.7389765194
 31
0.0
  0
LINE
  5
C7
330
1F
100
AcDbEntity
  8
BOTTOM_OUTSIDECUTPATH
100
AcDbLine
 10
4.1102882176
 20
20.8541481194
 30
0.0
 11
5.8121950176
 21
20.8541481194
 31
0.0
  0
LINE
  5
C8
330
1F
100
AcDbEntity
  8
BOTTOM_OUTSIDECUTPATH
100
AcDbLine
 10
5.9273666176
 20
20.7389765194
 30
0.0
 11
5.9273666176
 21
20.7361481194
 31
0.0
  0
LINE
  5
C9
330
1F
100
AcDbEntity
  8
BOTTOM_OUTSIDECUTPATH
100
AcDbLine
 10
5.9273666176
 20
20.7361481194
 30
0.0
 11
7.8596166176
 21
20.7361481194
 31
0.0
  0
LINE
  5
CA
330
1F
100
AcDbEntity
  8
BOTTOM_OUTSIDECUTPATH
100
AcDbLine
 10
7.8596166176
 20
20.7361481194
 30
0.0
 11
7.8596166176
 21
20.7389765194
 31
0.0
  0
LINE
  5
CB
330
1F
100
AcDbEntity
  8
BOTTOM_OUTSIDECUTPATH
100
AcDbLine
 10
7.9747882176
 20
20.8541481194
 30
0.0
 11
9.6766950176
 21
20.8541481194
 31
0.0
  0
LINE
  5
CC
330
1F
100
AcDbEntity
  8
BOTTOM_OUTSIDECUTPATH
100
AcDbLine
 10
9.7918666176
 20
20.7389765194
 30
0.0
 11
9.7918666176
 21
20.7361481194
 31
0.0
  0
LINE
  5
CD
330
1F
100
AcDbEntity
  8
BOTTOM_OUTSIDECUTPATH
100
AcDbLine
 10
9.7918666176
 20
20.7361481194
 30
0.0
 11
11.7241166176
 21
20.7361481194
 31
0.0
  0
LINE
  5
CE
330
1F
100
AcDbEntity
  8
BOTTOM_OUTSIDECUTPATH
100
AcDbLine
 10
11.7241166176
 20
20.7361481194
 30
0.0
 11
11.7241166176
 21
20.7389765194
 31
0.0
  0
LINE
  5
CF
330
1F
100
AcDbEntity
  8
BOTTOM_OUTSIDECUTPATH
100
AcDbLine
 10
11.8392882176
 20
20.8541481194
 30
0.0
 11
13.0254916176
 21
20.8541481194
 31
0.0
  0
LINE
  5
D0
330
1F
100
AcDbEntity
  8
BOTTOM_OUTSIDECUTPATH
100
AcDbLine
 10
13.0254916176
 20
20.8541481194
 30
0.0
 11
13.0254916176
 21
22.0403515194
 31
0.0
  0
LINE
  5
D1
330
1F
100
AcDbEntity
  8
BOTTOM_OUTSIDECUTPATH
100
AcDbLine
 10
13.1406632176
 20
22.1555231194
 30
0.0
 11
13.1434916176
 21
22.1555231194
 31
0.0
  0
LINE
  5
D2
330
1F
100
AcDbEntity
  8
BOTTOM_OUTSIDECUTPATH
100
AcDbLine
 10
13.1434916176
 20
22.1555231194
 30
0.0
 11
13.1434916176
 21
24.0877731194
 31
0.0
  0
LINE
  5
D3
330
1F
100
AcDbEntity
  8
BOTTOM_OUTSIDECUTPATH
100
AcDbLine
 10
13.1434916176
 20
24.0877731194
 30
0.0
 11
13.1406632176
 21
24.0877731194
 31
0.0
  0
LINE
  5
D4
330
1F
100
AcDbEntity
  8
BOTTOM_OUTSIDECUTPATH
100
AcDbLine
 10
13.0254916176
 20
24.2029447194
 30
0.0
 11
13.0254916176
 21
25.9048515194
 31
0.0
  0
LINE
  5
D5
330
1F
100
AcDbEntity
  8
BOTTOM_OUTSIDECUTPATH
100
AcDbLine
 10
13.1406632176
 20
26.0200231194
 30
0.0
 11
13.1434916176
 21
26.0200231194
 31
0.0
  0
LINE
  5
D6
330
1F
100
AcDbEntity
  8
BOTTOM_OUTSIDECUTPATH
100
AcDbLine
 10
13.1434916176
 20
26.0200231194
 30
0.0
 11
13.1434916176
 21
27.9522731194
 31
0.0
  0
LINE
  5
D7
330
1F
100
AcDbEntity
  8
BOTTOM_OUTSIDECUTPATH
100
AcDbLine
 10
13.1434916176
 20
27.9522731194
 30
0.0
 11
13.1406632176
 21
27.9522731194
 31
0.0
  0
LINE
  5
D8
330
1F
100
AcDbEntity
  8
BOTTOM_OUTSIDECUTPATH
100
AcDbLine
 10
13.0254916176
 20
28.0674447194
 30
0.0
 11
13.0254916176
 21
29.7693515194
 31
0.0
  0
LINE
  5
D9
330
1F
100
AcDbEntity
  8
BOTTOM_OUTSIDECUTPATH
100
AcDbLine
 10
13.1406632176
 20
29.8845231194
 30
0.0
 11
13.1434916176
 21
29.8845231194
 31
0.0
  0
LINE
  5
DA
330
1F
100
AcDbEntity
  8
BOTTOM_OUTSIDECUTPATH
100
AcDbLine
 10
13.1434916176
 20
29.8845231194
 30
0.0
 11
13.1434916176
 21
31.8167731194
 31
0.0
  0
LINE
  5
DB
330
1F
100
AcDbEntity
  8
BOTTOM_OUTSIDECUTPATH
100
AcDbLine
 10
13.1434916176
 20
31.8167731194
 30
0.0
 11
13.1406632176
 21
31.8167731194
 31
0.0
  0
LINE
  5
DC
330
1F
100
AcDbEntity
  8
BOTTOM_OUTSIDECUTPATH
100
AcDbLine
 10
13.0254916176
 20
31.9319447194
 30
0.0
 11
13.0254916176
 21
33.1181481194
 31
0.0
  0
LINE
  5
DD
330
1F
100
AcDbEntity
  8
BOTTOM_OUTSIDECUTPATH
100
AcDbLine
 10
13.0254916176
 20
33.1181481194
 30
0.0
 11
0.7614916176
 21
33.1181481194
 31
0.0
  0
LINE
  5
DE
330
1F
100
AcDbEntity
  8
FRONT_OUTSIDECUTPATH
100
AcDbLine
 10
20.3684933657
 20
22.1387089302
 30
0.0
 11
20.3684933657
 21
22.1413999908
 31
0.0
  0
LINE
  5
DF
330
1F
100
AcDbEntity
  8
FRONT_OUTSIDECUTPATH
100
AcDbLine
 10
20.5136649657
 20
22.2565710071
 30
0.0
 11
22.2155717657
 21
22.2565710071
 31
0.0
  0
LINE
  5
E0
330
1F
100
AcDbEntity
  8
FRONT_OUTSIDECUTPATH
100
AcDbLine
 10
22.3007433657
 20
22.1413999908
 30
0.0
 11
22.3007433657
 21
22.1386713328
 31
0.0
  0
LINE
  5
E1
330
1F
100
AcDbEntity
  8
FRONT_OUTSIDECUTPATH
100
AcDbLine
 10
22.3007433657
 20
22.1386713328
 30
0.0
 11
24.2329933657
 21
22.1386337354
 31
0.0
  0
LINE
  5
E2
330
1F
100
AcDbEntity
  8
FRONT_OUTSIDECUTPATH
100
AcDbLine
 10
24.2329933657
 20
22.1386337354
 30
0.0
 11
24.2329933657
 21
22.1413999908
 31
0.0
  0
LINE
  5
E3
330
1F
100
AcDbEntity
  8
FRONT_OUTSIDECUTPATH
100
AcDbLine
 10
24.3781649657
 20
22.2565710071
 30
0.0
 11
26.0800717657
 21
22.2565710071
 31
0.0
  0
LINE
  5
E4
330
1F
100
AcDbEntity
  8
FRONT_OUTSIDECUTPATH
100
AcDbLine
 10
26.1652433657
 20
22.1413999908
 30
0.0
 11
26.1652433657
 21
22.138596138
 31
0.0
  0
LINE
  5
E5
330
1F
100
AcDbEntity
  8
FRONT_OUTSIDECUTPATH
100
AcDbLine
 10
26.1652433657
 20
22.138596138
 30
0.0
 11
27.4752433655
 21
22.1385706482
 31
0.0
  0
LINE
  5
E6
330
1F
100
AcDbEntity
  8
FRONT_OUTSIDECUTPATH
100
AcDbLine
 10
27.5082007111
 20
24.1388988363
 30
0.0
 11
26.1982007111
 21
24.1388980827
 31
0.0
  0
LINE
  5
E7
330
1F
100
AcDbEntity
  8
FRONT_OUTSIDECUTPATH
100
AcDbLine
 10
26.1982007111
 20
24.1388980827
 30
0.0
 11
26.1982007111
 21
24.1360633992
 31
0.0
  0
LINE
  5
E8
330
1F
100
AcDbEntity
  8
FRONT_OUTSIDECUTPATH
100
AcDbLine
 10
26.0830291111
 20
24.0208917992
 30
0.0
 11
24.3811223111
 21
24.0208917992
 31
0.0
  0
LINE
  5
E9
330
1F
100
AcDbEntity
  8
FRONT_OUTSIDECUTPATH
100
AcDbLine
 10
24.2659507111
 20
24.1360633992
 30
0.0
 11
24.2659507111
 21
24.1388969711
 31
0.0
  0
LINE
  5
EA
330
1F
100
AcDbEntity
  8
FRONT_OUTSIDECUTPATH
100
AcDbLine
 10
24.2659507111
 20
24.1388969711
 30
0.0
 11
22.3337007111
 21
24.1388958596
 31
0.0
  0
LINE
  5
EB
330
1F
100
AcDbEntity
  8
FRONT_OUTSIDECUTPATH
100
AcDbLine
 10
22.3337007111
 20
24.1388958596
 30
0.0
 11
22.3337007111
 21
24.1360633992
 31
0.0
  0
LINE
  5
EC
330
1F
100
AcDbEntity
  8
FRONT_OUTSIDECUTPATH
100
AcDbLine
 10
22.2185291111
 20
24.0208917992
 30
0.0
 11
20.5166223111
 21
24.0208917992
 31
0.0
  0
LINE
  5
ED
330
1F
100
AcDbEntity
  8
FRONT_OUTSIDECUTPATH
100
AcDbLine
 10
20.4014507111
 20
24.1360633992
 30
0.0
 11
20.4014507111
 21
24.138894748
 31
0.0
  0
LINE
  5
EE
330
1F
100
AcDbEntity
  8
FRONT_OUTSIDECUTPATH
100
AcDbLine
 10
20.4014507111
 20
24.138894748
 30
0.0
 11
18.4692007111
 21
24.1388936365
 31
0.0
  0
LINE
  5
EF
330
1F
100
AcDbEntity
  8
RIGHT_OUTSIDECUTPATH
100
AcDbLine
 10
15.1062285557
 20
22.3890711055
 30
0.0
 11
15.1090569498
 21
22.3890653357
 31
0.0
  0
LINE
  5
F0
330
1F
100
AcDbEntity
  8
FRONT_OUTSIDECUTPATH
100
AcDbLine
 10
18.4692007111
 20
24.1388936365
 30
0.0
 11
18.4692007111
 21
24.1360633992
 31
0.0
  0
LINE
  5
F1
330
1F
100
AcDbEntity
  8
FRONT_OUTSIDECUTPATH
100
AcDbLine
 10
18.3540291111
 20
24.0208917992
 30
0.0
 11
16.6521223111
 21
24.0208917992
 31
0.0
  0
LINE
  5
F2
330
1F
100
AcDbEntity
  8
FRONT_OUTSIDECUTPATH
100
AcDbLine
 10
16.5369507111
 20
24.1360633992
 30
0.0
 11
16.5369507111
 21
24.1388925249
 31
0.0
  0
LINE
  5
F3
330
1F
100
AcDbEntity
  8
FRONT_OUTSIDECUTPATH
100
AcDbLine
 10
16.5369507111
 20
24.1388925249
 30
0.0
 11
15.2269507111
 21
24.1388917713
 31
0.0
  0
LINE
  5
F4
330
1F
100
AcDbEntity
  8
RIGHT_OUTSIDECUTPATH
100
AcDbLine
 10
27.6038623217
 20
22.3888769044
 30
0.0
 11
27.6066907217
 21
22.3888768285
 31
0.0
  0
LINE
  5
F5
330
1F
100
AcDbEntity
  8
BOTTOM_OUTSIDECUTPATH
100
AcDbLine
 10
30.4714573005
 20
32.9928129365
 30
0.0
 11
30.4714573005
 21
31.8066095365
 31
0.0
  0
LINE
  5
F6
330
1F
100
AcDbEntity
  8
BOTTOM_OUTSIDECUTPATH
100
AcDbLine
 10
30.3562857005
 20
31.6914379365
 30
0.0
 11
30.3534573005
 21
31.6914379365
 31
0.0
  0
LINE
  5
F7
330
1F
100
AcDbEntity
  8
BOTTOM_OUTSIDECUTPATH
100
AcDbLine
 10
30.3534573005
 20
31.6914379365
 30
0.0
 11
30.3534573005
 21
29.7591879365
 31
0.0
  0
LINE
  5
F8
330
1F
100
AcDbEntity
  8
BOTTOM_OUTSIDECUTPATH
100
AcDbLine
 10
30.3534573005
 20
29.7591879365
 30
0.0
 11
30.3562857005
 21
29.7591879365
 31
0.0
  0
LINE
  5
F9
330
1F
100
AcDbEntity
  8
BOTTOM_OUTSIDECUTPATH
100
AcDbLine
 10
30.4714573005
 20
29.6440163365
 30
0.0
 11
30.4714573005
 21
27.9421095365
 31
0.0
  0
LINE
  5
FA
330
1F
100
AcDbEntity
  8
BOTTOM_OUTSIDECUTPATH
100
AcDbLine
 10
30.3562857005
 20
27.8269379365
 30
0.0
 11
30.3534573005
 21
27.8269379365
 31
0.0
  0
LINE
  5
FB
330
1F
100
AcDbEntity
  8
BOTTOM_OUTSIDECUTPATH
100
AcDbLine
 10
30.3534573005
 20
27.8269379365
 30
0.0
 11
30.3534573005
 21
25.8946879365
 31
0.0
  0
LINE
  5
FC
330
1F
100
AcDbEntity
  8
BOTTOM_OUTSIDECUTPATH
100
AcDbLine
 10
30.3534573005
 20
25.8946879365
 30
0.0
 11
30.3562857005
 21
25.8946879365
 31
0.0
  0
LINE
  5
FD
330
1F
100
AcDbEntity
  8
BOTTOM_OUTSIDECUTPATH
100
AcDbLine
 10
30.4714573005
 20
25.7795163365
 30
0.0
 11
30.4714573005
 21
24.0776095365
 31
0.0
  0
LINE
  5
FE
330
1F
100
AcDbEntity
  8
BOTTOM_OUTSIDECUTPATH
100
AcDbLine
 10
30.3562857005
 20
23.9624379365
 30
0.0
 11
30.3534573005
 21
23.9624379365
 31
0.0
  0
LINE
  5
FF
330
1F
100
AcDbEntity
  8
BOTTOM_OUTSIDECUTPATH
100
AcDbLine
 10
30.3534573005
 20
23.9624379365
 30
0.0
 11
30.3534573005
 21
22.0301879365
 31
0.0
  0
LINE
  5
100
330
1F
100
AcDbEntity
  8
BOTTOM_OUTSIDECUTPATH
100
AcDbLine
 10
30.3534573005
 20
22.0301879365
 30
0.0
 11
30.3562857005
 21
22.0301879365
 31
0.0
  0
LINE
  5
101
330
1F
100
AcDbEntity
  8
BOTTOM_OUTSIDECUTPATH
100
AcDbLine
 10
30.4714573005
 20
21.9150163365
 30
0.0
 11
30.4714573005
 21
20.7288129365
 31
0.0
  0
LINE
  5
102
330
1F
100
AcDbEntity
  8
BOTTOM_OUTSIDECUTPATH
100
AcDbLine
 10
30.4714573005
 20
20.7288129365
 30
0.0
 11
31.6576607005
 21
20.7288129365
 31
0.0
  0
LINE
  5
103
330
1F
100
AcDbEntity
  8
BOTTOM_OUTSIDECUTPATH
100
AcDbLine
 10
31.7728323005
 20
20.6136413365
 30
0.0
 11
31.7728323005
 21
20.6108129365
 31
0.0
  0
LINE
  5
104
330
1F
100
AcDbEntity
  8
BOTTOM_OUTSIDECUTPATH
100
AcDbLine
 10
31.7728323005
 20
20.6108129365
 30
0.0
 11
33.7050823005
 21
20.6108129365
 31
0.0
  0
LINE
  5
105
330
1F
100
AcDbEntity
  8
BOTTOM_OUTSIDECUTPATH
100
AcDbLine
 10
33.7050823005
 20
20.6108129365
 30
0.0
 11
33.7050823005
 21
20.6136413365
 31
0.0
  0
LINE
  5
106
330
1F
100
AcDbEntity
  8
BOTTOM_OUTSIDECUTPATH
100
AcDbLine
 10
33.8202539005
 20
20.7288129365
 30
0.0
 11
35.5221607005
 21
20.7288129365
 31
0.0
  0
LINE
  5
107
330
1F
100
AcDbEntity
  8
BOTTOM_OUTSIDECUTPATH
100
AcDbLine
 10
35.6373323005
 20
20.6136413365
 30
0.0
 11
35.6373323005
 21
20.6108129365
 31
0.0
  0
LINE
  5
108
330
1F
100
AcDbEntity
  8
BOTTOM_OUTSIDECUTPATH
100
AcDbLine
 10
35.6373323005
 20
20.6108129365
 30
0.0
 11
37.5695823005
 21
20.6108129365
 31
0.0
  0
LINE
  5
109
330
1F
100
AcDbEntity
  8
BOTTOM_OUTSIDECUTPATH
100
AcDbLine
 10
37.5695823005
 20
20.6108129365
 30
0.0
 11
37.5695823005
 21
20.6136413365
 31
0.0
  0
LINE
  5
10A
330
1F
100
AcDbEntity
  8
BOTTOM_OUTSIDECUTPATH
100
AcDbLine
 10
37.6847539005
 20
20.7288129365
 30
0.0
 11
39.3866607005
 21
20.7288129365
 31
0.0
  0
LINE
  5
10B
330
1F
100
AcDbEntity
  8
BOTTOM_OUTSIDECUTPATH
100
AcDbLine
 10
39.5018323005
 20
20.6136413365
 30
0.0
 11
39.5018323005
 21
20.6108129365
 31
0.0
  0
LINE
  5
10C
330
1F
100
AcDbEntity
  8
BOTTOM_OUTSIDECUTPATH
100
AcDbLine
 10
39.5018323005
 20
20.6108129365
 30
0.0
 11
41.4340823005
 21
20.6108129365
 31
0.0
  0
LINE
  5
10D
330
1F
100
AcDbEntity
  8
BOTTOM_OUTSIDECUTPATH
100
AcDbLine
 10
41.4340823005
 20
20.6108129365
 30
0.0
 11
41.4340823005
 21
20.6136413365
 31
0.0
  0
LINE
  5
10E
330
1F
100
AcDbEntity
  8
BOTTOM_OUTSIDECUTPATH
100
AcDbLine
 10
41.5492539005
 20
20.7288129365
 30
0.0
 11
42.7354573005
 21
20.7288129365
 31
0.0
  0
LINE
  5
10F
330
1F
100
AcDbEntity
  8
BOTTOM_OUTSIDECUTPATH
100
AcDbLine
 10
42.7354573005
 20
20.7288129365
 30
0.0
 11
42.7354573005
 21
21.9150163365
 31
0.0
  0
LINE
  5
110
330
1F
100
AcDbEntity
  8
BOTTOM_OUTSIDECUTPATH
100
AcDbLine
 10
42.8506289005
 20
22.0301879365
 30
0.0
 11
42.8534573005
 21
22.0301879365
 31
0.0
  0
LINE
  5
111
330
1F
100
AcDbEntity
  8
BOTTOM_OUTSIDECUTPATH
100
AcDbLine
 10
42.8534573005
 20
22.0301879365
 30
0.0
 11
42.8534573005
 21
23.9624379365
 31
0.0
  0
LINE
  5
112
330
1F
100
AcDbEntity
  8
BOTTOM_OUTSIDECUTPATH
100
AcDbLine
 10
42.8534573005
 20
23.9624379365
 30
0.0
 11
42.8506289005
 21
23.9624379365
 31
0.0
  0
LINE
  5
113
330
1F
100
AcDbEntity
  8
BOTTOM_OUTSIDECUTPATH
100
AcDbLine
 10
42.7354573005
 20
24.0776095365
 30
0.0
 11
42.7354573005
 21
25.7795163365
 31
0.0
  0
LINE
  5
114
330
1F
100
AcDbEntity
  8
BOTTOM_OUTSIDECUTPATH
100
AcDbLine
 10
42.8506289005
 20
25.8946879365
 30
0.0
 11
42.8534573005
 21
25.8946879365
 31
0.0
  0
LINE
  5
115
330
1F
100
AcDbEntity
  8
BOTTOM_OUTSIDECUTPATH
100
AcDbLine
 10
42.8534573005
 20
25.8946879365
 30
0.0
 11
42.8534573005
 21
27.8269379365
 31
0.0
  0
LINE
  5
116
330
1F
100
AcDbEntity
  8
BOTTOM_OUTSIDECUTPATH
100
AcDbLine
 10
42.8534573005
 20
27.8269379365
 30
0.0
 11
42.8506289005
 21
27.8269379365
 31
0.0
  0
LINE
  5
117
330
1F
100
AcDbEntity
  8
BOTTOM_OUTSIDECUTPATH
100
AcDbLine
 10
42.7354573005
 20
27.9421095365
 30
0.0
 11
42.7354573005
 21
29.6440163365
 31
0.0
  0
LINE
  5
118
330
1F
100
AcDbEntity
  8
BOTTOM_OUTSIDECUTPATH
100
AcDbLine
 10
42.8506289005
 20
29.7591879365
 30
0.0
 11
42.8534573005
 21
29.7591879365
 31
0.0
  0
LINE
  5
119
330
1F
100
AcDbEntity
  8
BOTTOM_OUTSIDECUTPATH
100
AcDbLine
 10
42.8534573005
 20
29.7591879365
 30
0.0
 11
42.8534573005
 21
31.6914379365
 31
0.0
  0
LINE
  5
11A
330
1F
100
AcDbEntity
  8
BOTTOM_OUTSIDECUTPATH
100
AcDbLine
 10
42.8534573005
 20
31.6914379365
 30
0.0
 11
42.8506289005
 21
31.6914379365
 31
0.0
  0
LINE
  5
11B
330
1F
100
AcDbEntity
  8
BOTTOM_OUTSIDECUTPATH
100
AcDbLine
 10
42.7354573005
 20
31.8066095365
 30
0.0
 11
42.7354573005
 21
32.9928129365
 31
0.0
  0
LINE
  5
11C
330
1F
100
AcDbEntity
  8
BOTTOM_OUTSIDECUTPATH
100
AcDbLine
 10
42.7354573005
 20
32.9928129365
 30
0.0
 11
30.4714573005
 21
32.9928129365
 31
0.0
  0
LINE
  5
11D
330
1F
100
AcDbEntity
  8
FRONT_OUTSIDECUTPATH
100
AcDbLine
 10
15.2862121216
 20
28.2701032016
 30
0.0
 11
15.2862121216
 21
28.1352532016
 31
0.0
  0
LINE
  5
11E
330
1F
100
AcDbEntity
  8
RIGHT_OUTSIDECUTPATH
100
AcDbLine
 10
27.6689094773
 20
28.3853209989
 30
0.0
 11
27.6655187626
 21
29.8853171666
 31
0.0
  0
LINE
  5
11F
330
1F
100
AcDbEntity
  8
RIGHT_OUTSIDECUTPATH
100
AcDbLine
 10
27.6655187626
 20
29.8853171666
 30
0.0
 11
27.6655879772
 21
29.8853171666
 31
0.0
  0
LINE
  5
120
330
1F
100
AcDbEntity
  8
FRONT_OUTSIDECUTPATH
100
AcDbLine
 10
16.7113837214
 20
28.2530151776
 30
0.0
 11
18.4132905214
 21
28.2530151776
 31
0.0
  0
LINE
  5
121
330
1F
100
AcDbEntity
  8
RIGHT_OUTSIDECUTPATH
100
AcDbLine
 10
27.6366745165
 20
31.0438725223
 30
0.0
 11
27.6332838018
 21
32.5438686899
 31
0.0
  0
LINE
  5
122
330
1F
100
AcDbEntity
  8
RIGHT_OUTSIDECUTPATH
100
AcDbLine
 10
27.6332838018
 20
32.5438686899
 30
0.0
 11
27.6333530164
 21
32.5438686899
 31
0.0
  0
LINE
  5
123
330
1F
100
AcDbEntity
  8
FRONT_OUTSIDECUTPATH
100
AcDbLine
 10
16.6791487605
 20
30.9115667009
 30
0.0
 11
18.3810555605
 21
30.9115667009
 31
0.0
  0
LINE
  5
124
330
1F
100
AcDbEntity
  8
FRONT_OUTSIDECUTPATH
100
AcDbLine
 10
18.4662271605
 20
30.7963956846
 30
0.0
 11
18.4662271605
 21
30.7937422214
 31
0.0
  0
LINE
  5
125
330
1F
100
AcDbEntity
  8
FRONT_OUTSIDECUTPATH
100
AcDbLine
 10
18.4662271605
 20
30.7937422214
 30
0.0
 11
20.3984771605
 21
30.793704624
 31
0.0
  0
LINE
  5
126
330
1F
100
AcDbEntity
  8
FRONT_OUTSIDECUTPATH
100
AcDbLine
 10
20.3984771605
 20
30.793704624
 30
0.0
 11
20.3984771605
 21
30.7963956846
 31
0.0
  0
LINE
  5
127
330
1F
100
AcDbEntity
  8
FRONT_OUTSIDECUTPATH
100
AcDbLine
 10
20.5436487605
 20
30.9115667009
 30
0.0
 11
22.2455555605
 21
30.9115667009
 31
0.0
  0
LINE
  5
128
330
1F
100
AcDbEntity
  8
FRONT_OUTSIDECUTPATH
100
AcDbLine
 10
22.3307271605
 20
30.7963956846
 30
0.0
 11
22.3307271605
 21
30.7936670266
 31
0.0
  0
LINE
  5
129
330
1F
100
AcDbEntity
  8
FRONT_OUTSIDECUTPATH
100
AcDbLine
 10
22.3307271605
 20
30.7936670266
 30
0.0
 11
24.2629771605
 21
30.7936294292
 31
0.0
  0
LINE
  5
12A
330
1F
100
AcDbEntity
  8
FRONT_OUTSIDECUTPATH
100
AcDbLine
 10
24.2629771605
 20
30.7936294292
 30
0.0
 11
24.2629771605
 21
30.7963956846
 31
0.0
  0
LINE
  5
12B
330
1F
100
AcDbEntity
  8
FRONT_OUTSIDECUTPATH
100
AcDbLine
 10
24.4081487605
 20
30.9115667009
 30
0.0
 11
26.1100555605
 21
30.9115667009
 31
0.0
  0
LINE
  5
12C
330
1F
100
AcDbEntity
  8
FRONT_OUTSIDECUTPATH
100
AcDbLine
 10
26.1952271605
 20
30.7963956846
 30
0.0
 11
26.1952271605
 21
30.7935918317
 31
0.0
  0
LINE
  5
12D
330
1F
100
AcDbEntity
  8
FRONT_OUTSIDECUTPATH
100
AcDbLine
 10
26.1952271605
 20
30.7935918317
 30
0.0
 11
27.5052271603
 21
30.793566342
 31
0.0
  0
LINE
  5
12E
330
1F
100
AcDbEntity
  8
FRONT_OUTSIDECUTPATH
100
AcDbLine
 10
27.5381845059
 20
32.7938945301
 30
0.0
 11
15.2569345059
 21
32.7938874651
 31
0.0
  0
LINE
  5
12F
330
1F
100
AcDbEntity
  8
RIGHT_OUTSIDECUTPATH
100
AcDbLine
 10
15.1362123505
 20
31.0440667992
 30
0.0
 11
15.1390407446
 21
31.0440610294
 31
0.0
  0
LINE
  5
130
330
1F
100
AcDbEntity
  8
FRONT_OUTSIDECUTPATH
100
AcDbLine
 10
18.4984621214
 20
28.1378441613
 30
0.0
 11
18.4984621214
 21
28.1351906981
 31
0.0
  0
LINE
  5
131
330
1F
100
AcDbEntity
  8
FRONT_OUTSIDECUTPATH
100
AcDbLine
 10
18.4984621214
 20
28.1351906981
 30
0.0
 11
20.4307121214
 21
28.1351531007
 31
0.0
  0
LINE
  5
132
330
1F
100
AcDbEntity
  8
FRONT_OUTSIDECUTPATH
100
AcDbLine
 10
20.4307121214
 20
28.1351531007
 30
0.0
 11
20.4307121214
 21
28.1378441613
 31
0.0
  0
LINE
  5
133
330
1F
100
AcDbEntity
  8
FRONT_OUTSIDECUTPATH
100
AcDbLine
 10
20.5758837214
 20
28.2530151776
 30
0.0
 11
22.2777905214
 21
28.2530151776
 31
0.0
  0
LINE
  5
134
330
1F
100
AcDbEntity
  8
FRONT_OUTSIDECUTPATH
100
AcDbLine
 10
22.3629621214
 20
28.1378441613
 30
0.0
 11
22.3629621214
 21
28.1351155033
 31
0.0
  0
LINE
  5
135
330
1F
100
AcDbEntity
  8
FRONT_OUTSIDECUTPATH
100
AcDbLine
 10
22.3629621214
 20
28.1351155033
 30
0.0
 11
24.2952121214
 21
28.1350779058
 31
0.0
  0
LINE
  5
136
330
1F
100
AcDbEntity
  8
FRONT_OUTSIDECUTPATH
100
AcDbLine
 10
24.2952121214
 20
28.1350779058
 30
0.0
 11
24.2952121214
 21
28.1378441613
 31
0.0
  0
LINE
  5
137
330
1F
100
AcDbEntity
  8
FRONT_OUTSIDECUTPATH
100
AcDbLine
 10
24.4403837214
 20
28.2530151776
 30
0.0
 11
26.1422905214
 21
28.2530151776
 31
0.0
  0
LINE
  5
138
330
1F
100
AcDbEntity
  8
FRONT_OUTSIDECUTPATH
100
AcDbLine
 10
26.2274621214
 20
28.1378441613
 30
0.0
 11
26.2274621214
 21
28.1350403084
 31
0.0
  0
LINE
  5
139
330
1F
100
AcDbEntity
  8
FRONT_OUTSIDECUTPATH
100
AcDbLine
 10
26.2274621214
 20
28.1350403084
 30
0.0
 11
27.5374621211
 21
28.1350148187
 31
0.0
  0
LINE
  5
13A
330
1F
100
AcDbEntity
  8
RIGHT_OUTSIDECUTPATH
100
AcDbLine
 10
15.1684473114
 20
28.3855152759
 30
0.0
 11
15.1712757055
 21
28.3855095061
 31
0.0
  0
LINE
  5
13B
330
1F
100
AcDbEntity
  8
FRONT_OUTSIDECUTPATH
100
AcDbLine
 10
27.5704194668
 20
30.1353430068
 30
0.0
 11
15.2891694668
 21
30.1353359418
 31
0.0
  0
LINE
  5
13C
330
1F
100
AcDbEntity
  8
RIGHT_OUTSIDECUTPATH
100
AcDbLine
 10
27.6660810773
 20
28.3853210748
 30
0.0
 11
27.6689094773
 21
28.3853209989
 31
0.0
  0
LINE
  5
13D
330
1F
100
AcDbEntity
  8
RIGHT_OUTSIDECUTPATH
100
AcDbLine
 10
27.6338461165
 20
31.0438725981
 30
0.0
 11
27.6366745165
 21
31.0438725223
 31
0.0
  0
ARC
  5
13E
330
1F
100
AcDbEntity
  8
RIGHT_OUTSIDECUTPATH
100
AcDbCircle
 10
15.1940119156
 20
27.1626053523
 30
0.0
 40
0.0814386193601007
100
AcDbArc
 50
224.8831194422
 51
44.9221108921
  0
ARC
  5
13F
330
1F
100
AcDbEntity
  8
RIGHT_OUTSIDECUTPATH
100
AcDbCircle
 10
27.5555109332
 20
27.1418818632
 30
0.0
 40
0.0814387749775471
100
AcDbArc
 50
106.1006018277
 51
333.0326284894
  0
ARC
  5
140
330
1F
100
AcDbEntity
  8
FRONT_OUTSIDECUTPATH
100
AcDbCircle
 10
26.1162159794
 20
25.3920146876
 30
0.0
 40
0.081438619360118
100
AcDbArc
 50
334.9072125496
 51
98.0603323778
  0
ARC
  5
141
330
1F
100
AcDbEntity
  8
FRONT_OUTSIDECUTPATH
100
AcDbCircle
 10
24.3473347692
 20
25.3935967012
 30
0.0
 40
0.0966210945033895
100
AcDbArc
 50
54.9015986224
 51
201.9514307387
  0
ARC
  5
142
330
1F
100
AcDbEntity
  8
FRONT_OUTSIDECUTPATH
100
AcDbCircle
 10
22.2517159794
 20
25.3920146876
 30
0.0
 40
0.0814386193601191
100
AcDbArc
 50
334.9072125496
 51
98.0603323778
  0
ARC
  5
143
330
1F
100
AcDbEntity
  8
FRONT_OUTSIDECUTPATH
100
AcDbCircle
 10
20.4828347692
 20
25.3935967012
 30
0.0
 40
0.0966210945033537
100
AcDbArc
 50
54.9015986224
 51
201.9514307387
  0
ARC
  5
144
330
1F
100
AcDbEntity
  8
FRONT_OUTSIDECUTPATH
100
AcDbCircle
 10
18.3872159794
 20
25.3920146876
 30
0.0
 40
0.0814386193601246
100
AcDbArc
 50
334.9072125497
 51
98.0603323777
  0
ARC
  5
145
330
1F
100
AcDbEntity
  8
FRONT_OUTSIDECUTPATH
100
AcDbCircle
 10
16.6163044003
 20
25.4150629725
 30
0.0
 40
0.0814386193601147
100
AcDbArc
 50
45.0
 51
225.0
  0
ARC
  5
146
330
1F
100
AcDbEntity
  8
FRONT_OUTSIDECUTPATH
100
AcDbCircle
 10
16.6192617457
 20
27.2945553646
 30
0.0
 40
0.0814386193600569
100
AcDbArc
 50
135.0
 51
315.0
  0
ARC
  5
147
330
1F
100
AcDbEntity
  8
FRONT_OUTSIDECUTPATH
100
AcDbCircle
 10
18.4363401457
 20
27.2945553646
 30
0.0
 40
0.0814386193601197
100
AcDbArc
 50
224.9999999999
 51
45.0
  0
ARC
  5
148
330
1F
100
AcDbEntity
  8
RIGHT_OUTSIDECUTPATH
100
AcDbCircle
 10
15.1912503925
 20
25.5474399488
 30
0.0
 40
0.0814386193601196
100
AcDbArc
 50
314.8831194422
 51
134.8831194422
  0
ARC
  5
149
330
1F
100
AcDbEntity
  8
FRONT_OUTSIDECUTPATH
100
AcDbCircle
 10
20.4837617457
 20
27.2945553646
 30
0.0
 40
0.0814386193600996
100
AcDbArc
 50
135.0000000001
 51
315.0
  0
ARC
  5
14A
330
1F
100
AcDbEntity
  8
FRONT_OUTSIDECUTPATH
100
AcDbCircle
 10
22.3008401457
 20
27.2945553646
 30
0.0
 40
0.0814386193601046
100
AcDbArc
 50
225.0
 51
44.9999999999
  0
ARC
  5
14B
330
1F
100
AcDbEntity
  8
FRONT_OUTSIDECUTPATH
100
AcDbCircle
 10
24.3482617457
 20
27.2945553646
 30
0.0
 40
0.0814386193601272
100
AcDbArc
 50
135.0000000001
 51
315.0
  0
ARC
  5
14C
330
1F
100
AcDbEntity
  8
FRONT_OUTSIDECUTPATH
100
AcDbCircle
 10
26.1653401457
 20
27.2945553646
 30
0.0
 40
0.0814386193601247
100
AcDbArc
 50
225.0
 51
45.0
  0
ARC
  5
14D
330
1F
100
AcDbEntity
  8
RIGHT_OUTSIDECUTPATH
100
AcDbCircle
 10
27.5815273753
 20
25.5280793498
 30
0.0
 40
0.0901358721570776
100
AcDbArc
 50
58.5265984993
 51
205.1979102859
  0
ARC
  5
14E
330
1F
100
AcDbEntity
  8
RIGHT_OUTSIDECUTPATH
100
AcDbCircle
 10
15.169286681
 20
23.9465275869
 30
0.0
 40
0.0814386193601
100
AcDbArc
 50
224.8831194422
 51
44.9221108921
  0
ARC
  5
14F
330
1F
100
AcDbEntity
  8
RIGHT_OUTSIDECUTPATH
100
AcDbCircle
 10
27.5307856986
 20
23.9258040978
 30
0.0
 40
0.0814387749775471
100
AcDbArc
 50
106.1006018277
 51
333.0326284894
  0
ARC
  5
150
330
1F
100
AcDbEntity
  8
FRONT_OUTSIDECUTPATH
100
AcDbCircle
 10
26.0914907448
 20
22.1759369222
 30
0.0
 40
0.081438619360118
100
AcDbArc
 50
334.9072125496
 51
98.0603323778
  0
ARC
  5
151
330
1F
100
AcDbEntity
  8
FRONT_OUTSIDECUTPATH
100
AcDbCircle
 10
24.3226095346
 20
22.1775189358
 30
0.0
 40
0.0966210945033895
100
AcDbArc
 50
54.9015986224
 51
201.9514307387
  0
ARC
  5
152
330
1F
100
AcDbEntity
  8
FRONT_OUTSIDECUTPATH
100
AcDbCircle
 10
22.2269907448
 20
22.1759369222
 30
0.0
 40
0.0814386193601191
100
AcDbArc
 50
334.9072125496
 51
98.0603323778
  0
ARC
  5
153
330
1F
100
AcDbEntity
  8
RIGHT_OUTSIDECUTPATH
100
AcDbCircle
 10
15.2315054366
 20
29.9429717573
 30
0.0
 40
0.0814386193601
100
AcDbArc
 50
224.8831194422
 51
44.9221108921
  0
ARC
  5
154
330
1F
100
AcDbEntity
  8
RIGHT_OUTSIDECUTPATH
100
AcDbCircle
 10
27.5930044543
 20
29.9222482683
 30
0.0
 40
0.081438774977628
100
AcDbArc
 50
106.1006018274
 51
333.0326284896
  0
ARC
  5
155
330
1F
100
AcDbEntity
  8
FRONT_OUTSIDECUTPATH
100
AcDbCircle
 10
26.1537095005
 20
28.1723810927
 30
0.0
 40
0.0814386193601276
100
AcDbArc
 50
334.9072125496
 51
98.0603323778
  0
ARC
  5
156
330
1F
100
AcDbEntity
  8
FRONT_OUTSIDECUTPATH
100
AcDbCircle
 10
20.4581095346
 20
22.1775189358
 30
0.0
 40
0.096621094503355
100
AcDbArc
 50
54.9015986224
 51
201.9514307387
  0
ARC
  5
157
330
1F
100
AcDbEntity
  8
FRONT_OUTSIDECUTPATH
100
AcDbCircle
 10
18.3624907448
 20
22.1759369222
 30
0.0
 40
0.0814386193601246
100
AcDbArc
 50
334.9072125497
 51
98.0603323777
  0
ARC
  5
158
330
1F
100
AcDbEntity
  8
FRONT_OUTSIDECUTPATH
100
AcDbCircle
 10
16.5915791657
 20
22.1989852071
 30
0.0
 40
0.0814386193601147
100
AcDbArc
 50
45.0
 51
225.0
  0
ARC
  5
159
330
1F
100
AcDbEntity
  8
RIGHT_OUTSIDECUTPATH
100
AcDbCircle
 10
15.1992704758
 20
32.6015232806
 30
0.0
 40
0.0814386193601025
100
AcDbArc
 50
224.8831194422
 51
44.9221108921
  0
ARC
  5
15A
330
1F
100
AcDbEntity
  8
BOTTOM_OUTSIDECUTPATH
100
AcDbCircle
 10
13.0830774176
 20
31.8743589194
 30
0.0
 40
0.0814386193601021
100
AcDbArc
 50
135.0
 51
315.0
  0
ARC
  5
15B
330
1F
100
AcDbEntity
  8
BOTTOM_OUTSIDECUTPATH
100
AcDbCircle
 10
13.0830774176
 20
29.8269373194
 30
0.0
 40
0.0814386193601121
100
AcDbArc
 50
45.0
 51
225.0
  0
ARC
  5
15C
330
1F
100
AcDbEntity
  8
BOTTOM_OUTSIDECUTPATH
100
AcDbCircle
 10
13.0830774176
 20
28.0098589194
 30
0.0
 40
0.0814386193601021
100
AcDbArc
 50
135.0
 51
315.0
  0
ARC
  5
15D
330
1F
100
AcDbEntity
  8
BOTTOM_OUTSIDECUTPATH
100
AcDbCircle
 10
13.0830774176
 20
25.9624373194
 30
0.0
 40
0.0814386193601096
100
AcDbArc
 50
45.0
 51
225.0
  0
ARC
  5
15E
330
1F
100
AcDbEntity
  8
BOTTOM_OUTSIDECUTPATH
100
AcDbCircle
 10
13.0830774176
 20
24.1453589194
 30
0.0
 40
0.0814386193601046
100
AcDbArc
 50
135.0
 51
315.0
  0
ARC
  5
15F
330
1F
100
AcDbEntity
  8
BOTTOM_OUTSIDECUTPATH
100
AcDbCircle
 10
13.0830774176
 20
22.0979373194
 30
0.0
 40
0.0814386193601084
100
AcDbArc
 50
45.0
 51
225.0
  0
ARC
  5
160
330
1F
100
AcDbEntity
  8
BOTTOM_OUTSIDECUTPATH
100
AcDbCircle
 10
11.7817024176
 20
20.7965623194
 30
0.0
 40
0.0814386193601071
100
AcDbArc
 50
45.0
 51
225.0
  0
ARC
  5
161
330
1F
100
AcDbEntity
  8
BOTTOM_OUTSIDECUTPATH
100
AcDbCircle
 10
9.7342808176
 20
20.7965623194
 30
0.0
 40
0.0814386193601084
100
AcDbArc
 50
315.0
 51
135.0
  0
ARC
  5
162
330
1F
100
AcDbEntity
  8
BOTTOM_OUTSIDECUTPATH
100
AcDbCircle
 10
7.9172024176
 20
20.7965623194
 30
0.0
 40
0.0814386193601065
100
AcDbArc
 50
45.0
 51
225.0
  0
ARC
  5
163
330
1F
100
AcDbEntity
  8
BOTTOM_OUTSIDECUTPATH
100
AcDbCircle
 10
5.8697808176
 20
20.7965623194
 30
0.0
 40
0.0814386193601071
100
AcDbArc
 50
315.0
 51
135.0
  0
ARC
  5
164
330
1F
100
AcDbEntity
  8
BOTTOM_OUTSIDECUTPATH
100
AcDbCircle
 10
4.0527024176
 20
20.7965623194
 30
0.0
 40
0.0814386193601065
100
AcDbArc
 50
45.0
 51
225.0
  0
ARC
  5
165
330
1F
100
AcDbEntity
  8
BOTTOM_OUTSIDECUTPATH
100
AcDbCircle
 10
2.0052808176
 20
20.7965623194
 30
0.0
 40
0.0814386193601034
100
AcDbArc
 50
315.0
 51
135.0
  0
ARC
  5
166
330
1F
100
AcDbEntity
  8
BOTTOM_OUTSIDECUTPATH
100
AcDbCircle
 10
0.7039058176
 20
22.0979373194
 30
0.0
 40
0.0814386193601088
100
AcDbArc
 50
315.0
 51
135.0
  0
ARC
  5
167
330
1F
100
AcDbEntity
  8
BOTTOM_OUTSIDECUTPATH
100
AcDbCircle
 10
0.7039058176
 20
24.1453589194
 30
0.0
 40
0.0814386193600989
100
AcDbArc
 50
225.0
 51
45.0
  0
ARC
  5
168
330
1F
100
AcDbEntity
  8
BOTTOM_OUTSIDECUTPATH
100
AcDbCircle
 10
0.7039058176
 20
25.9624373194
 30
0.0
 40
0.0814386193601076
100
AcDbArc
 50
315.0
 51
135.0
  0
ARC
  5
169
330
1F
100
AcDbEntity
  8
BOTTOM_OUTSIDECUTPATH
100
AcDbCircle
 10
0.7039058176
 20
28.0098589194
 30
0.0
 40
0.0814386193601026
100
AcDbArc
 50
225.0
 51
45.0
  0
ARC
  5
16A
330
1F
100
AcDbEntity
  8
BOTTOM_OUTSIDECUTPATH
100
AcDbCircle
 10
0.7039058176
 20
29.8269373194
 30
0.0
 40
0.0814386193601088
100
AcDbArc
 50
315.0
 51
135.0
  0
ARC
  5
16B
330
1F
100
AcDbEntity
  8
BOTTOM_OUTSIDECUTPATH
100
AcDbCircle
 10
0.7039058176
 20
31.8743589194
 30
0.0
 40
0.0814386193601026
100
AcDbArc
 50
225.0
 51
45.0
  0
ARC
  5
16C
330
1F
100
AcDbEntity
  8
FRONT_OUTSIDECUTPATH
100
AcDbCircle
 10
16.5945365111
 20
24.0784775992
 30
0.0
 40
0.0814386193600569
100
AcDbArc
 50
135.0
 51
315.0
  0
ARC
  5
16D
330
1F
100
AcDbEntity
  8
FRONT_OUTSIDECUTPATH
100
AcDbCircle
 10
18.4116149111
 20
24.0784775992
 30
0.0
 40
0.0814386193601197
100
AcDbArc
 50
224.9999999999
 51
45.0
  0
ARC
  5
16E
330
1F
100
AcDbEntity
  8
RIGHT_OUTSIDECUTPATH
100
AcDbCircle
 10
15.1665251579
 20
22.3313621834
 30
0.0
 40
0.0814386193601196
100
AcDbArc
 50
314.8831194422
 51
134.8831194422
  0
ARC
  5
16F
330
1F
100
AcDbEntity
  8
FRONT_OUTSIDECUTPATH
100
AcDbCircle
 10
20.4590365111
 20
24.0784775992
 30
0.0
 40
0.0814386193600996
100
AcDbArc
 50
135.0000000001
 51
315.0
  0
ARC
  5
170
330
1F
100
AcDbEntity
  8
FRONT_OUTSIDECUTPATH
100
AcDbCircle
 10
22.2761149111
 20
24.0784775992
 30
0.0
 40
0.0814386193601021
100
AcDbArc
 50
225.0
 51
44.9999999999
  0
ARC
  5
171
330
1F
100
AcDbEntity
  8
FRONT_OUTSIDECUTPATH
100
AcDbCircle
 10
24.3235365111
 20
24.0784775992
 30
0.0
 40
0.0814386193601272
100
AcDbArc
 50
135.0000000001
 51
315.0
  0
ARC
  5
172
330
1F
100
AcDbEntity
  8
FRONT_OUTSIDECUTPATH
100
AcDbCircle
 10
26.1406149111
 20
24.0784775992
 30
0.0
 40
0.0814386193601247
100
AcDbArc
 50
225.0
 51
45.0
  0
ARC
  5
173
330
1F
100
AcDbEntity
  8
RIGHT_OUTSIDECUTPATH
100
AcDbCircle
 10
27.5568021407
 20
22.3120015844
 30
0.0
 40
0.0901358721570776
100
AcDbArc
 50
58.5265984993
 51
205.1979102859
  0
ARC
  5
174
330
1F
100
AcDbEntity
  8
BOTTOM_OUTSIDECUTPATH
100
AcDbCircle
 10
42.7930431005
 20
31.7490237365
 30
0.0
 40
0.0814386193601071
100
AcDbArc
 50
135.0
 51
315.0
  0
ARC
  5
175
330
1F
100
AcDbEntity
  8
BOTTOM_OUTSIDECUTPATH
100
AcDbCircle
 10
42.7930431005
 20
29.7016021365
 30
0.0
 40
0.0814386193601172
100
AcDbArc
 50
45.0
 51
225.0
  0
ARC
  5
176
330
1F
100
AcDbEntity
  8
BOTTOM_OUTSIDECUTPATH
100
AcDbCircle
 10
42.7930431005
 20
27.8845237365
 30
0.0
 40
0.0814386193601071
100
AcDbArc
 50
135.0
 51
315.0
  0
ARC
  5
177
330
1F
100
AcDbEntity
  8
BOTTOM_OUTSIDECUTPATH
100
AcDbCircle
 10
42.7930431005
 20
25.8371021365
 30
0.0
 40
0.0814386193601121
100
AcDbArc
 50
45.0
 51
225.0
  0
ARC
  5
178
330
1F
100
AcDbEntity
  8
BOTTOM_OUTSIDECUTPATH
100
AcDbCircle
 10
42.7930431005
 20
24.0200237365
 30
0.0
 40
0.0814386193601096
100
AcDbArc
 50
135.0
 51
315.0
  0
ARC
  5
179
330
1F
100
AcDbEntity
  8
BOTTOM_OUTSIDECUTPATH
100
AcDbCircle
 10
42.7930431005
 20
21.9726021365
 30
0.0
 40
0.0814386193601147
100
AcDbArc
 50
45.0
 51
225.0
  0
ARC
  5
17A
330
1F
100
AcDbEntity
  8
BOTTOM_OUTSIDECUTPATH
100
AcDbCircle
 10
41.4916681005
 20
20.6712271365
 30
0.0
 40
0.0814386193601121
100
AcDbArc
 50
45.0
 51
225.0
  0
ARC
  5
17B
330
1F
100
AcDbEntity
  8
BOTTOM_OUTSIDECUTPATH
100
AcDbCircle
 10
39.4442465005
 20
20.6712271365
 30
0.0
 40
0.0814386193601096
100
AcDbArc
 50
315.0
 51
135.0
  0
ARC
  5
17C
330
1F
100
AcDbEntity
  8
BOTTOM_OUTSIDECUTPATH
100
AcDbCircle
 10
37.6271681005
 20
20.6712271365
 30
0.0
 40
0.0814386193601096
100
AcDbArc
 50
45.0
 51
225.0
  0
ARC
  5
17D
330
1F
100
AcDbEntity
  8
BOTTOM_OUTSIDECUTPATH
100
AcDbCircle
 10
35.5797465005
 20
20.6712271365
 30
0.0
 40
0.0814386193601096
100
AcDbArc
 50
315.0
 51
135.0
  0
ARC
  5
17E
330
1F
100
AcDbEntity
  8
BOTTOM_OUTSIDECUTPATH
100
AcDbCircle
 10
33.7626681005
 20
20.6712271365
 30
0.0
 40
0.0814386193601096
100
AcDbArc
 50
45.0
 51
225.0
  0
ARC
  5
17F
330
1F
100
AcDbEntity
  8
BOTTOM_OUTSIDECUTPATH
100
AcDbCircle
 10
31.7152465005
 20
20.6712271365
 30
0.0
 40
0.0814386193601071
100
AcDbArc
 50
315.0
 51
135.0
  0
ARC
  5
180
330
1F
100
AcDbEntity
  8
BOTTOM_OUTSIDECUTPATH
100
AcDbCircle
 10
30.4138715005
 20
21.9726021365
 30
0.0
 40
0.0814386193601071
100
AcDbArc
 50
315.0
 51
135.0
  0
ARC
  5
181
330
1F
100
AcDbEntity
  8
BOTTOM_OUTSIDECUTPATH
100
AcDbCircle
 10
30.4138715005
 20
24.0200237365
 30
0.0
 40
0.0814386193600996
100
AcDbArc
 50
225.0
 51
45.0
  0
ARC
  5
182
330
1F
100
AcDbEntity
  8
BOTTOM_OUTSIDECUTPATH
100
AcDbCircle
 10
30.4138715005
 20
25.8371021365
 30
0.0
 40
0.0814386193601096
100
AcDbArc
 50
315.0
 51
135.0
  0
ARC
  5
183
330
1F
100
AcDbEntity
  8
BOTTOM_OUTSIDECUTPATH
100
AcDbCircle
 10
30.4138715005
 20
27.8845237365
 30
0.0
 40
0.0814386193601021
100
AcDbArc
 50
225.0
 51
45.0
  0
ARC
  5
184
330
1F
100
AcDbEntity
  8
BOTTOM_OUTSIDECUTPATH
100
AcDbCircle
 10
30.4138715005
 20
29.7016021365
 30
0.0
 40
0.0814386193601071
100
AcDbArc
 50
315.0
 51
135.0
  0
ARC
  5
185
330
1F
100
AcDbEntity
  8
BOTTOM_OUTSIDECUTPATH
100
AcDbCircle
 10
30.4138715005
 20
31.7490237365
 30
0.0
 40
0.0814386193601021
100
AcDbArc
 50
225.0
 51
45.0
  0
ARC
  5
186
330
1F
100
AcDbEntity
  8
FRONT_OUTSIDECUTPATH
100
AcDbCircle
 10
24.3848282902
 20
28.1739631063
 30
0.0
 40
0.0966210945034612
100
AcDbArc
 50
54.9015986224
 51
201.9514307388
  0
ARC
  5
187
330
1F
100
AcDbEntity
  8
FRONT_OUTSIDECUTPATH
100
AcDbCircle
 10
22.2892095005
 20
28.1723810927
 30
0.0
 40
0.0814386193601973
100
AcDbArc
 50
334.9072125495
 51
98.0603323778
  0
ARC
  5
188
330
1F
100
AcDbEntity
  8
FRONT_OUTSIDECUTPATH
100
AcDbCircle
 10
20.5203282902
 20
28.1739631063
 30
0.0
 40
0.0966210945033478
100
AcDbArc
 50
54.9015986224
 51
201.9514307386
  0
ARC
  5
189
330
1F
100
AcDbEntity
  8
RIGHT_OUTSIDECUTPATH
100
AcDbCircle
 10
27.5607694935
 20
32.5807997916
 30
0.0
 40
0.0814387749775437
100
AcDbArc
 50
106.1006018277
 51
333.0326284894
  0
ARC
  5
18A
330
1F
100
AcDbEntity
  8
FRONT_OUTSIDECUTPATH
100
AcDbCircle
 10
26.1214745396
 20
30.830932616
 30
0.0
 40
0.081438619360118
100
AcDbArc
 50
334.9072125496
 51
98.0603323778
  0
ARC
  5
18B
330
1F
100
AcDbEntity
  8
FRONT_OUTSIDECUTPATH
100
AcDbCircle
 10
24.3525933294
 20
30.8325146296
 30
0.0
 40
0.0966210945033895
100
AcDbArc
 50
54.9015986224
 51
201.9514307387
  0
ARC
  5
18C
330
1F
100
AcDbEntity
  8
FRONT_OUTSIDECUTPATH
100
AcDbCircle
 10
22.2569745396
 20
30.830932616
 30
0.0
 40
0.0814386193601191
100
AcDbArc
 50
334.9072125496
 51
98.0603323778
  0
ARC
  5
18D
330
1F
100
AcDbEntity
  8
FRONT_OUTSIDECUTPATH
100
AcDbCircle
 10
20.4880933294
 20
30.8325146296
 30
0.0
 40
0.0966210945033504
100
AcDbArc
 50
54.9015986224
 51
201.9514307387
  0
ARC
  5
18E
330
1F
100
AcDbEntity
  8
FRONT_OUTSIDECUTPATH
100
AcDbCircle
 10
18.3924745396
 20
30.830932616
 30
0.0
 40
0.0814386193601231
100
AcDbArc
 50
334.9072125497
 51
98.0603323777
  0
ARC
  5
18F
330
1F
100
AcDbEntity
  8
FRONT_OUTSIDECUTPATH
100
AcDbCircle
 10
16.6215629605
 20
30.8539809009
 30
0.0
 40
0.0814386193601172
100
AcDbArc
 50
45.0
 51
225.0
  0
ARC
  5
190
330
1F
100
AcDbEntity
  8
FRONT_OUTSIDECUTPATH
100
AcDbCircle
 10
18.4247095005
 20
28.1723810927
 30
0.0
 40
0.08143861936012
100
AcDbArc
 50
334.9072125497
 51
98.0603323777
  0
ARC
  5
191
330
1F
100
AcDbEntity
  8
FRONT_OUTSIDECUTPATH
100
AcDbCircle
 10
16.6537979214
 20
28.1954293776
 30
0.0
 40
0.0814386193601147
100
AcDbArc
 50
45.0
 51
225.0
  0
ARC
  5
192
330
1F
100
AcDbEntity
  8
RIGHT_OUTSIDECUTPATH
100
AcDbCircle
 10
15.1965089527
 20
30.9863578772
 30
0.0
 40
0.0814386193601233
100
AcDbArc
 50
314.8831194422
 51
134.8831194422
  0
ARC
  5
193
330
1F
100
AcDbEntity
  8
RIGHT_OUTSIDECUTPATH
100
AcDbCircle
 10
15.2287439135
 20
28.3278063538
 30
0.0
 40
0.0814386193601196
100
AcDbArc
 50
314.8831194422
 51
134.8831194422
  0
ARC
  5
194
330
1F
100
AcDbEntity
  8
RIGHT_OUTSIDECUTPATH
100
AcDbCircle
 10
27.6190208963
 20
28.3084457549
 30
0.0
 40
0.0901358721570531
100
AcDbArc
 50
58.5265984994
 51
205.197910286
  0
ARC
  5
195
330
1F
100
AcDbEntity
  8
RIGHT_OUTSIDECUTPATH
100
AcDbCircle
 10
27.5867859355
 20
30.9669972782
 30
0.0
 40
0.0901358721570744
100
AcDbArc
 50
58.5265984993
 51
205.1979102859
  0
ENDSEC
  0
SECTION
  2
OBJECTS
  0
DICTIONARY
  5
C
330
0
100
AcDbDictionary
281
     1
  3
ACAD_GROUP
350
D
  3
ACAD_LAYOUT
350
1A
  3
ACAD_MLINESTYLE
350
17
  3
ACAD_PLOTSETTINGS
350
19
  3
ACAD_PLOTSTYLENAME
350
E
  3
ACAD_SCALELIST
350
47
  3
DWGPROPS
350
196
  0
DICTIONARY
  5
D
102
{ACAD_REACTORS
330
C
102
}
330
C
100
AcDbDictionary
281
     1
  0
DICTIONARY
  5
1A
102
{ACAD_REACTORS
330
C
102
}
330
C
100
AcDbDictionary
281
     1
  3
Layout1
350
1E
  3
Layout2
350
26
  3
Model
350
22
  0
DICTIONARY
  5
17
102
{ACAD_REACTORS
330
C
102
}
330
C
100
AcDbDictionary
281
     1
  3
Standard
350
18
  0
DICTIONARY
  5
19
102
{ACAD_REACTORS
330
C
102
}
330
C
100
AcDbDictionary
281
     1
  0
ACDBDICTIONARYWDFLT
  5
E
102
{ACAD_REACTORS
330
C
102
}
330
C
100
AcDbDictionary
281
     1
  3
Normal
350
F
100
AcDbDictionaryWithDefault
340
F
  0
DICTIONARY
  5
47
102
{ACAD_REACTORS
330
C
102
}
330
C
100
AcDbDictionary
281
     1
  3
A0
350
48
  3
A1
350
49
  3
A2
350
4A
  3
A3
350
4B
  3
A4
350
4C
  3
A5
350
4D
  3
A6
350
4E
  3
A7
350
4F
  3
A8
350
50
  3
A9
350
51
  3
B0
350
52
  3
B1
350
53
  3
B2
350
54
  3
B3
350
55
  3
B4
350
56
  3
B5
350
57
  3
B6
350
58
  3
B7
350
59
  3
B8
350
5A
  3
B9
350
5B
  3
C0
350
5C
  3
C1
350
5D
  3
C2
350
5E
  3
C3
350
5F
  3
C4
350
60
  3
C5
350
61
  3
C6
350
62
  3
C7
350
63
  3
C8
350
64
  3
C9
350
65
  3
D0
350
66
  3
D1
350
67
  3
D2
350
68
  0
XRECORD
  5
196
102
{ACAD_REACTORS
330
C
102
}
330
C
100
AcDbXrecord
280
     1
  1
DWGPROPS COOKIE
  2

  3

  4

  6

  7

  8
ldura
  9

300
=
301
=
302
=
303
=
304
=
305
=
306
=
307
=
308
=
309
=
 40
0.0
 41
2459338.845742245
 42
2459338.84574338
  1

 90
        0
  0
LAYOUT
  5
1E
102
{ACAD_REACTORS
330
1A
102
}
330
1A
100
AcDbPlotSettings
  1

  2
none_device
  4

  6

 40
0.0
 41
0.0
 42
0.0
 43
0.0
 44
0.0
 45
0.0
 46
0.0
 47
0.0
 48
0.0
 49
0.0
140
0.0
141
0.0
142
1.0
143
1.0
 70
   688
 72
     0
 73
     0
 74
     5
  7

 75
    16
147
1.0
148
0.0
149
0.0
100
AcDbLayout
  1
Layout1
 70
     1
 71
     1
 10
0.0
 20
0.0
 11
12.0
 21
9.0
 12
0.0
 22
0.0
 32
0.0
 14
1.0000000000E+20
 24
1.0000000000E+20
 34
1.0000000000E+20
 15
-1.0000000000E+20
 25
-1.0000000000E+20
 35
-1.0000000000E+20
146
0.0
 13
0.0
 23
0.0
 33
0.0
 16
1.0
 26
0.0
 36
0.0
 17
0.0
 27
1.0
 37
0.0
 76
     0
330
1B
  0
LAYOUT
  5
26
102
{ACAD_REACTORS
330
1A
102
}
330
1A
100
AcDbPlotSettings
  1

  2
none_device
  4

  6

 40
0.0
 41
0.0
 42
0.0
 43
0.0
 44
0.0
 45
0.0
 46
0.0
 47
0.0
 48
0.0
 49
0.0
140
0.0
141
0.0
142
1.0
143
1.0
 70
   688
 72
     0
 73
     0
 74
     5
  7

 75
    16
147
1.0
148
0.0
149
0.0
100
AcDbLayout
  1
Layout2
 70
     1
 71
     2
 10
0.0
 20
0.0
 11
0.0
 21
0.0
 12
0.0
 22
0.0
 32
0.0
 14
0.0
 24
0.0
 34
0.0
 15
0.0
 25
0.0
 35
0.0
146
0.0
 13
0.0
 23
0.0
 33
0.0
 16
1.0
 26
0.0
 36
0.0
 17
0.0
 27
1.0
 37
0.0
 76
     0
330
23
  0
LAYOUT
  5
22
102
{ACAD_REACTORS
330
1A
102
}
330
1A
100
AcDbPlotSettings
  1

  2
none_device
  4
Letter_(8.50_x_11.00_Inches)
  6

 40
6.35
 41
6.35
 42
6.35000508
 43
6.35000508
 44
215.9
 45
279.4
 46
0.0
 47
0.0
 48
0.0
 49
0.0
140
0.0
141
0.0
142
1.0
143
1.0
 70
  1712
 72
     0
 73
     0
 74
     0
  7

 75
     0
147
1.0
148
0.0
149
0.0
100
AcDbLayout
  1
Model
 70
     1
 71
     0
 10
0.0
 20
0.0
 11
44.0
 21
34.0
 12
0.0
 22
0.0
 32
0.0
 14
0.0
 24
0.0
 34
0.0
 15
44.0
 25
34.0
 35
0.0
146
0.0
 13
0.0
 23
0.0
 33
0.0
 16
1.0
 26
0.0
 36
0.0
 17
0.0
 27
1.0
 37
0.0
 76
     0
330
1F
331
29
  0
MLINESTYLE
  5
18
102
{ACAD_REACTORS
330
17
102
}
330
17
100
AcDbMlineStyle
  2
Standard
 70
     0
  3

 62
   256
 51
90.0
 52
90.0
 71
     2
 49
0.5
 62
   256
  6
BYLAYER
 49
-0.5
 62
   256
  6
BYLAYER
  0
ACDBPLACEHOLDER
  5
F
102
{ACAD_REACTORS
330
E
102
}
330
E
  0
SCALE
  5
48
102
{ACAD_REACTORS
330
47
102
}
330
47
100
AcDbScale
 70
     0
300
1:1
140
1.0
141
1.0
290
     1
  0
SCALE
  5
49
102
{ACAD_REACTORS
330
47
102
}
330
47
100
AcDbScale
 70
     0
300
1:2
140
1.0
141
2.0
290
     0
  0
SCALE
  5
4A
102
{ACAD_REACTORS
330
47
102
}
330
47
100
AcDbScale
 70
     0
300
1:4
140
1.0
141
4.0
290
     0
  0
SCALE
  5
4B
102
{ACAD_REACTORS
330
47
102
}
330
47
100
AcDbScale
 70
     0
300
1:5
140
1.0
141
5.0
290
     0
  0
SCALE
  5
4C
102
{ACAD_REACTORS
330
47
102
}
330
47
100
AcDbScale
 70
     0
300
1:8
140
1.0
141
8.0
290
     0
  0
SCALE
  5
4D
102
{ACAD_REACTORS
330
47
102
}
330
47
100
AcDbScale
 70
     0
300
1:10
140
1.0
141
10.0
290
     0
  0
SCALE
  5
4E
102
{ACAD_REACTORS
330
47
102
}
330
47
100
AcDbScale
 70
     0
300
1:16
140
1.0
141
16.0
290
     0
  0
SCALE
  5
4F
102
{ACAD_REACTORS
330
47
102
}
330
47
100
AcDbScale
 70
     0
300
1:20
140
1.0
141
20.0
290
     0
  0
SCALE
  5
50
102
{ACAD_REACTORS
330
47
102
}
330
47
100
AcDbScale
 70
     0
300
1:30
140
1.0
141
30.0
290
     0
  0
SCALE
  5
51
102
{ACAD_REACTORS
330
47
102
}
330
47
100
AcDbScale
 70
     0
300
1:40
140
1.0
141
40.0
290
     0
  0
SCALE
  5
52
102
{ACAD_REACTORS
330
47
102
}
330
47
100
AcDbScale
 70
     0
300
1:50
140
1.0
141
50.0
290
     0
  0
SCALE
  5
53
102
{ACAD_REACTORS
330
47
102
}
330
47
100
AcDbScale
 70
     0
300
1:100
140
1.0
141
100.0
290
     0
  0
SCALE
  5
54
102
{ACAD_REACTORS
330
47
102
}
330
47
100
AcDbScale
 70
     0
300
2:1
140
2.0
141
1.0
290
     0
  0
SCALE
  5
55
102
{ACAD_REACTORS
330
47
102
}
330
47
100
AcDbScale
 70
     0
300
4:1
140
4.0
141
1.0
290
     0
  0
SCALE
  5
56
102
{ACAD_REACTORS
330
47
102
}
330
47
100
AcDbScale
 70
     0
300
8:1
140
8.0
141
1.0
290
     0
  0
SCALE
  5
57
102
{ACAD_REACTORS
330
47
102
}
330
47
100
AcDbScale
 70
     0
300
10:1
140
10.0
141
1.0
290
     0
  0
SCALE
  5
58
102
{ACAD_REACTORS
330
47
102
}
330
47
100
AcDbScale
 70
     0
300
100:1
140
100.0
141
1.0
290
     0
  0
SCALE
  5
59
102
{ACAD_REACTORS
330
47
102
}
330
47
100
AcDbScale
 70
     0
300
1/128" = 1'-0"
140
0.0078125
141
12.0
290
     0
  0
SCALE
  5
5A
102
{ACAD_REACTORS
330
47
102
}
330
47
100
AcDbScale
 70
     0
300
1/64" = 1'-0"
140
0.015625
141
12.0
290
     0
  0
SCALE
  5
5B
102
{ACAD_REACTORS
330
47
102
}
330
47
100
AcDbScale
 70
     0
300
1/32" = 1'-0"
140
0.03125
141
12.0
290
     0
  0
SCALE
  5
5C
102
{ACAD_REACTORS
330
47
102
}
330
47
100
AcDbScale
 70
     0
300
1/16" = 1'-0"
140
0.0625
141
12.0
290
     0
  0
SCALE
  5
5D
102
{ACAD_REACTORS
330
47
102
}
330
47
100
AcDbScale
 70
     0
300
3/32" = 1'-0"
140
0.09375
141
12.0
290
     0
  0
SCALE
  5
5E
102
{ACAD_REACTORS
330
47
102
}
330
47
100
AcDbScale
 70
     0
300
1/8" = 1'-0"
140
0.125
141
12.0
290
     0
  0
SCALE
  5
5F
102
{ACAD_REACTORS
330
47
102
}
330
47
100
AcDbScale
 70
     0
300
3/16" = 1'-0"
140
0.1875
141
12.0
290
     0
  0
SCALE
  5
60
102
{ACAD_REACTORS
330
47
102
}
330
47
100
AcDbScale
 70
     0
300
1/4" = 1'-0"
140
0.25
141
12.0
290
     0
  0
SCALE
  5
61
102
{ACAD_REACTORS
330
47
102
}
330
47
100
AcDbScale
 70
     0
300
3/8" = 1'-0"
140
0.375
141
12.0
290
     0
  0
SCALE
  5
62
102
{ACAD_REACTORS
330
47
102
}
330
47
100
AcDbScale
 70
     0
300
1/2" = 1'-0"
140
0.5
141
12.0
290
     0
  0
SCALE
  5
63
102
{ACAD_REACTORS
330
47
102
}
330
47
100
AcDbScale
 70
     0
300
3/4" = 1'-0"
140
0.75
141
12.0
290
     0
  0
SCALE
  5
64
102
{ACAD_REACTORS
330
47
102
}
330
47
100
AcDbScale
 70
     0
300
1" = 1'-0"
140
1.0
141
12.0
290
     0
  0
SCALE
  5
65
102
{ACAD_REACTORS
330
47
102
}
330
47
100
AcDbScale
 70
     0
300
1-1/2" = 1'-0"
140
1.5
141
12.0
290
     0
  0
SCALE
  5
66
102
{ACAD_REACTORS
330
47
102
}
330
47
100
AcDbScale
 70
     0
300
3" = 1'-0"
140
3.0
141
12.0
290
     0
  0
SCALE
  5
67
102
{ACAD_REACTORS
330
47
102
}
330
47
100
AcDbScale
 70
     0
300
6" = 1'-0"
140
6.0
141
12.0
290
     0
  0
SCALE
  5
68
102
{ACAD_REACTORS
330
47
102
}
330
47
100
AcDbScale
 70
     0
300
1'-0" = 1'-0"
140
12.0
141
12.0
290
     0
  0
ENDSEC
  0
EOF
